<?xml version="1.0" encoding="UTF-8" standalone="no"?>
<svg
   height="140"
   width="230"
   version="1.1"
   id="svg16"
   sodipodi:docname="controls-spinbuttons.svg"
   inkscape:version="1.3.2 (091e20ef0f, 2023-11-25)"
   xmlns:inkscape="http://www.inkscape.org/namespaces/inkscape"
   xmlns:sodipodi="http://sodipodi.sourceforge.net/DTD/sodipodi-0.dtd"
   xmlns:xlink="http://www.w3.org/1999/xlink"
   xmlns="http://www.w3.org/2000/svg"
   xmlns:svg="http://www.w3.org/2000/svg">
  <defs
     id="defs20">
    <linearGradient
       inkscape:collect="always"
       xlink:href="#linearGradient1-6"
       id="linearGradient2-3"
       x1="175"
       y1="125"
       x2="40"
       y2="25"
       gradientUnits="userSpaceOnUse" />
    <linearGradient
       id="linearGradient1-6"
       inkscape:collect="always">
      <stop
         style="stop-color:#33d17a;stop-opacity:1"
         offset="0"
         id="stop1-7" />
      <stop
         style="stop-color:#8ff0a4;stop-opacity:1"
         offset="1"
         id="stop2-5" />
    </linearGradient>
  </defs>
  <sodipodi:namedview
     id="namedview18"
     pagecolor="#505050"
     bordercolor="#ffffff"
     borderopacity="1"
     inkscape:pageshadow="0"
     inkscape:pageopacity="0"
     inkscape:pagecheckerboard="1"
     showgrid="true"
     inkscape:current-layer="svg16"
     inkscape:showpageshadow="0"
     inkscape:deskcolor="#505050"
     inkscape:zoom="2.1516249"
     inkscape:cx="143.14763"
     inkscape:cy="69.249989"
     inkscape:window-width="1920"
     inkscape:window-height="1011"
     inkscape:window-x="0"
     inkscape:window-y="0"
     inkscape:window-maximized="1">
    <inkscape:grid
       id="grid1"
       units="px"
       originx="0"
       originy="0"
       spacingx="1"
       spacingy="1"
       empcolor="#3f3fff"
       empopacity="0.25098039"
       color="#3f3fff"
       opacity="0.1254902"
       empspacing="5"
       dotted="false"
       gridanglex="30"
       gridanglez="30"
       visible="true" />
  </sodipodi:namedview>
  <rect
     style="font-variation-settings:normal;vector-effect:none;fill:url(#linearGradient2-3);fill-opacity:1;stroke:none;stroke-width:18;stroke-linecap:round;stroke-linejoin:miter;stroke-miterlimit:4;stroke-dasharray:none;stroke-dashoffset:26.4;stroke-opacity:1;-inkscape-stroke:none;stop-color:#000000"
     width="230"
     height="140"
     x="0.001"
     ry="20.210613"
     rx="20.210613"
     id="rect25350"
     y="0" />
  <rect
     width="150.00677"
     height="50.00618"
     x="40"
     y="45"
     rx="15"
     ry="15"
     fill="#fff"
     style="fill:#ffffff;fill-opacity:1;stroke:none;stroke-width:2;stroke-miterlimit:4;stroke-dasharray:none;opacity:0.7"
     id="rect4" />
  <g
     aria-label="5"
     id="text10"
     style="font-weight:700;font-size:8.46667px;line-height:1.25;font-family:Cantarell;-inkscape-font-specification:'Cantarell Bold';letter-spacing:0;word-spacing:0;fill:#241f31;stroke-width:0.264583"
     transform="matrix(3.77953,0,0,3.77953,-4510,-810)">
    <path
       d="m 1211.5784,236.01567 c 1.4224,0 2.3622,-0.75354 2.3622,-1.96427 0,-1.10913 -0.7958,-1.76954 -2.1674,-1.76954 -0.3472,0 -0.5927,0.0423 -0.8298,0.13547 l 0.271,0.33867 0.076,-1.7526 h 2.3537 v -0.94827 h -3.3951 l -0.144,3.23427 c 0.3726,-0.0762 0.8467,-0.127 1.2108,-0.127 0.9398,0 1.4901,0.36407 1.4901,0.99907 0,0.57573 -0.4572,0.90593 -1.2192,0.90593 -0.508,0 -1.0668,-0.127 -1.4986,-0.34713 l -0.3048,0.85513 c 0.5503,0.28787 1.143,0.44027 1.7949,0.44027 z"
       id="path22"
       style="fill:#241f31" />
  </g>
  <path
     style="color:#000000;fill:#241f31;-inkscape-stroke:none"
     d="M 120.99609,60.001953 V 68 h -8.00195 v 4 h 8.00195 v 8 h 3.99805 v -8 h 8.00195 v -4 h -8.00195 V 60.001953 Z M 150.99414,68 v 4 h 20.00195 v -4 z"
     id="path7"
     sodipodi:nodetypes="cccccccccccccccccc" />
</svg>
