<?xml version="1.0" encoding="UTF-8" standalone="no"?>
<svg
   height="140"
   width="230"
   version="1.1"
   id="svg1871"
   sodipodi:docname="controls-overlaid.svg"
   inkscape:version="1.3.2 (091e20ef0f, 2023-11-25)"
   xmlns:inkscape="http://www.inkscape.org/namespaces/inkscape"
   xmlns:sodipodi="http://sodipodi.sourceforge.net/DTD/sodipodi-0.dtd"
   xmlns:xlink="http://www.w3.org/1999/xlink"
   xmlns="http://www.w3.org/2000/svg"
   xmlns:svg="http://www.w3.org/2000/svg">
  <defs
     id="defs1875">
    <linearGradient
       inkscape:collect="always"
       xlink:href="#linearGradient1"
       id="linearGradient2"
       x1="24.667015"
       y1="26.404297"
       x2="222.65921"
       y2="92.982422"
       gradientUnits="userSpaceOnUse" />
    <linearGradient
       id="linearGradient1"
       inkscape:collect="always">
      <stop
         style="stop-color:#99c1f1;stop-opacity:1"
         offset="0"
         id="stop1" />
      <stop
         style="stop-color:#ffbe6f;stop-opacity:1"
         offset="1"
         id="stop2" />
    </linearGradient>
  </defs>
  <sodipodi:namedview
     id="namedview1873"
     pagecolor="#505050"
     bordercolor="#ffffff"
     borderopacity="1"
     inkscape:showpageshadow="0"
     inkscape:pageopacity="0"
     inkscape:pagecheckerboard="1"
     inkscape:deskcolor="#505050"
     showgrid="true"
     inkscape:current-layer="svg1871"
     inkscape:zoom="1.5214286"
     inkscape:cx="79.530516"
     inkscape:cy="13.14554"
     inkscape:window-width="1920"
     inkscape:window-height="1011"
     inkscape:window-x="0"
     inkscape:window-y="0"
     inkscape:window-maximized="1">
    <inkscape:grid
       id="grid1"
       units="px"
       originx="0"
       originy="0"
       spacingx="1"
       spacingy="1"
       empcolor="#3f3fff"
       empopacity="0.25098039"
       color="#3f3fff"
       opacity="0.1254902"
       empspacing="5"
       dotted="false"
       gridanglex="30"
       gridanglez="30"
       visible="true" />
  </sodipodi:namedview>
  <rect
     style="fill:url(#linearGradient2);fill-opacity:1;stroke:none;stroke-width:18;stroke-linecap:round;stroke-dashoffset:26.4"
     width="230"
     height="140"
     x="0.001"
     ry="20"
     rx="20"
     id="rect7"
     y="0" />
  <g
     transform="translate(-4020 -1000) scale(3.77953)"
     id="g1869">
    <rect
       width="47.625"
       height="15.875"
       x="1070.239"
       y="275.167"
       rx="7.937"
       ry="7.937"
       fill="#fff"
       style="fill:#000000;fill-opacity:0.29770687;stroke:none;stroke-width:0.547741;stroke-miterlimit:4;stroke-dasharray:none"
       id="rect1845" />
    <path
       d="M1091.935 280.988h1.588v4.233h-1.588zm2.646 0h1.588v4.233h-1.588z"
       style="fill:#fff;fill-opacity:1;stroke-width:.529171;marker:none"
       overflow="visible"
       color="#000"
       fill="#474747"
       id="path1847" />
    <g
       color="#000"
       fill="#474747"
       style="fill:#fff;fill-opacity:1"
       id="g1857">
      <path
         d="M9.04 4A1 1 0 0 0 8 5v6a1 1 0 0 0 1.514.857l5-3a1 1 0 0 0 0-1.714l-5-3A1 1 0 0 0 9.04 4zM10 6.768 12.055 8 10 9.232z"
         style="line-height:normal;font-variant-ligatures:normal;font-variant-position:normal;font-variant-caps:normal;font-variant-numeric:normal;font-variant-alternates:normal;font-feature-settings:normal;text-indent:0;text-align:start;text-decoration-line:none;text-decoration-style:solid;text-decoration-color:#000;text-transform:none;text-orientation:mixed;shape-padding:0;isolation:auto;mix-blend-mode:normal;fill:#fff;fill-opacity:1;marker:none"
         font-weight="400"
         font-family="sans-serif"
         overflow="visible"
         transform="translate(1103.577 278.871) scale(.52917)"
         id="path1849" />
      <path
         d="M9 11H8v1h1zm0-7H8v1h1z"
         style="fill:#fff;fill-opacity:1;marker:none"
         overflow="visible"
         transform="translate(1103.577 278.871) scale(.52917)"
         id="path1851" />
      <path
         d="M2.04 4A1 1 0 0 0 1 5v6a1 1 0 0 0 1.514.857l5-3a1 1 0 0 0 0-1.714l-5-3A1 1 0 0 0 2.04 4zM3 6.768 5.055 8 3 9.232z"
         style="line-height:normal;font-variant-ligatures:normal;font-variant-position:normal;font-variant-caps:normal;font-variant-numeric:normal;font-variant-alternates:normal;font-feature-settings:normal;text-indent:0;text-align:start;text-decoration-line:none;text-decoration-style:solid;text-decoration-color:#000;text-transform:none;text-orientation:mixed;shape-padding:0;isolation:auto;mix-blend-mode:normal;fill:#fff;fill-opacity:1;marker:none"
         font-weight="400"
         font-family="sans-serif"
         overflow="visible"
         transform="translate(1103.577 278.871) scale(.52917)"
         id="path1853" />
      <path
         d="M2 11H1v1h1zm0-7H1v1h1zm7 1 5 3-5 3zM2 5l5 3-5 3z"
         style="fill:#fff;fill-opacity:1;marker:none"
         overflow="visible"
         transform="translate(1103.577 278.871) scale(.52917)"
         id="path1855" />
    </g>
    <g
       color="#000"
       fill="#474747"
       style="fill:#fff;fill-opacity:1"
       id="g1867">
      <path
         d="M9.04 4A1 1 0 0 0 8 5v6a1 1 0 0 0 1.514.857l5-3a1 1 0 0 0 0-1.714l-5-3A1 1 0 0 0 9.04 4zM10 6.768 12.055 8 10 9.232z"
         style="line-height:normal;font-variant-ligatures:normal;font-variant-position:normal;font-variant-caps:normal;font-variant-numeric:normal;font-variant-alternates:normal;font-feature-settings:normal;text-indent:0;text-align:start;text-decoration-line:none;text-decoration-style:solid;text-decoration-color:#000;text-transform:none;text-orientation:mixed;shape-padding:0;isolation:auto;mix-blend-mode:normal;fill:#fff;fill-opacity:1;marker:none"
         font-weight="400"
         font-family="sans-serif"
         overflow="visible"
         transform="matrix(-.52917 0 0 .52917 1084.526 278.871)"
         id="path1859" />
      <path
         d="M9 11H8v1h1zm0-7H8v1h1z"
         style="fill:#fff;fill-opacity:1;marker:none"
         overflow="visible"
         transform="matrix(-.52917 0 0 .52917 1084.526 278.871)"
         id="path1861" />
      <path
         d="M2.04 4A1 1 0 0 0 1 5v6a1 1 0 0 0 1.514.857l5-3a1 1 0 0 0 0-1.714l-5-3A1 1 0 0 0 2.04 4zM3 6.768 5.055 8 3 9.232z"
         style="line-height:normal;font-variant-ligatures:normal;font-variant-position:normal;font-variant-caps:normal;font-variant-numeric:normal;font-variant-alternates:normal;font-feature-settings:normal;text-indent:0;text-align:start;text-decoration-line:none;text-decoration-style:solid;text-decoration-color:#000;text-transform:none;text-orientation:mixed;shape-padding:0;isolation:auto;mix-blend-mode:normal;fill:#fff;fill-opacity:1;marker:none"
         font-weight="400"
         font-family="sans-serif"
         overflow="visible"
         transform="matrix(-.52917 0 0 .52917 1084.526 278.871)"
         id="path1863" />
      <path
         d="M2 11H1v1h1zm0-7H1v1h1zm7 1 5 3-5 3zM2 5l5 3-5 3z"
         style="fill:#fff;fill-opacity:1;marker:none"
         overflow="visible"
         transform="matrix(-.52917 0 0 .52917 1084.526 278.871)"
         id="path1865" />
    </g>
  </g>
</svg>
