<?xml version="1.0" encoding="UTF-8" standalone="no"?>
<svg
   height="140"
   width="230"
   version="1.1"
   id="svg27"
   sodipodi:docname="containers-boxedlists.svg"
   inkscape:version="1.3.2 (091e20ef0f, 2023-11-25)"
   xmlns:inkscape="http://www.inkscape.org/namespaces/inkscape"
   xmlns:sodipodi="http://sodipodi.sourceforge.net/DTD/sodipodi-0.dtd"
   xmlns:xlink="http://www.w3.org/1999/xlink"
   xmlns="http://www.w3.org/2000/svg"
   xmlns:svg="http://www.w3.org/2000/svg">
  <sodipodi:namedview
     id="namedview29"
     pagecolor="#505050"
     bordercolor="#ffffff"
     borderopacity="1"
     inkscape:showpageshadow="0"
     inkscape:pageopacity="0"
     inkscape:pagecheckerboard="1"
     inkscape:deskcolor="#505050"
     showgrid="false"
     inkscape:current-layer="svg27"
     inkscape:zoom="2.0478261"
     inkscape:cx="177.74947"
     inkscape:cy="105.96603"
     inkscape:window-width="1920"
     inkscape:window-height="1011"
     inkscape:window-x="0"
     inkscape:window-y="0"
     inkscape:window-maximized="1">
    <inkscape:grid
       id="grid2"
       units="px"
       originx="0"
       originy="0"
       spacingx="1"
       spacingy="1"
       empcolor="#3f3fff"
       empopacity="0.25098039"
       color="#3f3fff"
       opacity="0.1254902"
       empspacing="5"
       dotted="false"
       gridanglex="30"
       gridanglez="30"
       visible="false" />
  </sodipodi:namedview>
  <defs
     id="defs5">
    <linearGradient
       id="linearGradient1"
       inkscape:collect="always">
      <stop
         style="stop-color:#99c1f1;stop-opacity:1"
         offset="0"
         id="stop1" />
      <stop
         style="stop-color:#dc8add;stop-opacity:1"
         offset="1"
         id="stop2" />
    </linearGradient>
    <linearGradient
       inkscape:collect="always"
       xlink:href="#linearGradient1"
       id="linearGradient2"
       x1="18.582474"
       y1="20.058662"
       x2="225.31178"
       y2="139.41388"
       gradientUnits="userSpaceOnUse" />
    <clipPath
       clipPathUnits="userSpaceOnUse"
       id="clipPath11">
      <g
         id="g12">
        <rect
           style="fill:#99c1f1;stroke:none;stroke-width:4.76251;stroke-linecap:round;stroke-dashoffset:26.4"
           width="229.99951"
           height="140.00134"
           x="0.00085330813"
           y="-0.017282408"
           ry="2.1170001"
           rx="2.1170001"
           id="rect12" />
      </g>
    </clipPath>
  </defs>
  <rect
     style="fill:url(#linearGradient2);fill-opacity:1;stroke:none;stroke-width:18;stroke-linecap:round;stroke-dashoffset:26.4"
     width="230"
     height="140"
     x="0.001"
     ry="20"
     rx="20"
     id="rect7"
     y="0" />
  <rect
     style="font-variation-settings:normal;opacity:1;vector-effect:none;fill:#000000;fill-opacity:0.55;stroke-width:1;stroke-linecap:round;stroke-linejoin:miter;stroke-miterlimit:4;stroke-dasharray:none;stroke-dashoffset:0;stroke-opacity:0.158818;-inkscape-stroke:none;paint-order:markers stroke fill;stop-color:#000000;stop-opacity:1"
     id="rect3"
     width="62.40958"
     height="10"
     x="50"
     y="15"
     rx="5"
     ry="5" />
  <path
     id="rect6"
     style="fill:#000000;fill-opacity:0.271991;stroke-linecap:round;stroke-opacity:0.158818;paint-order:markers stroke fill"
     d="m 60,30 c -5.53999,0 -10,4.460006 -10,10 v 20 c 0,5.539994 4.46001,10 10,10 h 110 c 5.53999,0 10,-4.460006 10,-10 V 40 c 0,-5.539994 -4.46001,-10 -10,-10 z m 7.5,10 h 90 c 1.385,0 2.5,1.115001 2.5,2.5 0,1.384999 -1.115,2.5 -2.5,2.5 h -90 C 66.115,45 65,43.884999 65,42.5 65,41.115001 66.115,40 67.5,40 Z m 0,15 h 65 c 1.385,0 2.5,1.115001 2.5,2.5 0,1.384999 -1.115,2.5 -2.5,2.5 h -65 C 66.115,60 65,58.884999 65,57.5 65,56.115001 66.115,55 67.5,55 Z M 60,100 c -5.53999,0 -10,4.46001 -10,10 v 45 c 0,5.53999 4.46001,10 10,10 h 110 c 5.53999,0 10,-4.46001 10,-10 v -45 c 0,-5.53999 -4.46001,-10 -10,-10 z m 7.5,10 h 70 c 1.385,0 2.5,1.115 2.5,2.5 0,1.385 -1.115,2.5 -2.5,2.5 h -70 c -1.385,0 -2.5,-1.115 -2.5,-2.5 0,-1.385 1.115,-2.5 2.5,-2.5 z m 0,15 h 100 c 1.385,0 2.5,1.115 2.5,2.5 0,1.385 -1.115,2.5 -2.5,2.5 h -100 c -1.385,0 -2.5,-1.115 -2.5,-2.5 0,-1.385 1.115,-2.5 2.5,-2.5 z m 0,15 h 80 c 1.385,0 2.5,1.115 2.5,2.5 0,1.385 -1.115,2.5 -2.5,2.5 h -80 c -1.385,0 -2.5,-1.115 -2.5,-2.5 0,-1.385 1.115,-2.5 2.5,-2.5 z" />
  <rect
     style="font-variation-settings:normal;opacity:1;vector-effect:none;fill:#000000;fill-opacity:0.55;stroke-width:1;stroke-linecap:round;stroke-linejoin:miter;stroke-miterlimit:4;stroke-dasharray:none;stroke-dashoffset:0;stroke-opacity:0.158818;-inkscape-stroke:none;paint-order:markers stroke fill;stop-color:#000000;stop-opacity:1"
     id="rect10"
     width="62.40958"
     height="10"
     x="50"
     y="85"
     rx="5"
     ry="5" />
  <g
     id="g5"
     style="opacity:0.7"
     transform="translate(-210,5)">
    <rect
       style="fill:#ffffff;stroke-width:2;stroke-linecap:round;stroke-linejoin:round"
       id="rect1"
       width="130"
       height="65"
       x="50"
       y="95"
       rx="10"
       ry="10" />
    <rect
       style="fill:#ffffff;stroke-width:2;stroke-linecap:round;stroke-linejoin:round"
       id="rect2"
       width="130"
       height="40"
       x="50"
       y="25"
       rx="10"
       ry="10" />
    <rect
       style="fill:#ffffff;stroke-width:2;stroke-linecap:round;stroke-linejoin:round"
       id="rect4"
       width="75"
       height="10"
       x="50"
       y="10"
       rx="5"
       ry="5" />
    <rect
       style="fill:#ffffff;stroke-width:2;stroke-linecap:round;stroke-linejoin:round"
       id="rect5"
       width="65"
       height="10"
       x="50"
       y="80"
       rx="5"
       ry="5" />
    <rect
       style="fill:#241f31;stroke-width:2;stroke-linecap:round;stroke-linejoin:round"
       id="rect8"
       width="85"
       height="6"
       x="60"
       y="105"
       rx="5"
       ry="5" />
    <rect
       style="fill:#241f31;stroke-width:2;stroke-linecap:round;stroke-linejoin:round"
       id="rect9"
       width="85"
       height="6"
       x="60"
       y="115"
       rx="5"
       ry="5" />
  </g>
</svg>
