<?xml version="1.0" encoding="UTF-8" standalone="no"?>
<svg
   height="140"
   width="230"
   version="1.1"
   id="svg36"
   sodipodi:docname="containers-gridviews.svg"
   inkscape:version="1.3.2 (091e20ef0f, 2023-11-25)"
   xmlns:inkscape="http://www.inkscape.org/namespaces/inkscape"
   xmlns:sodipodi="http://sodipodi.sourceforge.net/DTD/sodipodi-0.dtd"
   xmlns:xlink="http://www.w3.org/1999/xlink"
   xmlns="http://www.w3.org/2000/svg"
   xmlns:svg="http://www.w3.org/2000/svg">
  <defs
     id="defs40">
    <linearGradient
       id="linearGradient1"
       inkscape:collect="always">
      <stop
         style="stop-color:#62a0ea;stop-opacity:1"
         offset="0"
         id="stop1" />
      <stop
         style="stop-color:#8ff0a4;stop-opacity:1"
         offset="1"
         id="stop2" />
    </linearGradient>
    <linearGradient
       inkscape:collect="always"
       xlink:href="#linearGradient1"
       id="linearGradient2"
       x1="20"
       y1="5"
       x2="209.53299"
       y2="114.42693"
       gradientUnits="userSpaceOnUse" />
    <clipPath
       clipPathUnits="userSpaceOnUse"
       id="clipPath14">
      <path
         id="path14"
         style="fill:#ed333b;fill-opacity:0.549391;stroke-linecap:round;stroke-opacity:0.158818;paint-order:markers stroke fill"
         d="m 165,75 h 40.00624 c 5.54,0 10,4.46 10,10 v 30 c 0,5.54 -4.46,10 -10,10 H 165 c -5.54,0 -10,-4.46 -10,-10 V 85 c 0,-5.54 4.46,-10 10,-10 z m -70,0 h 40 c 5.54,0 10,4.46 10,10 v 30 c 0,5.54 -4.46,10 -10,10 H 95 c -5.54,0 -10,-4.46 -10,-10 V 85 c 0,-5.54 4.46,-10 10,-10 z m -70,0 h 40 c 5.54,0 10,4.46 10,10 v 30 c 0,5.54 -4.46,10 -10,10 H 25 c -5.54,0 -10,-4.46 -10,-10 V 85 C 15,79.46 19.46,75 25,75 Z M 165,15 h 40.00624 c 5.54,0 10,4.46 10,10 v 30 c 0,5.54 -4.46,10 -10,10 H 165 c -5.54,0 -10,-4.46 -10,-10 V 25 c 0,-5.54 4.46,-10 10,-10 z m -70,0 h 40 c 5.54,0 10,4.46 10,10 v 30 c 0,5.54 -4.46,10 -10,10 H 95 C 89.46,65 85,60.54 85,55 V 25 c 0,-5.54 4.46,-10 10,-10 z m -70,0 h 40 c 5.54,0 10,4.46 10,10 v 30 c 0,5.54 -4.46,10 -10,10 H 25 C 19.46,65 15,60.54 15,55 V 25 c 0,-5.54 4.46,-10 10,-10 z" />
    </clipPath>
  </defs>
  <sodipodi:namedview
     id="namedview38"
     pagecolor="#505050"
     bordercolor="#ffffff"
     borderopacity="1"
     inkscape:showpageshadow="0"
     inkscape:pageopacity="0"
     inkscape:pagecheckerboard="1"
     inkscape:deskcolor="#505050"
     showgrid="true"
     inkscape:current-layer="svg36"
     inkscape:zoom="1"
     inkscape:cx="115"
     inkscape:cy="70"
     inkscape:window-width="1920"
     inkscape:window-height="1011"
     inkscape:window-x="0"
     inkscape:window-y="0"
     inkscape:window-maximized="1">
    <inkscape:grid
       id="grid1"
       units="px"
       originx="0"
       originy="0"
       spacingx="1"
       spacingy="1"
       empcolor="#3f3fff"
       empopacity="0.25098039"
       color="#3f3fff"
       opacity="0.1254902"
       empspacing="5"
       dotted="false"
       gridanglex="30"
       gridanglez="30"
       visible="true" />
  </sodipodi:namedview>
  <rect
     style="fill:url(#linearGradient2);fill-opacity:1;stroke:none;stroke-width:18;stroke-linecap:round;stroke-dashoffset:26.4"
     width="230"
     height="140"
     x="0.001"
     ry="19.6147"
     rx="19.6147"
     id="rect2"
     y="0" />
  <path
     fill="#99c1f1"
     style="fill:#d1e3f9;fill-opacity:1;stroke-width:0.999999"
     d="m -235.00258,55.000279 h 44.99908 v 3.998742 h -44.99908 z"
     id="path6" />
  <path
     fill="#99c1f1"
     style="fill:#d1e3f9;fill-opacity:1;stroke-width:0.999999"
     d="m -165.00191,55.000279 h 20.00128 v 3.998742 h -20.00128 z"
     id="path12" />
  <path
     fill="#99c1f1"
     style="fill:#d1e3f9;fill-opacity:1;stroke-width:0.999999"
     d="m -95.00501,55.000279 h 39.99877 v 3.998742 h -39.99877 z"
     id="path18" />
  <path
     fill="#99c1f1"
     style="fill:#d1e3f9;fill-opacity:1;stroke-width:0.999999"
     d="m -235.00258,110 h 25.00159 v 3.99874 h -25.00159 z"
     id="path24" />
  <path
     id="rect28"
     style="fill:#ffffff;fill-opacity:0.995961;stroke-width:0.999999"
     d="m -237.00896,16.989463 c -1.06222,0.001 -2.0706,0.218172 -2.9961,0.591797 a 7.9823674,7.9823674 0 0 1 2.9961,-0.591797 z m 48.91406,0 a 7.9823674,7.9823674 0 0 1 0.37891,0.0293 c -0.0982,-0.0035 -0.19002,-0.0293 -0.28907,-0.0293 z m 21.08594,0 c -1.06222,0.001 -2.0706,0.218172 -2.9961,0.591797 a 7.9823674,7.9823674 0 0 1 2.9961,-0.591797 z m 48.91406,0 a 7.9823674,7.9823674 0 0 1 0.38672,0.0293 c -0.10011,-0.0037 -0.19389,-0.0293 -0.29492,-0.0293 z m 21.08203,0 c -1.06853,0.001 -2.08176,0.217853 -3.01172,0.595703 a 7.9823674,7.9823674 0 0 1 3.01172,-0.595703 z m 48.91992,0 a 7.9823674,7.9823674 0 0 1 0.36133,0.02734 c -0.09354,-0.0032 -0.18104,-0.02734 -0.27539,-0.02734 z m -138.59961,0.130859 a 7.9823674,7.9823674 0 0 1 0.89453,0.212891 c -0.2939,-0.08418 -0.5876,-0.16237 -0.89453,-0.212891 z m 69.99805,0 a 7.9823674,7.9823674 0 0 1 0.92578,0.222657 c -0.30421,-0.08837 -0.60754,-0.17043 -0.92578,-0.222657 z m 70.00586,0.002 a 7.9823674,7.9823674 0 0 1 0.9043,0.216796 c -0.29712,-0.08578 -0.59382,-0.165454 -0.9043,-0.216796 z m -68.83008,0.296875 a 7.9823674,7.9823674 0 0 1 5.42188,7.568359 V 48.005088 H -175.0031 V 58.98751 c 0,4.432704 3.56924,8.001953 8.00195,8.001953 h 48.99805 c 4.4327,0 8.00195,-3.569249 8.00195,-8.001953 V 24.991416 c 0,-3.558755 -2.31675,-6.526965 -5.51758,-7.572265 z m 70.00781,0.0039 a 7.9823674,7.9823674 0 0 1 5.41407,7.564453 v 23.017578 h -64.90821 V 58.98751 c 0,4.432704 3.5673,8.001953 8,8.001953 h 48.99805 c 4.43271,0 8.00195,-3.569249 8.00195,-8.001953 V 24.991416 c 0,-3.554787 -2.3106,-6.519868 -5.50586,-7.568359 z m -139.98632,0.0039 a 7.9823674,7.9823674 0 0 1 5.40429,7.560547 V 48.005088 H -245.0031 V 58.98751 c 0,4.432704 3.56925,8.001953 8.00195,8.001953 h 48.99609 c 4.43271,0 8.00196,-3.569249 8.00196,-8.001953 V 24.991416 c 0,-3.550439 -2.305,-6.512481 -5.49414,-7.564453 z m 85.41211,0.177735 c -0.97283,0.404295 -1.84956,0.990173 -2.58204,1.722656 a 7.9823674,7.9823674 0 0 1 2.58204,-1.722656 z m -2.58204,1.722656 c -0.73205,0.732054 -1.31838,1.607936 -1.72265,2.580078 a 7.9823674,7.9823674 0 0 1 1.72265,-2.580078 z m -137.42187,-1.720703 c -0.96188,0.400612 -1.82766,0.981123 -2.55469,1.703125 a 7.9823674,7.9823674 0 0 1 2.55469,-1.703125 z m 70,0 c -0.95881,0.399335 -1.81933,0.978451 -2.54492,1.697265 a 7.9823674,7.9823674 0 0 1 2.54492,-1.697265 z m -72.59375,1.742187 c -0.72059,0.725604 -1.30064,1.589215 -1.70117,2.548828 a 7.9823674,7.9823674 0 0 1 1.70117,-2.548828 z m 69.99219,0.01172 c -0.71564,0.723366 -1.29482,1.582258 -1.69336,2.537109 a 7.9823674,7.9823674 0 0 1 1.69336,-2.537109 z m 68.27734,2.623047 c -0.3745,0.926424 -0.59077,1.936482 -0.5918,3 a 7.9823674,7.9823674 0 0 1 0.5918,-3 z m -140.00391,0.02148 c -0.36437,0.908626 -0.57572,1.897154 -0.58203,2.9375 a 7.9823674,7.9823674 0 0 1 0.58203,-2.9375 z m 70,0 c -0.36437,0.908626 -0.57572,1.897154 -0.58203,2.9375 a 7.9823674,7.9823674 0 0 1 0.58203,-2.9375 z m -13.67773,49.984375 a 7.9823674,7.9823674 0 0 1 0.37891,0.0293 c -0.0982,-0.0035 -0.19002,-0.0293 -0.28907,-0.0293 z m 70,0 a 7.9823674,7.9823674 0 0 1 0.38672,0.0293 c -0.10011,-0.0037 -0.19389,-0.0293 -0.29492,-0.0293 z m -118.95508,0.0039 c -1.03319,0.0063 -2.01446,0.216523 -2.91797,0.576172 a 7.9823674,7.9823674 0 0 1 2.91797,-0.576172 z m 70,0 c -1.0345,0.0063 -2.01743,0.215661 -2.92187,0.576172 a 7.9823674,7.9823674 0 0 1 2.92187,-0.576172 z m -19.64258,0.126953 a 7.9823674,7.9823674 0 0 1 0.89453,0.212891 c -0.2939,-0.08418 -0.5876,-0.162371 -0.89453,-0.212891 z m 70,0 a 7.9823674,7.9823674 0 0 1 0.90039,0.214844 c -0.29605,-0.085 -0.59111,-0.164013 -0.90039,-0.214844 z m 1.18946,0.304688 a 7.9823674,7.9823674 0 0 1 5.40625,7.5625 v 23.01562 h -64.90625 v 10.98438 c 0,4.43267 3.56924,8.00195 8.00195,8.00195 h 48.99805 c 4.4327,0 8.00195,-3.56928 8.00195,-8.00195 V 79.991416 c 0,-3.552913 -2.30937,-6.516397 -5.50195,-7.566406 z m -69.99414,0.002 a 7.9823674,7.9823674 0 0 1 5.40429,7.560547 v 23.01562 h -64.91015 v 10.98438 c 0,4.43267 3.56925,8.00195 8.00195,8.00195 h 48.99609 c 4.43271,0 8.00196,-3.56928 8.00196,-8.00195 V 79.991416 c 0,-3.550469 -2.305,-6.512489 -5.49414,-7.564453 z m -54.60743,0.183594 c -0.94778,0.396972 -1.80009,0.971844 -2.51953,1.681641 a 7.9823674,7.9823674 0 0 1 2.51953,-1.681641 z m 70.00391,0 c -0.94607,0.395739 -1.79483,0.968313 -2.51367,1.675781 a 7.9823674,7.9823674 0 0 1 2.51367,-1.675781 z m -72.59961,1.757812 c -0.7098,0.719441 -1.28467,1.571748 -1.68164,2.519532 a 7.9823674,7.9823674 0 0 1 1.68164,-2.519532 z m 69.99219,0.01172 c -0.70629,0.718605 -1.28071,1.56839 -1.67578,2.513672 a 7.9823674,7.9823674 0 0 1 1.67578,-2.513672 z m -1.71094,2.626953 c -0.3638,0.908015 -0.57377,1.896051 -0.58008,2.935547 a 7.9823674,7.9823674 0 0 1 0.58008,-2.935547 z m -70.00391,0.01758 c -0.35965,0.903508 -0.5699,1.884781 -0.57617,2.917969 a 7.9823674,7.9823674 0 0 1 0.57617,-2.917969 z" />
  <path
     fill="#99c1f1"
     style="fill:#d1e3f9;fill-opacity:1;stroke-width:0.999999"
     d="M -165.00191,110 H -135 v 3.99874 h -30.00191 z"
     id="path30" />
  <path
     id="path7"
     style="fill:#ffffff;fill-opacity:0.549391;stroke-width:0.999999"
     d="m -166.90954,71.985486 a 7.9823674,7.9823674 0 0 0 -8.00126,8.001265 v 23.017339 h 64.90965 V 79.986751 a 7.9823674,7.9823674 0 0 0 -7.99749,-7.997485 z m -70.00067,0 a 7.9823674,7.9823674 0 0 0 -8.00127,8.001265 v 23.017339 h 64.91343 V 79.986751 a 7.9823674,7.9823674 0 0 0 -8.00126,-7.997485 z M -96.91264,16.989545 a 7.9823674,7.9823674 0 0 0 -7.99749,7.997486 v 23.017338 h 64.90965 V 24.987031 a 7.9823674,7.9823674 0 0 0 -7.99748,-7.997486 z m -69.9969,0 a 7.9823674,7.9823674 0 0 0 -8.00126,7.997486 v 23.017338 h 64.90965 V 24.987031 a 7.9823674,7.9823674 0 0 0 -7.99749,-7.997486 z m -70.00067,0 a 7.9823674,7.9823674 0 0 0 -8.00127,7.997486 v 23.017338 h 64.91343 V 24.987031 a 7.9823674,7.9823674 0 0 0 -8.00126,-7.997486 z" />
  <g
     id="g14"
     clip-path="url(#clipPath14)">
    <path
       id="rect13"
       style="fill:#ffffff;fill-opacity:0.549391;stroke-linecap:round;stroke-opacity:0.158818;paint-order:markers stroke fill"
       d="m 95,75 h 40 c 5.54,0 10,4.46 10,10 v 30 c 0,5.54 -4.46,10 -10,10 H 95 c -5.54,0 -10,-4.46 -10,-10 V 85 c 0,-5.54 4.46,-10 10,-10 z m -70,0 h 40 c 5.54,0 10,4.46 10,10 v 30 c 0,5.54 -4.46,10 -10,10 H 25 c -5.54,0 -10,-4.46 -10,-10 V 85 C 15,79.46 19.46,75 25,75 Z M 165,15 h 40.00624 c 5.54,0 10,4.46 10,10 v 30 c 0,5.54 -4.46,10 -10,10 H 165 c -5.54,0 -10,-4.46 -10,-10 V 25 c 0,-5.54 4.46,-10 10,-10 z m -70,0 h 40 c 5.54,0 10,4.46 10,10 v 30 c 0,5.54 -4.46,10 -10,10 H 95 C 89.46,65 85,60.54 85,55 V 25 c 0,-5.54 4.46,-10 10,-10 z m -70,0 h 40 c 5.54,0 10,4.46 10,10 v 30 c 0,5.54 -4.46,10 -10,10 H 25 C 19.46,65 15,60.54 15,55 V 25 c 0,-5.54 4.46,-10 10,-10 z"
       clip-path="none"
       sodipodi:nodetypes="sssssssssssssssssssssssssssssssssssssssssssss" />
    <rect
       style="fill:#ffffff;fill-opacity:1;stroke-linecap:round;stroke-opacity:0.158818;-inkscape-stroke:none;paint-order:markers stroke fill"
       id="rect14"
       width="210"
       height="20"
       x="10"
       y="50"
       rx="0"
       ry="0" />
    <rect
       style="fill:#ffffff;fill-opacity:1;stroke-width:0.999996;stroke-linecap:round;stroke-opacity:0.158818;-inkscape-stroke:none;paint-order:markers stroke fill"
       id="rect15"
       width="140"
       height="20"
       x="10"
       y="110"
       rx="0"
       ry="0" />
    <rect
       style="fill:#77767b;fill-opacity:1;stroke-linecap:round;stroke-opacity:0.158818;-inkscape-stroke:none;paint-order:markers stroke fill"
       id="rect16"
       width="30"
       height="5"
       x="20"
       y="55"
       rx="2.5"
       ry="2.5" />
    <rect
       style="fill:#77767b;fill-opacity:1;stroke-linecap:round;stroke-opacity:0.158818;-inkscape-stroke:none;paint-order:markers stroke fill"
       id="rect17"
       width="30"
       height="5"
       x="90"
       y="55"
       rx="2.5"
       ry="2.5" />
    <rect
       style="fill:#77767b;fill-opacity:1;stroke-linecap:round;stroke-opacity:0.158818;-inkscape-stroke:none;paint-order:markers stroke fill"
       id="rect18"
       width="30"
       height="5"
       x="160"
       y="55"
       rx="2.5"
       ry="2.5" />
    <rect
       style="fill:#77767b;fill-opacity:1;stroke-linecap:round;stroke-opacity:0.158818;-inkscape-stroke:none;paint-order:markers stroke fill"
       id="rect19"
       width="30"
       height="5"
       x="20"
       y="115"
       rx="2.5"
       ry="2.5" />
    <rect
       style="fill:#77767b;fill-opacity:1;stroke-linecap:round;stroke-opacity:0.158818;-inkscape-stroke:none;paint-order:markers stroke fill"
       id="rect20"
       width="30"
       height="5"
       x="90"
       y="115"
       rx="2.5"
       ry="2.5" />
  </g>
</svg>
