<?xml version="1.0" encoding="UTF-8" standalone="no"?>
<svg
   height="140"
   width="230"
   version="1.1"
   id="svg36"
   sodipodi:docname="containers-gridviews-dark.svg"
   inkscape:version="1.3.2 (091e20ef0f, 2023-11-25)"
   xmlns:inkscape="http://www.inkscape.org/namespaces/inkscape"
   xmlns:sodipodi="http://sodipodi.sourceforge.net/DTD/sodipodi-0.dtd"
   xmlns:xlink="http://www.w3.org/1999/xlink"
   xmlns="http://www.w3.org/2000/svg"
   xmlns:svg="http://www.w3.org/2000/svg">
  <defs
     id="defs40">
    <linearGradient
       id="linearGradient20"
       inkscape:collect="always">
      <stop
         style="stop-color:#3584e4;stop-opacity:1"
         offset="0"
         id="stop20" />
      <stop
         style="stop-color:#26a269;stop-opacity:1"
         offset="1"
         id="stop21" />
    </linearGradient>
    <clipPath
       clipPathUnits="userSpaceOnUse"
       id="clipPath14">
      <path
         id="path14"
         style="fill:#ed333b;fill-opacity:0.549391;stroke-linecap:round;stroke-opacity:0.158818;paint-order:markers stroke fill"
         d="m 165,75 h 40.00624 c 5.54,0 10,4.46 10,10 v 30 c 0,5.54 -4.46,10 -10,10 H 165 c -5.54,0 -10,-4.46 -10,-10 V 85 c 0,-5.54 4.46,-10 10,-10 z m -70,0 h 40 c 5.54,0 10,4.46 10,10 v 30 c 0,5.54 -4.46,10 -10,10 H 95 c -5.54,0 -10,-4.46 -10,-10 V 85 c 0,-5.54 4.46,-10 10,-10 z m -70,0 h 40 c 5.54,0 10,4.46 10,10 v 30 c 0,5.54 -4.46,10 -10,10 H 25 c -5.54,0 -10,-4.46 -10,-10 V 85 C 15,79.46 19.46,75 25,75 Z M 165,15 h 40.00624 c 5.54,0 10,4.46 10,10 v 30 c 0,5.54 -4.46,10 -10,10 H 165 c -5.54,0 -10,-4.46 -10,-10 V 25 c 0,-5.54 4.46,-10 10,-10 z m -70,0 h 40 c 5.54,0 10,4.46 10,10 v 30 c 0,5.54 -4.46,10 -10,10 H 95 C 89.46,65 85,60.54 85,55 V 25 c 0,-5.54 4.46,-10 10,-10 z m -70,0 h 40 c 5.54,0 10,4.46 10,10 v 30 c 0,5.54 -4.46,10 -10,10 H 25 C 19.46,65 15,60.54 15,55 V 25 c 0,-5.54 4.46,-10 10,-10 z" />
    </clipPath>
    <linearGradient
       inkscape:collect="always"
       xlink:href="#linearGradient20"
       id="linearGradient21"
       x1="50"
       y1="20"
       x2="220"
       y2="125"
       gradientUnits="userSpaceOnUse" />
  </defs>
  <sodipodi:namedview
     id="namedview38"
     pagecolor="#505050"
     bordercolor="#ffffff"
     borderopacity="1"
     inkscape:showpageshadow="0"
     inkscape:pageopacity="0"
     inkscape:pagecheckerboard="1"
     inkscape:deskcolor="#505050"
     showgrid="true"
     inkscape:current-layer="svg36"
     inkscape:zoom="2.0478261"
     inkscape:cx="136.24204"
     inkscape:cy="4.8832271"
     inkscape:window-width="1920"
     inkscape:window-height="1011"
     inkscape:window-x="0"
     inkscape:window-y="0"
     inkscape:window-maximized="1">
    <inkscape:grid
       id="grid1"
       units="px"
       originx="0"
       originy="0"
       spacingx="1"
       spacingy="1"
       empcolor="#3f3fff"
       empopacity="0.25098039"
       color="#3f3fff"
       opacity="0.1254902"
       empspacing="5"
       dotted="false"
       gridanglex="30"
       gridanglez="30"
       visible="true" />
  </sodipodi:namedview>
  <rect
     style="fill:url(#linearGradient21);fill-opacity:1;stroke:none;stroke-width:18;stroke-linecap:round;stroke-dashoffset:26.4"
     width="230"
     height="140"
     x="0.001"
     ry="19.6147"
     rx="19.6147"
     id="rect2"
     y="0" />
  <g
     id="g14"
     clip-path="url(#clipPath14)">
    <path
       id="rect13"
       style="fill:#000000;fill-opacity:0.28659627;stroke-linecap:round;stroke-opacity:0.158818;paint-order:markers stroke fill"
       d="m 95,75 h 40 c 5.54,0 10,4.46 10,10 v 30 c 0,5.54 -4.46,10 -10,10 H 95 c -5.54,0 -10,-4.46 -10,-10 V 85 c 0,-5.54 4.46,-10 10,-10 z m -70,0 h 40 c 5.54,0 10,4.46 10,10 v 30 c 0,5.54 -4.46,10 -10,10 H 25 c -5.54,0 -10,-4.46 -10,-10 V 85 C 15,79.46 19.46,75 25,75 Z M 165,15 h 40.00624 c 5.54,0 10,4.46 10,10 v 30 c 0,5.54 -4.46,10 -10,10 H 165 c -5.54,0 -10,-4.46 -10,-10 V 25 c 0,-5.54 4.46,-10 10,-10 z m -70,0 h 40 c 5.54,0 10,4.46 10,10 v 30 c 0,5.54 -4.46,10 -10,10 H 95 C 89.46,65 85,60.54 85,55 V 25 c 0,-5.54 4.46,-10 10,-10 z m -70,0 h 40 c 5.54,0 10,4.46 10,10 v 30 c 0,5.54 -4.46,10 -10,10 H 25 C 19.46,65 15,60.54 15,55 V 25 c 0,-5.54 4.46,-10 10,-10 z"
       clip-path="none"
       sodipodi:nodetypes="sssssssssssssssssssssssssssssssssssssssssssss" />
    <rect
       style="fill:#241f31;fill-opacity:1;stroke-linecap:round;stroke-opacity:0.158818;-inkscape-stroke:none;paint-order:markers stroke fill"
       id="rect14"
       width="210"
       height="20"
       x="10"
       y="50"
       rx="0"
       ry="0" />
    <rect
       style="fill:#241f31;fill-opacity:1;stroke-width:0.999996;stroke-linecap:round;stroke-opacity:0.158818;-inkscape-stroke:none;paint-order:markers stroke fill"
       id="rect15"
       width="140"
       height="20"
       x="10"
       y="110"
       rx="0"
       ry="0" />
    <rect
       style="fill:#5e5c64;fill-opacity:1;stroke-linecap:round;stroke-opacity:0.158818;-inkscape-stroke:none;paint-order:markers stroke fill"
       id="rect16"
       width="30"
       height="5"
       x="20"
       y="55"
       rx="2.5"
       ry="2.5" />
    <rect
       style="fill:#5e5c64;fill-opacity:1;stroke-linecap:round;stroke-opacity:0.158818;-inkscape-stroke:none;paint-order:markers stroke fill"
       id="rect17"
       width="30"
       height="5"
       x="90"
       y="55"
       rx="2.5"
       ry="2.5" />
    <rect
       style="fill:#5e5c64;fill-opacity:1;stroke-linecap:round;stroke-opacity:0.158818;-inkscape-stroke:none;paint-order:markers stroke fill"
       id="rect18"
       width="30"
       height="5"
       x="160"
       y="55"
       rx="2.5"
       ry="2.5" />
    <rect
       style="fill:#5e5c64;fill-opacity:1;stroke-linecap:round;stroke-opacity:0.158818;-inkscape-stroke:none;paint-order:markers stroke fill"
       id="rect19"
       width="30"
       height="5"
       x="20"
       y="115"
       rx="2.5"
       ry="2.5" />
    <rect
       style="fill:#5e5c64;fill-opacity:1;stroke-linecap:round;stroke-opacity:0.158818;-inkscape-stroke:none;paint-order:markers stroke fill"
       id="rect20"
       width="30"
       height="5"
       x="90"
       y="115"
       rx="2.5"
       ry="2.5" />
  </g>
</svg>
