<?xml version="1.0" encoding="UTF-8" standalone="no"?>
<svg
   height="140"
   width="230"
   version="1.1"
   id="svg36"
   sodipodi:docname="containers-selectionmode.svg"
   inkscape:version="1.3.2 (091e20ef0f, 2023-11-25)"
   xmlns:inkscape="http://www.inkscape.org/namespaces/inkscape"
   xmlns:sodipodi="http://sodipodi.sourceforge.net/DTD/sodipodi-0.dtd"
   xmlns:xlink="http://www.w3.org/1999/xlink"
   xmlns="http://www.w3.org/2000/svg"
   xmlns:svg="http://www.w3.org/2000/svg">
  <defs
     id="defs40">
    <linearGradient
       id="linearGradient1"
       inkscape:collect="always">
      <stop
         style="stop-color:#f66151;stop-opacity:1"
         offset="0"
         id="stop1" />
      <stop
         style="stop-color:#dc8add;stop-opacity:1"
         offset="1"
         id="stop2" />
    </linearGradient>
    <clipPath
       clipPathUnits="userSpaceOnUse"
       id="clipPath14">
      <path
         id="path14"
         style="fill:#ed333b;fill-opacity:0.549391;stroke-linecap:round;stroke-opacity:0.158818;paint-order:markers stroke fill"
         d="m 165,75 h 40.00624 c 5.54,0 10,4.46 10,10 v 30 c 0,5.54 -4.46,10 -10,10 H 165 c -5.54,0 -10,-4.46 -10,-10 V 85 c 0,-5.54 4.46,-10 10,-10 z m -70,0 h 40 c 5.54,0 10,4.46 10,10 v 30 c 0,5.54 -4.46,10 -10,10 H 95 c -5.54,0 -10,-4.46 -10,-10 V 85 c 0,-5.54 4.46,-10 10,-10 z m -70,0 h 40 c 5.54,0 10,4.46 10,10 v 30 c 0,5.54 -4.46,10 -10,10 H 25 c -5.54,0 -10,-4.46 -10,-10 V 85 C 15,79.46 19.46,75 25,75 Z M 165,15 h 40.00624 c 5.54,0 10,4.46 10,10 v 30 c 0,5.54 -4.46,10 -10,10 H 165 c -5.54,0 -10,-4.46 -10,-10 V 25 c 0,-5.54 4.46,-10 10,-10 z m -70,0 h 40 c 5.54,0 10,4.46 10,10 v 30 c 0,5.54 -4.46,10 -10,10 H 95 C 89.46,65 85,60.54 85,55 V 25 c 0,-5.54 4.46,-10 10,-10 z m -70,0 h 40 c 5.54,0 10,4.46 10,10 v 30 c 0,5.54 -4.46,10 -10,10 H 25 C 19.46,65 15,60.54 15,55 V 25 c 0,-5.54 4.46,-10 10,-10 z" />
    </clipPath>
    <linearGradient
       inkscape:collect="always"
       xlink:href="#linearGradient1"
       id="linearGradient2"
       x1="25"
       y1="35"
       x2="205"
       y2="110"
       gradientUnits="userSpaceOnUse" />
  </defs>
  <sodipodi:namedview
     id="namedview38"
     pagecolor="#ffffff"
     bordercolor="#666666"
     borderopacity="1.0"
     inkscape:pageshadow="2"
     inkscape:pageopacity="0.0"
     inkscape:pagecheckerboard="0"
     showgrid="false"
     inkscape:snap-global="false"
     inkscape:zoom="2"
     inkscape:cx="123.5"
     inkscape:cy="36"
     inkscape:window-width="1920"
     inkscape:window-height="1011"
     inkscape:window-x="0"
     inkscape:window-y="0"
     inkscape:window-maximized="1"
     inkscape:current-layer="g14"
     inkscape:showpageshadow="0"
     inkscape:deskcolor="#d1d1d1">
    <inkscape:grid
       type="xygrid"
       id="grid7911"
       originx="0"
       originy="0"
       spacingy="1"
       spacingx="1"
       units="px"
       visible="false" />
  </sodipodi:namedview>
  <rect
     style="fill:url(#linearGradient2);fill-opacity:1;stroke:none;stroke-width:18;stroke-linecap:round;stroke-dashoffset:26.4"
     width="230"
     height="140"
     x="0.001"
     ry="20"
     rx="20"
     id="rect2"
     y="0" />
  <g
     id="g14"
     clip-path="url(#clipPath14)">
    <path
       id="rect13"
       style="fill:#ffffff;fill-opacity:0.549391;stroke-linecap:round;stroke-opacity:0.158818;paint-order:markers stroke fill"
       d="m 95,75 h 40 c 5.54,0 10,4.46 10,10 v 30 c 0,5.54 -4.46,10 -10,10 H 95 c -5.54,0 -10,-4.46 -10,-10 V 85 c 0,-5.54 4.46,-10 10,-10 z m -70,0 h 40 c 5.54,0 10,4.46 10,10 v 30 c 0,5.54 -4.46,10 -10,10 H 25 c -5.54,0 -10,-4.46 -10,-10 V 85 C 15,79.46 19.46,75 25,75 Z M 165,15 h 40.00624 c 5.54,0 10,4.46 10,10 v 30 c 0,5.54 -4.46,10 -10,10 H 165 c -5.54,0 -10,-4.46 -10,-10 V 25 c 0,-5.54 4.46,-10 10,-10 z m -70,0 h 40 c 5.54,0 10,4.46 10,10 v 30 c 0,5.54 -4.46,10 -10,10 H 95 C 89.46,65 85,60.54 85,55 V 25 c 0,-5.54 4.46,-10 10,-10 z m -70,0 h 40 c 5.54,0 10,4.46 10,10 v 30 c 0,5.54 -4.46,10 -10,10 H 25 C 19.46,65 15,60.54 15,55 V 25 c 0,-5.54 4.46,-10 10,-10 z"
       clip-path="none"
       sodipodi:nodetypes="sssssssssssssssssssssssssssssssssssssssssssss" />
    <circle
       style="fill:#ffffff;fill-opacity:1;stroke:#e6e6e6;stroke-width:0;stroke-linecap:round;stroke-miterlimit:4;stroke-dasharray:none"
       id="circle10550-5"
       cx="60.15387"
       cy="50"
       r="9.8461294" />
    <path
       style="color:#000000;display:inline;fill:#241f31;fill-opacity:1;stroke-width:1;stroke-linecap:round;-inkscape-stroke:none"
       d="m 65.190355,46.530551 a 1.0423023,1.0423023 0 0 0 -1.472564,0.07671 l -4.736222,5.257373 -2.402299,-2.425646 a 1.0424404,1.0424404 0 0 0 -1.472564,1.4759 l 3.954912,3.975758 6.205451,-6.889202 a 1.0423023,1.0423023 0 0 0 -0.07671,-1.470897 z"
       id="path10552-6" />
    <circle
       style="fill:#ffffff;fill-opacity:1;stroke:#e6e6e6;stroke-width:0;stroke-linecap:round;stroke-miterlimit:4;stroke-dasharray:none"
       id="circle2"
       cx="130.15387"
       cy="50"
       r="9.8461294" />
    <path
       style="color:#000000;display:inline;fill:#241f31;fill-opacity:1;stroke-width:1;stroke-linecap:round;-inkscape-stroke:none"
       d="m 135.19036,46.530551 a 1.0423023,1.0423023 0 0 0 -1.47257,0.07671 l -4.73622,5.257373 -2.4023,-2.425646 a 1.0424404,1.0424404 0 0 0 -1.47256,1.4759 l 3.95491,3.975758 6.20545,-6.889202 a 1.0423023,1.0423023 0 0 0 -0.0767,-1.470897 z"
       id="path2" />
    <circle
       style="fill:#ffffff;fill-opacity:1;stroke:#e6e6e6;stroke-width:0;stroke-linecap:round;stroke-miterlimit:4;stroke-dasharray:none"
       id="circle3"
       cx="199.8868"
       cy="50"
       r="9.8461294" />
    <path
       style="color:#000000;display:inline;fill:#241f31;fill-opacity:1;stroke-width:1;stroke-linecap:round;-inkscape-stroke:none"
       d="m 204.92329,46.530551 a 1.0423023,1.0423023 0 0 0 -1.47257,0.07671 l -4.73622,5.257373 -2.4023,-2.425646 a 1.0424404,1.0424404 0 0 0 -1.47256,1.4759 l 3.95491,3.975758 L 205,48.001444 a 1.0423023,1.0423023 0 0 0 -0.0767,-1.470897 z"
       id="path3" />
    <circle
       style="fill:#ffffff;fill-opacity:1;stroke:#e6e6e6;stroke-width:0;stroke-linecap:round;stroke-miterlimit:4;stroke-dasharray:none"
       id="circle4"
       cx="60.15387"
       cy="110.10935"
       r="9.8461294" />
    <path
       style="color:#000000;display:inline;fill:#241f31;fill-opacity:1;stroke-width:1;stroke-linecap:round;-inkscape-stroke:none"
       d="m 65.190355,106.63991 a 1.0423023,1.0423023 0 0 0 -1.472564,0.0767 l -4.736222,5.25738 -2.402299,-2.42565 a 1.0424404,1.0424404 0 0 0 -1.472564,1.4759 L 59.061618,115 l 6.205451,-6.8892 a 1.0423023,1.0423023 0 0 0 -0.07671,-1.4709 z"
       id="path4" />
    <circle
       style="fill:#ffffff;fill-opacity:1;stroke:#e6e6e6;stroke-width:0;stroke-linecap:round;stroke-miterlimit:4;stroke-dasharray:none"
       id="circle5"
       cx="130.15387"
       cy="110.10935"
       r="9.8461294" />
    <path
       style="color:#000000;display:inline;fill:#241f31;fill-opacity:1;stroke-width:1;stroke-linecap:round;-inkscape-stroke:none"
       d="m 135.19036,106.63991 a 1.0423023,1.0423023 0 0 0 -1.47257,0.0767 l -4.73622,5.25738 -2.4023,-2.42565 a 1.0424404,1.0424404 0 0 0 -1.47256,1.4759 l 3.95491,3.97576 6.20545,-6.8892 a 1.0423023,1.0423023 0 0 0 -0.0767,-1.4709 z"
       id="path5" />
  </g>
</svg>
