<?xml version="1.0" encoding="UTF-8" standalone="no"?>
<svg
   height="140"
   width="230"
   version="1.1"
   id="svg13519"
   sodipodi:docname="feedback-tooltips-dark.svg"
   inkscape:version="1.3.2 (091e20ef0f, 2023-11-25)"
   xml:space="preserve"
   xmlns:inkscape="http://www.inkscape.org/namespaces/inkscape"
   xmlns:sodipodi="http://sodipodi.sourceforge.net/DTD/sodipodi-0.dtd"
   xmlns:xlink="http://www.w3.org/1999/xlink"
   xmlns="http://www.w3.org/2000/svg"
   xmlns:svg="http://www.w3.org/2000/svg"><defs
     id="defs13523"><linearGradient
       inkscape:collect="always"
       xlink:href="#linearGradient10"
       id="linearGradient4"
       x1="0"
       y1="65"
       x2="230"
       y2="65"
       gradientUnits="userSpaceOnUse" /><linearGradient
       id="linearGradient10"
       inkscape:collect="always"><stop
         style="stop-color:#2ec27e;stop-opacity:1"
         offset="0"
         id="stop9-7" /><stop
         style="stop-color:#1c71d8;stop-opacity:1"
         offset="1"
         id="stop8-0" /></linearGradient></defs><sodipodi:namedview
     id="namedview13521"
     pagecolor="#505050"
     bordercolor="#ffffff"
     borderopacity="1"
     inkscape:showpageshadow="0"
     inkscape:pageopacity="0"
     inkscape:pagecheckerboard="1"
     inkscape:deskcolor="#505050"
     showgrid="false"
     inkscape:current-layer="svg13519"
     inkscape:zoom="2"
     inkscape:cx="39"
     inkscape:cy="55"
     inkscape:window-width="1920"
     inkscape:window-height="1011"
     inkscape:window-x="0"
     inkscape:window-y="0"
     inkscape:window-maximized="1"><inkscape:grid
       id="grid1"
       units="px"
       originx="0"
       originy="0"
       spacingx="1"
       spacingy="1"
       empcolor="#3f3fff"
       empopacity="0.25098039"
       color="#3f3fff"
       opacity="0.1254902"
       empspacing="5"
       dotted="false"
       gridanglex="30"
       gridanglez="30"
       visible="false" /></sodipodi:namedview><rect
     style="font-variation-settings:normal;opacity:1;vector-effect:none;fill:url(#linearGradient4);fill-opacity:1;stroke:none;stroke-width:18;stroke-linecap:round;stroke-linejoin:miter;stroke-miterlimit:4;stroke-dasharray:none;stroke-dashoffset:26.4;stroke-opacity:1;-inkscape-stroke:none;stop-color:#000000;stop-opacity:1"
     width="230"
     height="140"
     x="0.001"
     ry="20"
     rx="20"
     id="rect13507"
     y="0" /><rect
     style="opacity:0.2;fill:#ffffff;fill-opacity:1;stroke:none;stroke-width:4.00001;stroke-linecap:round;stroke-dashoffset:26.4;stroke-opacity:1"
     width="50"
     height="50.000004"
     x="96"
     y="22.5"
     ry="10.000001"
     rx="10"
     id="rect28" /><g
     id="g28"
     transform="translate(-1.501389,-6)"><rect
       style="opacity:0.5;fill:#000000;fill-opacity:1;stroke:none;stroke-width:18;stroke-linecap:round;stroke-dashoffset:26.4"
       width="145.00278"
       height="37.997425"
       x="50"
       y="90"
       id="rect13513"
       rx="12"
       ry="12" /><rect
       style="opacity:0.8;fill:#f6f5f4;fill-opacity:1;stroke:none;stroke-width:4;stroke-linecap:round;stroke-linejoin:round;stroke-dasharray:none;stroke-dashoffset:26.4;paint-order:markers stroke fill"
       id="rect3"
       width="105"
       height="8"
       x="70"
       y="105"
       ry="4"
       rx="4" /></g><rect
     style="opacity:0.2;fill:#ffffff;fill-opacity:1;stroke:none;stroke-width:4.00001;stroke-linecap:round;stroke-dashoffset:26.4;stroke-opacity:1"
     width="50"
     height="50.000004"
     x="36"
     y="22.5"
     ry="10.000001"
     rx="10"
     id="rect20" /><path
     d="m 128.00202,49.247923 v 30.151608 l 6.80907,-6.646676 3.88975,7.945964 c 0.95417,2.147869 5.90771,0.418198 4.49878,-2.45241 L 139.35049,70 h 8.59153 z"
     style="color:#000000;display:block;overflow:visible;visibility:visible;fill:#ffffff;fill-opacity:1;fill-rule:nonzero;stroke:none;stroke-width:0.499995;stroke-linecap:butt;stroke-linejoin:miter;stroke-miterlimit:10;stroke-dasharray:none;stroke-dashoffset:0;stroke-opacity:1;marker:none;enable-background:accumulate"
     id="path20" /><path
     d="m 120.457,32.024495 c 2.17958,0.10545 4.30058,1.00776 5.90596,2.61315 2.56627,2.566275 3.33967,6.456705 1.95694,9.80811 -0.99604,2.39049 -2.9647,4.17165 -5.32005,5.01537 V 53 h -5.9997 v -5.9997 c 0,-1.65225 1.34759,-2.99985 2.99985,-2.99985 1.21869,0 2.30847,-0.726525 2.7772,-1.851465 0.45701,-1.12494 0.21092,-2.40222 -0.65622,-3.26937 -0.86713,-0.867135 -2.14443,-1.113225 -3.26937,-0.64449 -1.12493,0.457005 -1.85146,1.5468 -1.85146,2.765475 h -5.9997 c 0,-3.632625 2.20302,-6.925425 5.55441,-8.30817 1.25383,-0.52731 2.58972,-0.73824 3.90214,-0.667935 z M 120,55.99985 c 1.65225,0 2.99985,1.347585 2.99985,2.99985 0,1.652265 -1.3476,2.99985 -2.99985,2.99985 -1.65226,0 -2.99985,-1.347585 -2.99985,-2.99985 0,-1.652265 1.34759,-2.99985 2.99985,-2.99985 z m 0,0"
     id="path21"
     style="opacity:0.8;fill:#ffffff;fill-opacity:1;stroke-width:1" /></svg>
