<?xml version="1.0" encoding="UTF-8" standalone="no"?>
<svg
   height="140"
   width="230"
   version="1.1"
   id="svg7777"
   sodipodi:docname="feedback-banners.svg"
   inkscape:version="1.4.2 (ebf0e940d0, 2025-05-08)"
   xml:space="preserve"
   inkscape:export-filename="feedback-banne2rs.svg"
   inkscape:export-xdpi="96"
   inkscape:export-ydpi="96"
   xmlns:inkscape="http://www.inkscape.org/namespaces/inkscape"
   xmlns:sodipodi="http://sodipodi.sourceforge.net/DTD/sodipodi-0.dtd"
   xmlns:xlink="http://www.w3.org/1999/xlink"
   xmlns="http://www.w3.org/2000/svg"
   xmlns:svg="http://www.w3.org/2000/svg"><defs
     id="defs7781"><inkscape:path-effect
       effect="fillet_chamfer"
       id="path-effect1"
       is_visible="true"
       lpeversion="1"
       nodesatellites_param="F,0,1,1,0,4.001141,0,1 @ F,0,0,1,0,4.001141,0,1 @ F,0,1,1,0,4.001141,0,1 @ F,0,1,1,0,4.001141,0,1"
       radius="0"
       unit="px"
       method="auto"
       mode="F"
       chamfer_steps="1"
       flexible="false"
       use_knot_distance="true"
       apply_no_radius="true"
       apply_with_radius="true"
       only_selected="false"
       hide_knots="false" /><linearGradient
       id="linearGradient8"
       inkscape:collect="always"><stop
         style="stop-color:#ffbe6f;stop-opacity:1"
         offset="0"
         id="stop8" /><stop
         style="stop-color:#ff7800;stop-opacity:1"
         offset="1"
         id="stop9" /></linearGradient><linearGradient
       inkscape:collect="always"
       xlink:href="#linearGradient1"
       id="linearGradient2"
       x1="14.374047"
       y1="30.082031"
       x2="218.93069"
       y2="76.521484"
       gradientUnits="userSpaceOnUse"
       gradientTransform="translate(-0.001)" /><linearGradient
       id="linearGradient1"
       inkscape:collect="always"><stop
         style="stop-color:#ffa348;stop-opacity:1"
         offset="0"
         id="stop1" /><stop
         style="stop-color:#f9f06b;stop-opacity:1"
         offset="1"
         id="stop2" /></linearGradient><clipPath
       clipPathUnits="userSpaceOnUse"
       id="clipPath1"><rect
         style="font-variation-settings:normal;vector-effect:none;fill:url(#linearGradient3);fill-opacity:1;stroke:none;stroke-width:18;stroke-linecap:round;stroke-linejoin:miter;stroke-miterlimit:4;stroke-dasharray:none;stroke-dashoffset:26.4;stroke-opacity:1;-inkscape-stroke:none;stop-color:#000000"
         width="230"
         height="140"
         x="0.001"
         ry="20"
         rx="20"
         id="rect1"
         y="-1" /></clipPath><linearGradient
       inkscape:collect="always"
       xlink:href="#linearGradient8"
       id="linearGradient3"
       gradientUnits="userSpaceOnUse"
       x1="5"
       y1="115"
       x2="260"
       y2="10"
       gradientTransform="translate(0,-1)" /></defs><sodipodi:namedview
     id="namedview7779"
     pagecolor="#505050"
     bordercolor="#ffffff"
     borderopacity="1"
     inkscape:showpageshadow="0"
     inkscape:pageopacity="0"
     inkscape:pagecheckerboard="1"
     inkscape:deskcolor="#505050"
     showgrid="true"
     inkscape:current-layer="svg7777"
     inkscape:zoom="3.2224873"
     inkscape:cx="155.15965"
     inkscape:cy="37.858955"
     inkscape:window-width="1536"
     inkscape:window-height="792"
     inkscape:window-x="0"
     inkscape:window-y="0"
     inkscape:window-maximized="1"><inkscape:grid
       type="xygrid"
       id="grid343"
       originx="0"
       originy="0"
       spacingy="1"
       spacingx="1"
       units="px"
       visible="true" /></sodipodi:namedview><rect
     style="fill:url(#linearGradient2);fill-opacity:1;stroke:none;stroke-width:18;stroke-linecap:round;stroke-dashoffset:26.4"
     width="230"
     height="140"
     x="0"
     ry="20"
     rx="20"
     id="rect880"
     y="0" /><path
     style="fill:#ffffff;fill-opacity:1;stroke:none;stroke-width:18;stroke-linecap:round;stroke-dashoffset:26.4"
     d="M2882 65c-6.648 0-12 5.352-12 12v113h199.98V77c0-6.648-5.351-12-12-12z"
     transform="translate(-2854.99 -50)"
     id="path7765" /><path
     d="m 194.00242,28.202722 h 1.28953 a 1.3226114,1.3226114 0 0 1 0.85971,0.39206 L 199,31.44312 l 2.89085,-2.848338 c 0.33065,-0.288141 0.55738,-0.382613 0.8597,-0.39206 h 1.25176 v 1.251756 c 0,0.354272 -0.0472,0.684926 -0.31648,0.935276 l -2.84835,2.853062 2.81056,2.81055 c 0.23617,0.236179 0.34955,0.566833 0.34955,0.897486 v 1.251756 h -1.24704 a 1.2753753,1.2753753 0 0 1 -0.89748,-0.354269 L 199,35 l -2.84834,2.848339 a 1.2706517,1.2706517 0 0 1 -0.89749,0.354269 h -1.25175 v -1.251756 c 0,-0.330653 0.11808,-0.661307 0.34954,-0.897486 l 2.85307,-2.81055 -2.84834,-2.853062 a 1.1336669,1.1336669 0 0 1 -0.35427,-0.935276 z"
     style="line-height:normal;-inkscape-font-specification:'Andale Mono';text-indent:0;text-align:start;text-decoration-line:none;text-transform:none;fill:#3d3846;fill-opacity:1;stroke:none;stroke-width:0.999996;marker:none;opacity:0.7"
     color="#bebebe"
     font-weight="400"
     font-family="'Andale Mono'"
     overflow="visible"
     fill="#2e3436"
     id="path7767" /><path
     style="fill:#deddda;fill-opacity:1;stroke:none;stroke-width:6.50589;stroke-linecap:round;stroke-dashoffset:26.4"
     d="M 15.009066,49.849305 H 214.99534 V 80 H 15.009066 Z"
     id="path7769"
     sodipodi:nodetypes="ccccc" /><path
     fill="#99c1f1"
     style="fill:#241f31;fill-opacity:1;stroke-width:0.800123;opacity:0.7"
     d="m 87.892143,60.999379 54.220117,0 a 4.001141,4.001141 45 0 1 4.00114,4.001141 4.000632,4.000632 135.00729 0 1 -4.00114,4.000123 H 87.892143 a 4.001141,4.001141 45 0 1 -4.001141,-4.001141 4.000632,4.000632 135.00729 0 1 4.001141,-4.000123 z"
     id="path7771"
     sodipodi:nodetypes="ccccc"
     inkscape:path-effect="#path-effect1"
     inkscape:original-d="M 83.891002,60.999379 H 146.1134 v 8.001264 H 83.891002 Z"
     transform="matrix(1.2498025,0,0,1.2498025,-24.847186,-16.387873)" /></svg>
