<?xml version="1.0" encoding="UTF-8" standalone="no"?>
<svg
   height="140"
   width="230"
   version="1.1"
   id="svg14361"
   sodipodi:docname="guidelines-accessibility.svg"
   inkscape:version="1.3.2 (091e20ef0f, 2023-11-25)"
   xmlns:inkscape="http://www.inkscape.org/namespaces/inkscape"
   xmlns:sodipodi="http://sodipodi.sourceforge.net/DTD/sodipodi-0.dtd"
   xmlns:xlink="http://www.w3.org/1999/xlink"
   xmlns="http://www.w3.org/2000/svg"
   xmlns:svg="http://www.w3.org/2000/svg">
  <defs
     id="defs14365">
    <linearGradient
       id="linearGradient1"
       inkscape:collect="always">
      <stop
         style="stop-color:#dc8add;stop-opacity:1"
         offset="0"
         id="stop3" />
      <stop
         style="stop-color:#f66151;stop-opacity:1"
         offset="1"
         id="stop2" />
    </linearGradient>
    <linearGradient
       inkscape:collect="always"
       xlink:href="#linearGradient1"
       id="linearGradient2"
       x1="20"
       y1="25"
       x2="220"
       y2="130"
       gradientUnits="userSpaceOnUse" />
  </defs>
  <sodipodi:namedview
     id="namedview14363"
     pagecolor="#505050"
     bordercolor="#ffffff"
     borderopacity="1"
     inkscape:showpageshadow="0"
     inkscape:pageopacity="0"
     inkscape:pagecheckerboard="1"
     inkscape:deskcolor="#505050"
     showgrid="false"
     inkscape:current-layer="svg14361"
     inkscape:zoom="2.1516249"
     inkscape:cx="71.573814"
     inkscape:cy="-14.872481"
     inkscape:window-width="1920"
     inkscape:window-height="1011"
     inkscape:window-x="0"
     inkscape:window-y="0"
     inkscape:window-maximized="1">
    <inkscape:grid
       id="grid1"
       units="px"
       originx="0"
       originy="0"
       spacingx="1"
       spacingy="1"
       empcolor="#3f3fff"
       empopacity="0.25098039"
       color="#3f3fff"
       opacity="0.1254902"
       empspacing="5"
       dotted="false"
       gridanglex="30"
       gridanglez="30"
       visible="false" />
  </sodipodi:namedview>
  <rect
     style="font-variation-settings:normal;opacity:1;vector-effect:none;fill:url(#linearGradient2);fill-opacity:1;stroke:none;stroke-width:18;stroke-linecap:round;stroke-linejoin:miter;stroke-miterlimit:4;stroke-dasharray:none;stroke-dashoffset:26.4;stroke-opacity:1;-inkscape-stroke:none;stop-color:#000000;stop-opacity:1"
     width="230"
     height="140"
     x="0.001"
     ry="20"
     rx="20"
     id="rect14343"
     y="0" />
  <path
     id="circle14345"
     style="fill:#ffffff;fill-opacity:1;stroke:none;stroke-width:2.6809;stroke-linecap:round;stroke-linejoin:round;stroke-dashoffset:26.4;stroke-opacity:1;opacity:1"
     d="M 115 35 A 34.999001 34.999001 0 0 0 80.001953 69.998047 A 34.999001 34.999001 0 0 0 115 104.99805 A 34.999001 34.999001 0 0 0 149.99805 69.998047 A 34.999001 34.999001 0 0 0 115 35 z M 115.5 49 A 6.2494364 6.2494364 0 0 1 121.74805 55.248047 A 6.2494364 6.2494364 0 0 1 115.5 61.498047 A 6.2494364 6.2494364 0 0 1 109.25 55.248047 A 6.2494364 6.2494364 0 0 1 115.5 49 z M 100.5 63.998047 L 130.5 63.998047 C 131.88508 63.998047 133 65.112965 133 66.498047 C 133 67.883128 131.88508 68.998047 130.5 68.998047 L 123 68.998047 L 123 73.998047 L 123 88.998047 C 123 90.383128 121.88508 91.498047 120.5 91.498047 C 119.11492 91.498047 118 90.383128 118 88.998047 L 118 79 L 113 79 L 113 88.998047 C 113 90.383128 111.88508 91.498047 110.5 91.498047 C 109.11492 91.498047 107.99805 90.383128 107.99805 88.998047 L 107.99805 79 L 107.99805 73.998047 L 107.99805 68.998047 L 100.5 68.998047 C 99.114918 68.998047 98 67.883128 98 66.498047 C 98 65.112965 99.114918 63.998047 100.5 63.998047 z " />
</svg>
