<?xml version="1.0" encoding="UTF-8" standalone="no"?>
<svg
   height="140"
   width="230"
   version="1.1"
   id="svg18"
   sodipodi:docname="guidelines-appnaming.svg"
   inkscape:version="1.3.2 (091e20ef0f, 2023-11-25)"
   xmlns:inkscape="http://www.inkscape.org/namespaces/inkscape"
   xmlns:sodipodi="http://sodipodi.sourceforge.net/DTD/sodipodi-0.dtd"
   xmlns:xlink="http://www.w3.org/1999/xlink"
   xmlns="http://www.w3.org/2000/svg"
   xmlns:svg="http://www.w3.org/2000/svg">
  <defs
     id="defs22">
    <linearGradient
       id="linearGradient1"
       inkscape:collect="always">
      <stop
         style="stop-color:#62a0ea;stop-opacity:1"
         offset="0"
         id="stop1" />
      <stop
         style="stop-color:#99c1f1;stop-opacity:1"
         offset="1"
         id="stop2" />
    </linearGradient>
    <inkscape:path-effect
       effect="fillet_chamfer"
       id="path-effect1"
       is_visible="true"
       lpeversion="1"
       nodesatellites_param="F,0,1,1,0,1.4556284,0,1 @ F,0,0,1,0,1.4556284,0,1 @ F,0,1,1,0,1.4556284,0,1 @ F,0,1,1,0,1.4556284,0,1"
       radius="0"
       unit="px"
       method="auto"
       mode="F"
       chamfer_steps="1"
       flexible="false"
       use_knot_distance="true"
       apply_no_radius="true"
       apply_with_radius="true"
       only_selected="false"
       hide_knots="false" />
    <linearGradient
       inkscape:collect="always"
       xlink:href="#linearGradient1"
       id="linearGradient2"
       x1="15"
       y1="35"
       x2="220"
       y2="105"
       gradientUnits="userSpaceOnUse" />
  </defs>
  <sodipodi:namedview
     id="namedview20"
     pagecolor="#505050"
     bordercolor="#ffffff"
     borderopacity="1"
     inkscape:pageshadow="0"
     inkscape:pageopacity="0"
     inkscape:pagecheckerboard="1"
     showgrid="false"
     inkscape:current-layer="svg18"
     inkscape:showpageshadow="0"
     inkscape:deskcolor="#505050"
     inkscape:zoom="1.5214286"
     inkscape:cx="104.50704"
     inkscape:cy="103.84977"
     inkscape:window-width="1920"
     inkscape:window-height="1011"
     inkscape:window-x="0"
     inkscape:window-y="0"
     inkscape:window-maximized="1">
    <inkscape:grid
       id="grid1"
       units="px"
       originx="0"
       originy="0"
       spacingx="1"
       spacingy="1"
       empcolor="#3f3fff"
       empopacity="0.25098039"
       color="#3f3fff"
       opacity="0.1254902"
       empspacing="5"
       dotted="false"
       gridanglex="30"
       gridanglez="30"
       visible="false" />
  </sodipodi:namedview>
  <rect
     style="font-variation-settings:normal;opacity:1;vector-effect:none;fill:url(#linearGradient2);fill-opacity:1;stroke:none;stroke-width:18;stroke-linecap:round;stroke-linejoin:miter;stroke-miterlimit:4;stroke-dasharray:none;stroke-dashoffset:26.4;stroke-opacity:1;-inkscape-stroke:none;stop-color:#000000;stop-opacity:1"
     width="230"
     height="140"
     x="0.001"
     ry="20"
     rx="20"
     id="rect2"
     y="0" />
  <path
     id="path4"
     style="fill:#d7e6f9;fill-opacity:1;stroke:none;stroke-width:2.01667;stroke-linecap:round;stroke-dashoffset:26.4"
     d="M 176.08072 122.237 A 1.4556284 1.4556284 0 0 0 174.625 123.69267 L 174.625 140.09633 A 1.4556284 1.4556284 0 0 0 176.08072 141.552 L 204.91927 141.552 A 1.4556284 1.4556284 0 0 0 206.375 140.09633 L 206.375 123.69267 A 1.4556284 1.4556284 0 0 0 204.91927 122.237 L 176.08072 122.237 z M 179.87636 124.52009 L 183.518 124.52009 L 187.4237 135.65187 L 184.27609 135.65187 L 183.54228 133.35821 L 179.55338 133.35821 L 178.8542 135.65187 L 175.80581 135.65187 L 179.87636 124.52009 z M 181.50055 126.9737 L 180.31664 130.85582 L 182.74233 130.85582 L 181.50055 126.9737 z M 192.99339 127.63212 C 195.06977 127.63212 196.56939 129.30009 196.56939 131.6259 C 196.56939 134.03191 194.97089 135.81233 192.84507 135.81233 C 192.1457 135.81233 191.54133 135.60732 191.0488 135.23891 L 191.0488 139.13259 L 188.3301 139.13259 L 188.3301 127.79258 L 190.22508 127.79258 L 190.61575 128.70551 C 191.19549 128.0214 192.01077 127.63212 192.99339 127.63212 z M 202.79847 127.63212 C 204.87485 127.63212 206.37448 129.30009 206.37448 131.6259 C 206.37448 134.03191 204.77597 135.81233 202.65016 135.81233 C 201.95105 135.81233 201.34683 135.60755 200.8544 135.23942 L 200.8544 139.13259 L 198.13519 139.13259 L 198.13519 127.79258 L 200.03017 127.79258 L 200.42136 128.70551 C 201.00108 128.02155 201.81598 127.63212 202.79847 127.63212 z M 192.16966 129.94187 C 191.72329 129.94187 191.331 130.10667 191.0488 130.39558 L 191.0488 133.00511 C 191.34977 133.31932 191.76559 133.50257 192.23529 133.50257 C 193.14165 133.50257 193.66931 132.86098 193.66931 131.77026 C 193.66931 130.61537 193.09249 129.94187 192.16966 129.94187 z M 201.97475 129.94187 C 201.52864 129.94187 201.13657 130.10648 200.8544 130.39507 L 200.8544 133.00562 C 201.15534 133.3195 201.57145 133.50257 202.0409 133.50257 C 202.94725 133.50257 203.4744 132.86098 203.4744 131.77026 C 203.4744 130.61537 202.89758 129.94187 201.97475 129.94187 z "
     transform="matrix(3.7795277,0,0,3.8829924,-615.00002,-439.64534)" />
  <path
     style="fill:#ffffff;stroke-width:2;stop-color:#000000"
     d="m 175.00114,24.999999 h 5.00032 V 115 h -5.00032 z"
     id="path10" />
  <rect
     style="fill:#ffffff;stroke-width:2;stop-color:#000000"
     width="15.000955"
     height="5.0003181"
     x="169.99904"
     y="24.999681"
     rx="0"
     ry="0"
     id="rect12" />
  <rect
     style="fill:#ffffff;stroke-width:2;stop-color:#000000"
     width="15.000955"
     height="5.0003181"
     x="169.99904"
     y="110"
     rx="0"
     ry="0"
     id="rect14" />
</svg>
