<?xml version="1.0" encoding="UTF-8" standalone="no"?>
<svg
   height="140"
   width="230"
   version="1.1"
   id="svg18684"
   sodipodi:docname="guidelines-pointertouch-dark.svg"
   inkscape:version="1.3.2 (091e20ef0f, 2023-11-25)"
   xmlns:inkscape="http://www.inkscape.org/namespaces/inkscape"
   xmlns:sodipodi="http://sodipodi.sourceforge.net/DTD/sodipodi-0.dtd"
   xmlns:xlink="http://www.w3.org/1999/xlink"
   xmlns="http://www.w3.org/2000/svg"
   xmlns:svg="http://www.w3.org/2000/svg">
  <defs
     id="defs18688">
    <linearGradient
       id="linearGradient1"
       inkscape:collect="always">
      <stop
         style="stop-color:#f5c211;stop-opacity:1"
         offset="0"
         id="stop1" />
      <stop
         style="stop-color:#c98909;stop-opacity:1;"
         offset="1"
         id="stop2" />
    </linearGradient>
    <linearGradient
       inkscape:collect="always"
       xlink:href="#linearGradient1"
       id="linearGradient2"
       x1="30"
       y1="115"
       x2="215"
       y2="10"
       gradientUnits="userSpaceOnUse" />
  </defs>
  <sodipodi:namedview
     id="namedview18686"
     pagecolor="#505050"
     bordercolor="#ffffff"
     borderopacity="1"
     inkscape:showpageshadow="0"
     inkscape:pageopacity="0"
     inkscape:pagecheckerboard="1"
     inkscape:deskcolor="#505050"
     showgrid="false"
     inkscape:current-layer="svg18684"
     inkscape:zoom="3.0428573"
     inkscape:cx="-8.2159621"
     inkscape:cy="55.868543"
     inkscape:window-width="1920"
     inkscape:window-height="1011"
     inkscape:window-x="0"
     inkscape:window-y="0"
     inkscape:window-maximized="1">
    <inkscape:grid
       id="grid1"
       units="px"
       originx="0"
       originy="0"
       spacingx="1"
       spacingy="1"
       empcolor="#3f3fff"
       empopacity="0.25098039"
       color="#3f3fff"
       opacity="0.1254902"
       empspacing="5"
       dotted="false"
       gridanglex="30"
       gridanglez="30"
       visible="false" />
  </sodipodi:namedview>
  <rect
     style="font-variation-settings:normal;opacity:1;vector-effect:none;fill:url(#linearGradient2);fill-opacity:1;stroke:none;stroke-width:18;stroke-linecap:round;stroke-linejoin:miter;stroke-miterlimit:4;stroke-dasharray:none;stroke-dashoffset:26.4;stroke-opacity:1;-inkscape-stroke:none;stop-color:#000000;stop-opacity:1"
     width="230"
     height="140"
     x="0.001"
     ry="20"
     rx="20"
     id="rect18668"
     y="0" />
  <circle
     style="fill:#000000;fill-opacity:0.19;stroke:none;stroke-width:1;stroke-linecap:round;stroke-dashoffset:26.4"
     cx="64.497437"
     cy="59.963932"
     r="30.001909"
     id="circle18670" />
  <circle
     style="fill:#000000;fill-opacity:0.19;stroke:none;stroke-width:1;stroke-linecap:round;stroke-dashoffset:26.4"
     cx="156.50528"
     cy="59.865662"
     r="30.001909"
     id="circle18672" />
  <circle
     style="fill:#000000;fill-opacity:0.28;stroke:none;stroke-width:0.999999;stroke-linecap:round;stroke-dashoffset:26.4"
     cx="156.50528"
     cy="60.961758"
     r="15.976074"
     id="circle18674" />
  <path
     d="m 156.33146,57.053708 c -0.40441,0.01512 -0.7937,0.09071 -1.17165,0.219213 a 4.8377984,4.8377984 0 0 0 -0.71811,0.343937 2.9631515,2.9631515 0 0 0 -0.32504,0.234331 3.9155931,3.9155931 0 0 0 -1.57607,2.687246 c -0.0151,0.154961 -0.0302,0.294803 -0.0302,0.453544 v 33.53199 l -10.20473,-5.109925 a 3.9911837,3.9911837 0 0 0 -5.20064,1.466458 3.9911837,3.9911837 0 0 0 1.01292,5.314019 l 15.90804,11.920639 0.0756,0.0756 0.12094,0.0756 c 0.0605,0.0453 0.12095,0.0756 0.18898,0.12094 0.0416,0.0302 0.0869,0.0454 0.13228,0.0756 a 2.9896082,2.9896082 0 0 1 0.17386,0.0907 l 0.21921,0.0907 a 0.9070872,0.9070872 0 0 0 0.15497,0.0605 l 0.24944,0.0907 c 0.0302,0.0151 0.0756,0.0151 0.12095,0.0302 a 3.6170102,3.6170102 0 0 0 0.42331,0.0907 c 0.0453,0 0.0756,0.0151 0.10582,0.0151 0.10583,0.0151 0.21922,0.0151 0.32882,0.0302 h 20.17135 c 0,0 1.8293,0.0605 3.79465,-0.9222 1.95402,-0.98268 4.20662,-3.7493 4.20662,-7.07906 V 84.961688 c 0,-1.844411 -1.25103,-3.439372 -3.03496,-3.874018 L 165.4704,77.119163 a 3.4771676,3.4771676 0 0 0 -0.96755,-0.120945 h -3.99875 v -16.00253 c 0,-0.40441 -0.0756,-0.793701 -0.20409,-1.171654 a 3.401577,3.401577 0 0 0 -0.52914,-1.077166 c -0.0756,-0.105827 -0.15496,-0.219213 -0.24945,-0.313701 a 4.0063018,4.0063018 0 0 0 -0.90708,-0.782363 l -0.34016,-0.188976 a 3.1748052,3.1748052 0 0 0 -0.37795,-0.151182 3.280632,3.280632 0 0 0 -0.37418,-0.120945 l -0.38929,-0.09071 a 4.6866172,4.6866172 0 0 0 -0.7937,-0.03024 z m 0,0"
     fill="#2e3436"
     fill-rule="evenodd"
     style="fill:#2a281d;stroke-width:0.999999;fill-opacity:1"
     id="path18676" />
  <circle
     style="fill:#000000;fill-opacity:0.28;stroke:none;stroke-width:0.999999;stroke-linecap:round;stroke-dashoffset:26.4"
     cx="64.497437"
     cy="59.963932"
     r="15.976074"
     id="circle18678" />
  <path
     d="m 64.49738,59.790088 v 56.141142 l 12.676544,-12.37796 7.241579,14.7893 c 1.77638,4.00252 10.998433,0.78614 8.375439,-4.5619 L 85.624953,98.424444 h 15.994967 z"
     style="color:#000000;display:block;overflow:visible;visibility:visible;fill:#2a281d;fill-opacity:1;fill-rule:nonzero;stroke:none;stroke-width:0.999999;stroke-linecap:butt;stroke-linejoin:miter;stroke-miterlimit:10;stroke-dasharray:none;stroke-dashoffset:0;stroke-opacity:1;marker:none;enable-background:accumulate"
     id="path18680" />
</svg>
