<?xml version="1.0" encoding="UTF-8" standalone="no"?>
<svg
   height="140"
   width="230"
   version="1.1"
   id="svg10"
   sodipodi:docname="guidelines-typography.svg"
   inkscape:version="1.3 (0e150ed6c4, 2023-07-21)"
   xmlns:inkscape="http://www.inkscape.org/namespaces/inkscape"
   xmlns:sodipodi="http://sodipodi.sourceforge.net/DTD/sodipodi-0.dtd"
   xmlns="http://www.w3.org/2000/svg"
   xmlns:svg="http://www.w3.org/2000/svg">
  <defs
     id="defs14" />
  <sodipodi:namedview
     id="namedview12"
     pagecolor="#505050"
     bordercolor="#ffffff"
     borderopacity="1"
     inkscape:pageshadow="0"
     inkscape:pageopacity="0"
     inkscape:pagecheckerboard="1"
     showgrid="true"
     inkscape:current-layer="svg10"
     inkscape:showpageshadow="0"
     inkscape:deskcolor="#505050">
    <inkscape:grid
       id="grid1"
       units="px"
       originx="0"
       originy="0"
       spacingx="1"
       spacingy="1"
       empcolor="#3f3fff"
       empopacity="0.25098039"
       color="#3f3fff"
       opacity="0.1254902"
       empspacing="5"
       dotted="false"
       gridanglex="30"
       gridanglez="30"
       visible="true" />
  </sodipodi:namedview>
  <rect
     style="font-variation-settings:normal;opacity:1;vector-effect:none;fill:#deddda;fill-opacity:1;stroke:none;stroke-width:18;stroke-linecap:round;stroke-linejoin:miter;stroke-miterlimit:4;stroke-dasharray:none;stroke-dashoffset:26.4;stroke-opacity:1;-inkscape-stroke:none;stop-color:#000000;stop-opacity:1"
     width="230"
     height="140"
     x="0.001"
     ry="20"
     rx="20"
     id="rect2"
     y="0" />
  <g
     aria-label="Aa"
     transform="matrix(3.77953,0,0,3.77953,-855,-805.815)"
     id="text6"
     style="font-weight:700;font-size:21.8722px;line-height:1.25;font-family:Cantarell;-inkscape-font-specification:'Cantarell Bold';letter-spacing:0;word-spacing:0;fill:#5e5c64;stroke-width:0.264583">
    <path
       d="m 231.48812,235.479 h 2.99649 l 4.4838,-13.71387 h -0.61242 l 4.44006,13.71387 h 3.12772 l -5.2712,-15.1793 h -3.60891 z m 3.56517,-3.78389 h 7.26157 l -0.3937,-2.5153 h -6.47417 z"
       id="path35"
       style="fill:#5e5c64" />
    <path
       d="m 254.16956,235.479 h 1.99037 v -6.38668 c 0,-2.86526 -1.64041,-4.46193 -4.76814,-4.46193 -1.53105,0 -3.1496,0.3937 -4.39631,1.028 l 0.65617,1.94662 c 1.11548,-0.43744 2.16534,-0.65616 3.14959,-0.65616 1.70603,0 2.62467,0.65616 2.62467,1.92475 v 4.57129 z m -3.71827,0.21873 c 2.34032,0 4.04635,-1.33421 4.54941,-3.63079 l -0.89676,-0.41557 c -0.37182,1.13735 -1.44356,1.85914 -2.73402,1.85914 -1.07174,0 -1.79352,-0.54681 -1.79352,-1.33421 0,-1.02799 1.24671,-1.44356 4.30882,-1.44356 v -1.55293 c -4.92124,0 -7.10846,1.02799 -7.10846,3.36832 0,1.90288 1.44356,3.1496 3.67453,3.1496 z"
       id="path37"
       style="fill:#5e5c64" />
  </g>
  <path
     fill="#99c1f1"
     style="fill:#d1e3f9;fill-opacity:1;stroke-width:0.999999"
     d="m 490,34.185861 h 85.00163 v 3.998742 H 490 Z m 0,10.000636 h 85.00163 V 48.18524 H 490 Z m 0,10.000636 h 70.00068 v 3.998743 H 490 Z m 0,9.996857 h 85.00163 v 3.998743 H 490 Z m 0,10.000637 h 39.99877 v 3.998742 H 490 Z M 385.00088,94.185899 h 190.00075 v 3.998743 H 385.00088 Z m 0,10.000641 h 190.00075 v 3.99874 H 385.00088 Z m 0,10.00063 h 145.00167 v 3.99874 H 385.00088 Z"
     id="path8" />
  <rect
     style="fill:#9a9996;stroke-linecap:round;stroke-opacity:0.158818;-inkscape-stroke:none;paint-order:markers stroke fill"
     id="rect1"
     width="85"
     height="10"
     x="125"
     y="25"
     rx="5"
     ry="5" />
  <rect
     style="fill:#9a9996;stroke-linecap:round;stroke-opacity:0.158818;-inkscape-stroke:none;paint-order:markers stroke fill"
     id="rect3"
     width="85"
     height="10"
     x="125"
     y="45"
     rx="5"
     ry="5" />
  <rect
     style="fill:#9a9996;stroke-linecap:round;stroke-opacity:0.158818;-inkscape-stroke:none;paint-order:markers stroke fill"
     id="rect4"
     width="85"
     height="10"
     x="125"
     y="65"
     rx="5"
     ry="5" />
  <rect
     style="fill:#9a9996;stroke-linecap:round;stroke-opacity:0.158818;-inkscape-stroke:none;paint-order:markers stroke fill"
     id="rect5"
     width="85"
     height="10"
     x="125"
     y="85"
     rx="5"
     ry="5" />
  <rect
     style="fill:#9a9996;stroke-width:1;stroke-linecap:round;stroke-opacity:0.158818;-inkscape-stroke:none;paint-order:markers stroke fill"
     id="rect6"
     width="195"
     height="10"
     x="14.99999"
     y="105"
     rx="5"
     ry="5" />
</svg>
