<?xml version="1.0" encoding="UTF-8" standalone="no"?>
<svg
   height="140"
   width="230"
   version="1.1"
   id="svg27891"
   sodipodi:docname="nav-tabs.svg"
   inkscape:version="1.3.2 (091e20ef0f, 2023-11-25)"
   xmlns:inkscape="http://www.inkscape.org/namespaces/inkscape"
   xmlns:sodipodi="http://sodipodi.sourceforge.net/DTD/sodipodi-0.dtd"
   xmlns:xlink="http://www.w3.org/1999/xlink"
   xmlns="http://www.w3.org/2000/svg"
   xmlns:svg="http://www.w3.org/2000/svg">
  <defs
     id="defs27895">
    <linearGradient
       id="linearGradient4"
       inkscape:collect="always">
      <stop
         style="stop-color:#99c1f1;stop-opacity:1"
         offset="0"
         id="stop1" />
      <stop
         style="stop-color:#cbdff8;stop-opacity:1;"
         offset="1"
         id="stop4" />
    </linearGradient>
    <linearGradient
       id="linearGradient59"
       inkscape:collect="always">
      <stop
         style="stop-color:#62a0ea;stop-opacity:1"
         offset="0"
         id="stop58" />
      <stop
         style="stop-color:#99c1f1;stop-opacity:1"
         offset="1"
         id="stop59" />
    </linearGradient>
    <linearGradient
       id="linearGradient2"
       inkscape:collect="always">
      <stop
         style="stop-color:#1c71d8;stop-opacity:0.98869719;"
         offset="0"
         id="stop2" />
      <stop
         style="stop-color:#62a0ea;stop-opacity:1"
         offset="1"
         id="stop3" />
    </linearGradient>
    <linearGradient
       inkscape:collect="always"
       xlink:href="#linearGradient4"
       id="linearGradient3"
       x1="120"
       y1="10"
       x2="120"
       y2="117.81801"
       gradientUnits="userSpaceOnUse" />
    <linearGradient
       inkscape:collect="always"
       xlink:href="#linearGradient2"
       id="linearGradient9"
       gradientUnits="userSpaceOnUse"
       x1="120"
       y1="10"
       x2="120"
       y2="117.81801"
       gradientTransform="translate(0,-160)" />
    <clipPath
       clipPathUnits="userSpaceOnUse"
       id="clipPath57">
      <rect
         style="fill:#ffffff;fill-opacity:1;stroke-width:6;stroke-linecap:round;stroke-linejoin:round"
         id="rect58"
         width="190"
         height="120"
         x="20"
         y="20"
         rx="10"
         ry="10" />
    </clipPath>
    <linearGradient
       inkscape:collect="always"
       xlink:href="#linearGradient59"
       id="linearGradient71"
       gradientUnits="userSpaceOnUse"
       x1="120"
       y1="10"
       x2="120"
       y2="117.81801"
       gradientTransform="translate(0,170)" />
  </defs>
  <sodipodi:namedview
     id="namedview27893"
     pagecolor="#505050"
     bordercolor="#ffffff"
     borderopacity="1"
     inkscape:showpageshadow="0"
     inkscape:pageopacity="0"
     inkscape:pagecheckerboard="1"
     inkscape:deskcolor="#505050"
     showgrid="false"
     inkscape:current-layer="svg27891"
     inkscape:zoom="2.0000001"
     inkscape:cx="-2.7499999"
     inkscape:cy="187"
     inkscape:window-width="1920"
     inkscape:window-height="1011"
     inkscape:window-x="0"
     inkscape:window-y="0"
     inkscape:window-maximized="1">
    <inkscape:grid
       id="grid1"
       units="px"
       originx="0"
       originy="0"
       spacingx="1"
       spacingy="1"
       empcolor="#3f3fff"
       empopacity="0.25098039"
       color="#3f3fff"
       opacity="0.1254902"
       empspacing="5"
       dotted="false"
       gridanglex="30"
       gridanglez="30"
       visible="false" />
  </sodipodi:namedview>
  <rect
     style="font-variation-settings:normal;opacity:1;vector-effect:none;fill:url(#linearGradient3);fill-opacity:1;stroke:none;stroke-width:18;stroke-linecap:round;stroke-linejoin:miter;stroke-miterlimit:4;stroke-dasharray:none;stroke-dashoffset:26.4;stroke-opacity:1;-inkscape-stroke:none;stop-color:#000000;stop-opacity:1"
     width="230"
     height="140"
     x="0.001"
     ry="20"
     rx="20"
     id="rect27873"
     y="0" />
  <rect
     style="fill:#ffffff;fill-opacity:1;stroke-width:6;stroke-linecap:round;stroke-linejoin:round"
     id="rect1"
     width="190"
     height="22"
     x="20"
     y="45" />
  <g
     id="g9"
     transform="translate(0,500)">
    <rect
       style="font-variation-settings:normal;opacity:1;vector-effect:none;fill:url(#linearGradient9);fill-opacity:1;stroke:none;stroke-width:18;stroke-linecap:round;stroke-linejoin:miter;stroke-miterlimit:4;stroke-dasharray:none;stroke-dashoffset:26.4;stroke-opacity:1;-inkscape-stroke:none;stop-color:#000000;stop-opacity:1"
       width="230"
       height="140"
       x="0.001"
       ry="20"
       rx="20"
       id="rect4"
       y="-160" />
    <g
       transform="matrix(3.77953,0,0,3.77953,-2810,-590)"
       id="g7">
      <rect
         style="fill:#b3d0f4;fill-opacity:1;stroke:none;stroke-width:4.76249;stroke-linecap:round;stroke-dashoffset:26.4"
         width="26.458"
         height="29.104"
         x="773.90601"
         y="-146.84399"
         ry="3.175"
         rx="3.175"
         transform="scale(1,-1)"
         id="rect5" />
      <path
         style="fill:#d1e3f9;fill-opacity:1;stroke:none;stroke-width:4.7625;stroke-linecap:round;stroke-dashoffset:26.4"
         d="M 765.175,117.74 A 3.168,3.168 0 0 0 762,120.915 v 14.816 a 3.168,3.168 0 0 0 3.175,3.175 h 28.575 v -14.552 h -3.704 c -0.88,0 -1.588,-0.708 -1.588,-1.587 v -1.852 a 3.168,3.168 0 0 0 -3.175,-3.175 z"
         id="path5" />
      <path
         style="fill:#ffffff;fill-opacity:1;stroke:none;stroke-width:18;stroke-linecap:round;stroke-dashoffset:26.4"
         d="m 2277,65 c -6.648,0 -12,5.352 -12,12 v 113 h 200 V 90 h -94 c -3.324,0 -6,-2.676 -6,-6 v -7 c 0,-6.648 -5.352,-12 -12,-12 z"
         transform="matrix(0.26458,0,0,0.26458,148.167,100.542)"
         id="path6" />
      <circle
         style="fill:#99c1f1;fill-opacity:1;stroke:none;stroke-width:1.05833;stroke-linecap:round;stroke-linejoin:round;stroke-dashoffset:26.4;stroke-opacity:1"
         cx="751.5481"
         cy="121.70825"
         r="1.3229154"
         id="circle6" />
      <path
         style="fill:#99c1f1;fill-opacity:1;stroke-width:1.05833;stroke-linecap:round;stroke-linejoin:round;stroke-dashoffset:26.4"
         d="m 747.448,125.677 h 52.917 v 25.135 h -52.917 z"
         id="path7" />
    </g>
    <rect
       style="fill:#99c1f1;fill-opacity:0.988697;stroke-width:18;stroke-linecap:round;stroke-dashoffset:26.4;-inkscape-stroke:none;paint-order:markers stroke fill"
       id="rect7"
       width="50"
       height="10"
       x="40"
       y="-135"
       rx="5"
       ry="5" />
    <path
       id="path8"
       style="fill:#99c1f1;fill-opacity:0.988697;stroke-width:18;stroke-linecap:round;stroke-dashoffset:26.4;paint-order:markers stroke fill"
       d="M 115.05551,-135 H 150 c 2.77,0 5,2.23 5,5 0,2.77 -2.23,5 -5,5 h -34.94449 z"
       sodipodi:nodetypes="cssscc" />
    <path
       id="path9"
       style="fill:#99c1f1;fill-opacity:0.988697;stroke-width:18;stroke-linecap:round;stroke-dashoffset:26.4;paint-order:markers stroke fill"
       d="M 170.05551,-135 H 195 c 2.77,0 5,2.23 5,5 0,2.77 -2.23,5 -5,5 h -24.94449 z"
       sodipodi:nodetypes="cssscc" />
  </g>
  <rect
     style="fill:#ffffff;fill-opacity:1;stroke-width:6;stroke-linecap:round;stroke-linejoin:round"
     id="rect23"
     width="190"
     height="40"
     x="20"
     y="20"
     rx="10"
     ry="10" />
  <rect
     style="fill:#9a9996;fill-opacity:1;stroke-width:18;stroke-linecap:round;stroke-dashoffset:26.4;-inkscape-stroke:none;paint-order:markers stroke fill"
     id="rect35"
     width="50"
     height="6"
     x="90"
     y="28"
     rx="2.9999998"
     ry="3" />
  <g
     id="g57"
     clip-path="url(#clipPath57)"
     transform="translate(0,2)">
    <rect
       style="fill:#deddda;fill-opacity:1;stroke-width:6;stroke-linecap:round;stroke-linejoin:round"
       id="rect20"
       width="70"
       height="20"
       x="25"
       y="40"
       rx="5"
       ry="5" />
    <rect
       style="fill:#9a9996;fill-opacity:1;stroke-width:18;stroke-linecap:round;stroke-dashoffset:26.4;-inkscape-stroke:none;paint-order:markers stroke fill"
       id="rect21"
       width="35"
       height="6"
       x="40"
       y="47"
       rx="3"
       ry="3" />
    <rect
       style="fill:#9a9996;fill-opacity:1;stroke-width:18;stroke-linecap:round;stroke-dashoffset:26.4;-inkscape-stroke:none;paint-order:markers stroke fill"
       id="rect22"
       width="8.0000019"
       height="8"
       x="83"
       y="46"
       rx="5"
       ry="5" />
    <rect
       style="fill:#9a9996;fill-opacity:1;stroke-width:18;stroke-linecap:round;stroke-dashoffset:26.4;-inkscape-stroke:none;paint-order:markers stroke fill"
       id="rect25"
       width="35"
       height="6"
       x="112"
       y="47"
       rx="3"
       ry="3" />
    <rect
       style="fill:#9a9996;fill-opacity:1;stroke-width:18;stroke-linecap:round;stroke-dashoffset:26.4;-inkscape-stroke:none;paint-order:markers stroke fill"
       id="rect26"
       width="8.0000019"
       height="8"
       x="155"
       y="46"
       rx="5"
       ry="5" />
    <rect
       style="fill:#9a9996;fill-opacity:1;stroke-width:18;stroke-linecap:round;stroke-dashoffset:26.4;-inkscape-stroke:none;paint-order:markers stroke fill"
       id="rect28"
       width="35"
       height="6"
       x="184"
       y="47"
       rx="3"
       ry="3" />
    <rect
       style="fill:#ffffff;fill-opacity:0.988697;stroke-width:18;stroke-linecap:round;stroke-dashoffset:26.4;-inkscape-stroke:none;paint-order:markers stroke fill"
       id="rect29"
       width="8.0000019"
       height="8"
       x="227"
       y="46"
       rx="5"
       ry="5" />
  </g>
  <rect
     style="fill:#62a0ea;fill-opacity:1;stroke-width:6;stroke-linecap:round;stroke-linejoin:round;opacity:0.6"
     id="rect30"
     width="190"
     height="73"
     x="20"
     y="67" />
  <path
     d="m 196.00328,28 h 0.77085 a 0.79351667,0.79393293 0 0 1 0.51579,0.23251 l 1.71173,1.712626 1.7344,-1.712626 C 200.93443,28.062381 201.07613,28.005672 201.25184,28 H 202 v 0.748566 c 0,0.215496 -0.0283,0.413979 -0.18703,0.567094 l -1.71173,1.706957 1.68905,1.689943 C 201.93201,32.854337 202,33.052818 202,33.2513 v 0.748565 h -0.74816 a 0.76517681,0.7655782 0 0 1 -0.53846,-0.209826 l -1.71173,-1.712626 -1.71173,1.712626 a 0.75950883,0.75990725 0 0 1 -0.53845,0.209826 h -0.74819 V 33.2513 c 0,-0.198482 0.0681,-0.396966 0.20972,-0.53874 l 1.71172,-1.689943 -1.71172,-1.712627 a 0.68015715,0.68051394 0 0 1 -0.20972,-0.561424 z"
     style="line-height:normal;-inkscape-font-specification:'Andale Mono';text-indent:0;text-align:start;text-decoration-line:none;text-transform:none;fill:#9a9996;fill-opacity:1;stroke:none;stroke-width:1;marker:none"
     color="#bebebe"
     font-weight="400"
     font-family="'Andale Mono'"
     overflow="visible"
     fill="#2e3436"
     id="path6-5" />
  <rect
     style="font-variation-settings:normal;opacity:1;vector-effect:none;fill:url(#linearGradient71);fill-opacity:1;stroke:none;stroke-width:18;stroke-linecap:round;stroke-linejoin:miter;stroke-miterlimit:4;stroke-dasharray:none;stroke-dashoffset:26.4;stroke-opacity:1;-inkscape-stroke:none;stop-color:#000000;stop-opacity:1"
     width="230"
     height="140"
     x="0.001"
     ry="20"
     rx="20"
     id="rect59"
     y="170" />
  <rect
     style="fill:#ffffff;fill-opacity:1;stroke-width:6;stroke-linecap:round;stroke-linejoin:round"
     id="rect60"
     width="190"
     height="120"
     x="20"
     y="190"
     rx="10"
     ry="10" />
  <rect
     style="fill:#b3d0f4;fill-opacity:1;stroke-width:18;stroke-linecap:round;stroke-dashoffset:26.4;-inkscape-stroke:none;paint-order:markers stroke fill"
     id="rect61"
     width="50"
     height="6"
     x="90"
     y="198"
     rx="2.9999998"
     ry="3" />
  <g
     id="g70"
     clip-path="url(#clipPath57)"
     transform="translate(0,172)">
    <rect
       style="fill:#99c1f1;fill-opacity:1;stroke-width:6;stroke-linecap:round;stroke-linejoin:round"
       id="rect62"
       width="70"
       height="16"
       x="25"
       y="42"
       rx="5"
       ry="5" />
    <rect
       style="fill:#ffffff;fill-opacity:1;stroke-width:18;stroke-linecap:round;stroke-dashoffset:26.4;-inkscape-stroke:none;paint-order:markers stroke fill"
       id="rect63"
       width="35"
       height="6"
       x="40"
       y="47"
       rx="3"
       ry="3" />
    <rect
       style="fill:#ffffff;fill-opacity:1;stroke-width:18;stroke-linecap:round;stroke-dashoffset:26.4;-inkscape-stroke:none;paint-order:markers stroke fill"
       id="rect64"
       width="8.0000019"
       height="8"
       x="83"
       y="46"
       rx="5"
       ry="5" />
    <rect
       style="fill:#b3d0f4;fill-opacity:1;stroke-width:6;stroke-linecap:round;stroke-linejoin:round"
       id="rect65"
       width="70"
       height="16"
       x="97"
       y="42"
       rx="5"
       ry="5" />
    <rect
       style="fill:#ffffff;fill-opacity:1;stroke-width:18;stroke-linecap:round;stroke-dashoffset:26.4;-inkscape-stroke:none;paint-order:markers stroke fill"
       id="rect66"
       width="35"
       height="6"
       x="112"
       y="47"
       rx="3"
       ry="3" />
    <rect
       style="fill:#ffffff;fill-opacity:1;stroke-width:18;stroke-linecap:round;stroke-dashoffset:26.4;-inkscape-stroke:none;paint-order:markers stroke fill"
       id="rect67"
       width="8.0000019"
       height="8"
       x="155"
       y="46"
       rx="5"
       ry="5" />
    <rect
       style="fill:#d1e3f9;fill-opacity:1;stroke-width:6;stroke-linecap:round;stroke-linejoin:round"
       id="rect68"
       width="70"
       height="16"
       x="169"
       y="42"
       rx="5"
       ry="5" />
    <rect
       style="fill:#ffffff;fill-opacity:1;stroke-width:18;stroke-linecap:round;stroke-dashoffset:26.4;-inkscape-stroke:none;paint-order:markers stroke fill"
       id="rect69"
       width="35"
       height="6"
       x="184"
       y="47"
       rx="3"
       ry="3" />
    <rect
       style="fill:#ffffff;fill-opacity:0.988697;stroke-width:18;stroke-linecap:round;stroke-dashoffset:26.4;-inkscape-stroke:none;paint-order:markers stroke fill"
       id="rect70"
       width="8.0000019"
       height="8"
       x="227"
       y="46"
       rx="5"
       ry="5" />
  </g>
  <rect
     style="fill:#d1e3f9;fill-opacity:1;stroke-width:6;stroke-linecap:round;stroke-linejoin:round"
     id="rect71"
     width="190"
     height="77"
     x="20"
     y="233" />
  <path
     d="m 196.00328,198 h 0.77085 a 0.79351667,0.79393293 0 0 1 0.51579,0.23251 l 1.71173,1.71263 1.7344,-1.71263 c 0.19838,-0.17013 0.34008,-0.22684 0.51579,-0.23251 H 202 v 0.74857 c 0,0.21549 -0.0283,0.41397 -0.18703,0.56709 l -1.71173,1.70696 1.68905,1.68994 C 201.93201,202.85434 202,203.05282 202,203.2513 v 0.74857 h -0.74816 a 0.76517681,0.7655782 0 0 1 -0.53846,-0.20983 l -1.71173,-1.71263 -1.71173,1.71263 a 0.75950883,0.75990725 0 0 1 -0.53845,0.20983 h -0.74819 v -0.74857 c 0,-0.19848 0.0681,-0.39697 0.20972,-0.53874 l 1.71172,-1.68994 -1.71172,-1.71263 a 0.68015715,0.68051394 0 0 1 -0.20972,-0.56142 z"
     style="line-height:normal;-inkscape-font-specification:'Andale Mono';text-indent:0;text-align:start;text-decoration-line:none;text-transform:none;fill:#99c1f1;fill-opacity:1;stroke:none;stroke-width:1;marker:none"
     color="#bebebe"
     font-weight="400"
     font-family="'Andale Mono'"
     overflow="visible"
     fill="#2e3436"
     id="path71" />
</svg>
