<?xml version="1.0" encoding="UTF-8" standalone="no"?>
<svg
   height="140"
   width="230"
   version="1.1"
   id="svg24"
   sodipodi:docname="reference-keyboard-dark.svg"
   inkscape:version="1.3.2 (091e20ef0f, 2023-11-25)"
   xmlns:inkscape="http://www.inkscape.org/namespaces/inkscape"
   xmlns:sodipodi="http://sodipodi.sourceforge.net/DTD/sodipodi-0.dtd"
   xmlns:xlink="http://www.w3.org/1999/xlink"
   xmlns="http://www.w3.org/2000/svg"
   xmlns:svg="http://www.w3.org/2000/svg">
  <defs
     id="defs28">
    <linearGradient
       inkscape:collect="always"
       xlink:href="#linearGradient1"
       id="linearGradient2"
       x1="20"
       y1="30"
       x2="210"
       y2="115"
       gradientUnits="userSpaceOnUse" />
    <linearGradient
       id="linearGradient1"
       inkscape:collect="always">
      <stop
         style="stop-color:#c01c28;stop-opacity:1"
         offset="0"
         id="stop1" />
      <stop
         style="stop-color:#613583;stop-opacity:1"
         offset="1"
         id="stop2" />
    </linearGradient>
  </defs>
  <sodipodi:namedview
     id="namedview26"
     pagecolor="#505050"
     bordercolor="#ffffff"
     borderopacity="1"
     inkscape:pageshadow="0"
     inkscape:pageopacity="0"
     inkscape:pagecheckerboard="1"
     showgrid="true"
     inkscape:current-layer="svg24"
     inkscape:showpageshadow="0"
     inkscape:deskcolor="#505050"
     inkscape:zoom="2.1516249"
     inkscape:cx="143.61239"
     inkscape:cy="-8.8305355"
     inkscape:window-width="1920"
     inkscape:window-height="1011"
     inkscape:window-x="0"
     inkscape:window-y="0"
     inkscape:window-maximized="1">
    <inkscape:grid
       id="grid1"
       units="px"
       originx="0"
       originy="0"
       spacingx="1"
       spacingy="1"
       empcolor="#3f3fff"
       empopacity="0.25098039"
       color="#3f3fff"
       opacity="0.1254902"
       empspacing="5"
       dotted="false"
       gridanglex="30"
       gridanglez="30"
       visible="true" />
  </sodipodi:namedview>
  <rect
     style="font-variation-settings:normal;vector-effect:none;fill:url(#linearGradient2);fill-opacity:1;stroke:none;stroke-width:18;stroke-linecap:round;stroke-linejoin:miter;stroke-miterlimit:4;stroke-dasharray:none;stroke-dashoffset:26.4;stroke-opacity:1;-inkscape-stroke:none;stop-color:#000000"
     width="230"
     height="140"
     x="0.001"
     ry="20"
     rx="20"
     id="rect2-3"
     y="0" />
  <rect
     width="69.947762"
     height="39.998768"
     x="15.030693"
     y="50.000309"
     rx="12.000008"
     ry="12.000008"
     fill="#fff"
     style="fill:#241f31;fill-opacity:1;stroke:none;stroke-width:2;stroke-miterlimit:4;stroke-dasharray:none;opacity:0.8"
     id="rect4" />
  <path
     d="m 39.619974,76.473801 c 1.536001,0 3.200128,-0.362457 4.458711,-0.981317 l -0.618709,-2.005343 c -0.938835,0.362835 -2.15471,0.576 -3.178584,0.576 -3.242837,0 -5.269421,-2.112001 -5.269421,-5.439991 0,-3.157343 1.834584,-4.928015 4.949294,-4.928015 1.173545,0 2.517545,0.234708 3.477546,0.618671 l 0.789166,-2.133318 c -1.280127,-0.597355 -2.730711,-0.91733 -4.181294,-0.91733 -4.69342,0 -7.872005,3.093319 -7.872005,7.743993 0,4.47999 3.008128,7.46665 7.445296,7.46665 z"
     id="path37"
     style="font-weight:700;font-size:5.64444px;line-height:1.25;font-family:Cantarell;-inkscape-font-specification:'Cantarell Bold';text-align:center;letter-spacing:0;word-spacing:0;text-anchor:middle;fill:#c0bfbc;stroke-width:0.999999" />
  <path
     d="m 50.500107,76.409814 c 0.725292,0 1.471749,-0.128126 2.15471,-0.362835 l -0.554835,-1.941318 c -0.298583,0.128126 -0.682583,0.192 -1.002709,0.192 -0.981166,0 -1.599875,-0.576 -1.599875,-1.450659 v -9.96269 h -2.688002 v 10.112019 c 0,2.112002 1.386709,3.413331 3.690711,3.413331 z m -5.120129,-8.341347 h 6.741169 v -2.175989 h -6.741169 z"
     id="path39"
     style="font-weight:700;font-size:5.64444px;line-height:1.25;font-family:Cantarell;-inkscape-font-specification:'Cantarell Bold';text-align:center;letter-spacing:0;word-spacing:0;text-anchor:middle;fill:#c0bfbc;stroke-width:0.999999" />
  <path
     d="m 54.57444,76.260484 h 2.709545 V 69.15648 L 56.72915,65.892478 h -2.15471 z m 2.197419,-5.888016 c 0.576,-1.258659 1.706836,-2.005305 2.965419,-2.005305 0.447875,0 0.938836,0.08542 1.322836,0.213165 l 0.639874,-2.496001 c -0.447874,-0.170835 -0.981544,-0.277418 -1.536001,-0.277418 -1.365544,0 -2.624127,0.72533 -3.392128,1.962672 z"
     id="path41"
     style="font-weight:700;font-size:5.64444px;line-height:1.25;font-family:Cantarell;-inkscape-font-specification:'Cantarell Bold';text-align:center;letter-spacing:0;word-spacing:0;text-anchor:middle;fill:#c0bfbc;stroke-width:0.999999" />
  <path
     d="m 66.222574,76.43113 c 0.661418,0 1.429418,-0.149291 1.983875,-0.384 l -0.554457,-1.834659 c -0.234331,0.08542 -0.469418,0.128126 -0.661418,0.128126 -0.639874,0 -0.981166,-0.405355 -0.981166,-1.130685 V 60.495271 h -2.688001 v 13.055971 c 0,1.792026 1.087748,2.880002 2.901167,2.880002 z"
     id="path43"
     style="font-weight:700;font-size:5.64444px;line-height:1.25;font-family:Cantarell;-inkscape-font-specification:'Cantarell Bold';text-align:center;letter-spacing:0;word-spacing:0;text-anchor:middle;fill:#c0bfbc;stroke-width:0.999999" />
  <rect
     width="70.000671"
     height="39.998768"
     x="89.978607"
     y="50.000309"
     rx="12.000008"
     ry="12.000008"
     fill="#fff"
     style="fill:#241f31;fill-opacity:1;stroke:none;stroke-width:2;stroke-miterlimit:4;stroke-dasharray:none;opacity:0.8"
     id="rect10" />
  <path
     d="m 110.78059,76.260484 h 2.92271 l 4.37329,-13.376021 h -0.59716 l 4.33058,13.376021 h 3.05046 l -5.14129,-14.805326 h -3.51988 z m 3.47754,-3.690673 h 7.08246 l -0.384,-2.453331 h -6.31446 z"
     id="path30"
     style="font-weight:700;font-size:5.64444px;line-height:1.25;font-family:Cantarell;-inkscape-font-specification:'Cantarell Bold';text-align:center;letter-spacing:0;word-spacing:0;text-anchor:middle;fill:#c0bfbc;stroke-width:0.999999" />
  <path
     d="m 129.29802,76.43113 c 0.66141,0 1.42941,-0.149291 1.98387,-0.384 l -0.55446,-1.834659 c -0.23433,0.08542 -0.46941,0.128126 -0.66141,0.128126 -0.64026,0 -0.98155,-0.405355 -0.98155,-1.130685 V 60.495271 h -2.688 v 13.055971 c 0,1.792026 1.08813,2.880002 2.90155,2.880002 z"
     id="path32"
     style="font-weight:700;font-size:5.64444px;line-height:1.25;font-family:Cantarell;-inkscape-font-specification:'Cantarell Bold';text-align:center;letter-spacing:0;word-spacing:0;text-anchor:middle;fill:#c0bfbc;stroke-width:0.999999" />
  <path
     d="m 136.99919,76.409814 c 0.72529,0 1.47212,-0.128126 2.15471,-0.362835 l -0.55484,-1.941318 c -0.29858,0.128126 -0.68258,0.192 -1.00233,0.192 -0.98154,0 -1.60025,-0.576 -1.60025,-1.450659 v -9.96269 h -2.688 v 10.112019 c 0,2.112002 1.3867,3.413331 3.69071,3.413331 z m -5.11975,-8.341347 h 6.74116 v -2.175989 h -6.74116 z"
     id="path34"
     style="font-weight:700;font-size:5.64444px;line-height:1.25;font-family:Cantarell;-inkscape-font-specification:'Cantarell Bold';text-align:center;letter-spacing:0;word-spacing:0;text-anchor:middle;fill:#c0bfbc;stroke-width:0.999999" />
  <rect
     width="49.999401"
     height="39.998768"
     x="164.97589"
     y="50.000309"
     rx="12.000008"
     ry="12.000008"
     fill="#fff"
     style="fill:#241f31;fill-opacity:1;stroke:none;stroke-width:2;stroke-miterlimit:4;stroke-dasharray:none;opacity:0.8"
     id="rect16" />
  <path
     d="m 182.93824,76.260484 h 2.92271 l 4.37329,-13.376021 h -0.59716 l 4.33058,13.376021 h 3.05084 l -5.14167,-14.805326 h -3.51988 z m 3.47755,-3.690673 h 7.08246 l -0.384,-2.453331 h -6.31446 z"
     id="path46"
     style="font-weight:700;font-size:5.64444px;line-height:1.25;font-family:Cantarell;-inkscape-font-specification:'Cantarell Bold';text-align:center;letter-spacing:0;word-spacing:0;text-anchor:middle;fill:#c0bfbc;stroke-width:0.999999" />
</svg>
