<svg width="1024" height="512" xmlns="http://www.w3.org/2000/svg"><defs><linearGradient id="a"><stop offset="0" stop-color="#051224"/><stop offset="1" stop-color="#3584e4"/></linearGradient></defs><g transform="matrix(.56888 0 0 .56888 221.867 -34.13)" style="display:inline"><path style="font-variation-settings:normal;display:inline;opacity:1;vector-effect:none;fill:#99c1f1;fill-opacity:.231868;stroke:none;stroke-width:1.36678;stroke-linecap:butt;stroke-linejoin:miter;stroke-miterlimit:4;stroke-dasharray:none;stroke-dashoffset:0;stroke-opacity:1;marker:none;stop-color:#000;stop-opacity:1" d="M180.004 90.48a30.004 30.004 44.082 0 0 30.48 29.52h59.04a30.48 30.48 45 0 1 30.48 30.48 30.004 30.004 135.918 0 1-30.48 29.52 30.004 30.004 134.082 0 0-29.52 30.48 30.004 30.004 44.082 0 0 30.48 29.52 30.004 30.004 45.918 0 1 29.52 30.48 30.004 30.004 135.918 0 1-30.48 29.52h-119.04a30.48 30.48 135 0 0-30.48 30.48 30.004 30.004 44.082 0 0 30.48 29.52 30.004 30.004 45.918 0 1 29.52 30.48 30.004 30.004 135.918 0 1-30.48 29.52h-59.04a30.48 30.48 135 0 0-30.48 30.48A30.004 30.004 44.082 0 0 90.484 480h59.04a30.48 30.48 45 0 1 30.48 30.48 30.004 30.004 135.918 0 1-30.48 29.52h-59.04a30.48 30.48 135 0 0-30.48 30.48A30.004 30.004 44.082 0 0 90.484 600a30.004 30.004 45.918 0 1 29.52 30.48A30.004 30.004 135.918 0 1 89.524 660a30.004 30.004 134.082 0 0-29.52 30.48A30.004 30.004 44.082 0 0 90.484 720h119.04a30.48 30.48 45 0 1 30.48 30.48 30.004 30.004 135.918 0 1-30.48 29.52h-59.04a30.48 30.48 135 0 0-30.48 30.48 30.004 30.004 44.082 0 0 30.48 29.52 30.004 30.004 45.918 0 1 29.52 30.48 30.004 30.004 135.918 0 1-30.48 29.52 30.004 30.004 134.082 0 0-29.52 30.48 30.004 30.004 44.082 0 0 30.48 29.52h779.04a30.48 30.48 135 0 0 30.48-30.48 30.004 30.004 44.082 0 0-30.48-29.52h-299.04a30.48 30.48 45 0 1-30.48-30.48 30.004 30.004 135.918 0 1 30.48-29.52h119.04a30.48 30.48 135 0 0 30.48-30.48 30.004 30.004 44.082 0 0-30.48-29.52 30.004 30.004 45.918 0 1-29.52-30.48 30.004 30.004 135.918 0 1 30.48-29.52h179.04a30.48 30.48 135 0 0 30.48-30.48 30.004 30.004 44.082 0 0-30.48-29.52h-59.04a30.48 30.48 45 0 1-30.48-30.48 30.004 30.004 135.918 0 1 30.48-29.52 30.004 30.004 134.082 0 0 29.52-30.48 30.004 30.004 44.082 0 0-30.48-29.52 30.004 30.004 45.918 0 1-29.52-30.48 30.004 30.004 135.918 0 1 30.48-29.52h59.04a30.48 30.48 135 0 0 30.48-30.48 30.004 30.004 44.082 0 0-30.48-29.52h-59.04a30.48 30.48 45 0 1-30.48-30.48 30.004 30.004 135.918 0 1 30.48-29.52h59.04a30.48 30.48 135 0 0 30.48-30.48 30.004 30.004 44.082 0 0-30.48-29.52 30.004 30.004 45.918 0 1-29.52-30.48 30.004 30.004 135.918 0 1 30.48-29.52 30.004 30.004 134.082 0 0 29.52-30.48 30.004 30.004 44.082 0 0-30.48-29.52h-299.04a30.48 30.48 45 0 1-30.48-30.48 30.004 30.004 135.918 0 1 30.48-29.52 30.004 30.004 134.082 0 0 29.52-30.48A30.004 30.004 44.082 0 0 629.524 60h-419.04a30.48 30.48 135 0 0-30.48 30.48z"/><path style="display:inline;opacity:1;fill:#99c1f1;fill-opacity:1;stroke:none;stroke-width:1px;stroke-linecap:butt;stroke-linejoin:miter;stroke-opacity:1" d="M540 660v60h180v-60h60V540h60l-60-120h60a180 180 45 0 0-180-180h-60a180 180 135 0 0-180 180v186.334A53.666 53.666 45 0 0 473.666 660z"/><path style="display:inline;opacity:1;fill:#fff;fill-opacity:1;stroke:none;stroke-width:1px;stroke-linecap:butt;stroke-linejoin:miter;stroke-opacity:1" d="M360 660v60h120v-60h60V540h60l-60-120h60a180 180 45 0 0-180-180 180 180 135 0 0-180 180v90.516A210.456 210.456 111.87 0 1 180 660z"/><circle style="fill:#fff;fill-opacity:1;stroke-width:20;stroke-linecap:round;stop-color:#000" cx="705.181" cy="494.819" r="14.819"/><circle style="fill:#99c1f1;stroke-width:20;stroke-linecap:round;stop-color:#000" cx="465.181" cy="494.819" r="14.819"/><path style="display:inline;fill:#99c1f1;stroke-width:3.36466" d="m180 257.691-18.923-18.922-18.923 18.922z"/><path d="M142.154 239.996H854.95" fill="none" stroke="#98c1f1" stroke-width="7.256" style="display:inline;stroke-width:1.75783;stroke-miterlimit:4;stroke-dasharray:none"/><path style="display:inline;fill:#99c1f1;stroke-width:3.36466" d="m180 702.835-18.923 18.923-18.923-18.923z"/><path d="M142.154 719.883H854.95M161.077 718.16V238.77" fill="none" stroke="#98c1f1" stroke-width="7.256" style="display:inline;stroke-width:1.75783;stroke-miterlimit:4;stroke-dasharray:none"/></g></svg>