<?xml version="1.0" encoding="UTF-8" standalone="no"?>
<!-- Created with Inkscape (http://www.inkscape.org/) -->

<svg
   width="512"
   height="512"
   viewBox="0 0 135.46666 135.46667"
   version="1.1"
   id="svg1"
   inkscape:version="1.3.1 (9b9bdc1480, 2023-11-25, custom)"
   sodipodi:docname="journal.svg"
   xmlns:inkscape="http://www.inkscape.org/namespaces/inkscape"
   xmlns:sodipodi="http://sodipodi.sourceforge.net/DTD/sodipodi-0.dtd"
   xmlns="http://www.w3.org/2000/svg"
   xmlns:svg="http://www.w3.org/2000/svg">
  <sodipodi:namedview
     id="namedview1"
     pagecolor="#505050"
     bordercolor="#eeeeee"
     borderopacity="1"
     inkscape:showpageshadow="0"
     inkscape:pageopacity="0"
     inkscape:pagecheckerboard="0"
     inkscape:deskcolor="#505050"
     inkscape:document-units="mm"
     inkscape:zoom="0.89157084"
     inkscape:cx="276.47831"
     inkscape:cy="266.94458"
     inkscape:window-width="1280"
     inkscape:window-height="731"
     inkscape:window-x="0"
     inkscape:window-y="0"
     inkscape:window-maximized="1"
     inkscape:current-layer="layer1" />
  <defs
     id="defs1" />
  <g
     inkscape:label="Layer 1"
     inkscape:groupmode="layer"
     id="layer1">
    <path
       d="m 93.616133,44.434001 c -3.69509,-1.689184 -7.601328,-1.372462 -14.25249,0.950166 -1.794758,0.633444 -5.173126,1.372462 -9.184938,2.11148 0.633444,-9.50166 1.161314,-12.66888 1.900332,-14.463638 1.266888,-3.272794 0.950166,-4.328534 -4.434108,-6.545588 -6.123292,-2.533776 -8.551493,-0.105574 -6.651162,1.900332 3.16722,3.16722 3.800664,8.234772 3.589516,20.05906 -8.340345,1.372461 -17.736431,2.533775 -22.909557,2.956071 -2.744924,0.211148 -2.850498,1.478036 -0.211148,2.956072 2.533776,1.372462 5.173126,1.689184 10.240678,0.844592 3.378368,-0.633444 8.023624,-1.372462 12.774453,-2.005906 L 64.160987,67.13241 c -7.918049,1.372462 -16.786265,2.850498 -18.792171,3.061646 -2.63935,0.211148 -2.63935,1.478036 -0.211148,2.63935 3.378368,1.58361 4.011812,1.689184 10.240678,0.422296 11.613139,-2.428202 18.369875,-3.16722 25.971203,-3.272794 7.39018,-0.105574 7.812476,-3.378368 3.16722,-5.384274 -1.794758,-0.739018 -4.645256,-0.739018 -7.601328,0 -1.266888,0.422296 -4.22296,1.05574 -8.023624,1.689184 l 0.950166,-13.830194 c 4.117386,-0.633444 7.91805,-1.05574 10.979696,-1.372462 15.8361,-1.689183 16.997414,-4.856403 12.774454,-6.651161 z m 16.258397,42.863043 c -1.68919,-6.967884 -7.07346,-9.50166 -16.997415,-10.5574 -3.272794,-0.316722 -3.69509,0.211148 -1.372462,2.744924 2.322628,2.428202 12.352157,11.296418 13.619047,12.035436 3.58951,2.322627 5.59542,-0.739018 4.75083,-4.22296 z m -35.895161,0.52787 c 0.422296,-3.800664 -2.956072,-8.340346 -11.190844,-9.396086 -2.428202,-0.316722 -2.744924,0 -1.266888,2.322628 2.217054,3.906238 5.700996,7.91805 8.551494,9.818382 1.58361,1.05574 3.483942,0.422296 3.906238,-2.744924 z M 36.289452,82.123918 C 35.656008,80.32916 34.38912,80.32916 33.86125,81.701622 c -1.58361,3.906238 -3.272794,7.284606 -4.22296,8.551494 -3.272794,4.222959 -3.800664,5.806569 -4.22296,10.662974 -0.211148,2.8505 1.794758,3.37837 3.800664,2.4282 1.900332,-0.84459 4.117386,-4.222959 5.912144,-8.234771 2.11148,-4.856403 2.744924,-8.657067 1.161314,-12.985601 z M 101.95648,105.66692 C 96.888927,102.922 92.560393,99.015757 86.964971,91.836726 c -1.372462,-1.689184 -2.11148,-1.161314 -1.478036,0.633443 1.478036,4.117386 2.63935,7.812481 3.061646,9.712811 0.633444,2.63935 0.316722,3.16722 -1.266888,3.48394 -10.979696,2.32263 -22.381688,2.21705 -29.560719,-3.16722 -3.800664,-2.850499 -6.651162,-9.396087 -9.184938,-17.630858 -0.316722,-1.161314 -1.58361,-2.005906 -2.428202,-1.794758 -0.633444,0.211148 -1.05574,0.950166 -0.950166,2.005906 2.850498,18.58102 10.240678,25.54891 22.592835,28.18826 13.513472,2.85049 28.927276,-0.52787 33.678107,-3.48394 2.21705,-1.37247 1.90033,-3.37837 0.52787,-4.11739 z"
       id="text1"
       style="font-size:105.574px;font-family:FreeSerif;-inkscape-font-specification:'FreeSerif, Normal';fill:#2b2b2a;stroke-width:7.91809"
       aria-label="志&#10;" />
  </g>
</svg>
