<?xml version="1.0" encoding="UTF-8" standalone="no"?>
<svg
   id="svg60"
   width="800"
   height="272"
   version="1.1"
   viewBox="0 0 211.667 71.967"
   sodipodi:docname="app-icons-symbolic (copy).svg"
   inkscape:version="1.3 (0e150ed6c4, 2023-07-21)"
   xmlns:inkscape="http://www.inkscape.org/namespaces/inkscape"
   xmlns:sodipodi="http://sodipodi.sourceforge.net/DTD/sodipodi-0.dtd"
   xmlns:xlink="http://www.w3.org/1999/xlink"
   xmlns="http://www.w3.org/2000/svg"
   xmlns:svg="http://www.w3.org/2000/svg">
  <sodipodi:namedview
     id="namedview1"
     pagecolor="#ffffff"
     bordercolor="#000000"
     borderopacity="0.25"
     inkscape:showpageshadow="2"
     inkscape:pageopacity="0.0"
     inkscape:pagecheckerboard="0"
     inkscape:deskcolor="#d1d1d1"
     inkscape:zoom="1.0475"
     inkscape:cx="400"
     inkscape:cy="135.56086"
     inkscape:window-width="1920"
     inkscape:window-height="1011"
     inkscape:window-x="0"
     inkscape:window-y="0"
     inkscape:window-maximized="1"
     inkscape:current-layer="svg60" />
  <style
     id="style1">path.sym{fill:#000}@media (prefers-color-scheme:dark){path.sym{fill:#f6f5f4}}</style>
  <defs
     id="defs23">
    <linearGradient
       xlink:href="#a"
       id="i"
       x1="320.5"
       x2="415.5"
       y1="-68"
       y2="-68"
       gradientTransform="translate(115.032 109.18) scale(.25263)"
       gradientUnits="userSpaceOnUse" />
    <linearGradient
       id="a">
      <stop
         id="stop1"
         offset="0"
         stop-color="#a51d2d" />
      <stop
         id="stop2"
         offset="1"
         stop-color="#ce1921" />
    </linearGradient>
    <linearGradient
       xlink:href="#b"
       id="j"
       x1="336"
       x2="336"
       y1="62"
       y2="-180"
       gradientTransform="matrix(.25 0 0 .25 8 225)"
       gradientUnits="userSpaceOnUse" />
    <linearGradient
       id="b">
      <stop
         id="stop3"
         offset="0"
         stop-color="#d81d25" />
      <stop
         id="stop4"
         offset="1"
         stop-color="#f66151" />
    </linearGradient>
    <linearGradient
       xlink:href="#c"
       id="k"
       x1="88.596"
       x2="536.596"
       y1="-449.394"
       y2="-449.394"
       gradientTransform="matrix(.23214 0 0 .32895 -376.567 439.827)"
       gradientUnits="userSpaceOnUse" />
    <linearGradient
       id="c">
      <stop
         id="stop5"
         offset="0"
         stop-color="#c0bfbc" />
      <stop
         id="stop6"
         offset=".038"
         stop-color="#f6f5f4" />
      <stop
         id="stop7"
         offset=".077"
         stop-color="#c0bfbc" />
      <stop
         id="stop8"
         offset=".923"
         stop-color="#deddda" />
      <stop
         id="stop9"
         offset=".962"
         stop-color="#c0bfbc" />
      <stop
         id="stop10"
         offset="1"
         stop-color="#c0bfbc" />
    </linearGradient>
    <linearGradient
       id="d">
      <stop
         id="stop11"
         offset="0"
         stop-opacity=".053" />
      <stop
         id="stop12"
         offset="1"
         stop-opacity="0" />
    </linearGradient>
    <linearGradient
       xlink:href="#e"
       id="m"
       x1="11.999"
       x2="132"
       y1="229"
       y2="229"
       gradientUnits="userSpaceOnUse" />
    <linearGradient
       id="e">
      <stop
         id="stop13"
         offset="0"
         stop-color="#fefefe" />
      <stop
         id="stop14"
         offset=".106"
         stop-color="#848277" />
      <stop
         id="stop15"
         offset=".263"
         stop-color="#c2c1bb" />
      <stop
         id="stop16"
         offset=".498"
         stop-color="#c2c1bb" />
      <stop
         id="stop17"
         offset=".802"
         stop-color="#848277" />
      <stop
         id="stop18"
         offset=".896"
         stop-color="#7f7d72" />
      <stop
         id="stop19"
         offset="1"
         stop-color="#e0dfdc" />
    </linearGradient>
    <linearGradient
       id="f">
      <stop
         id="stop20"
         offset="0"
         stop-color="#fdfdfd" />
      <stop
         id="stop21"
         offset="1"
         stop-color="#fdfdfd"
         stop-opacity="0" />
    </linearGradient>
    <linearGradient
       xlink:href="#g"
       id="o"
       x1="127.947"
       x2="91.947"
       y1="224.053"
       y2="188.053"
       gradientTransform="translate(-21.678 .634) scale(1.04757)"
       gradientUnits="userSpaceOnUse" />
    <linearGradient
       id="g">
      <stop
         id="stop22"
         offset="0"
         stop-color="#241f31" />
      <stop
         id="stop23"
         offset="1"
         stop-color="#3d3846" />
    </linearGradient>
    <radialGradient
       xlink:href="#d"
       id="l"
       cx="-256"
       cy="311.78"
       r="52.002"
       fx="-256"
       fy="311.78"
       gradientTransform="matrix(1 0 0 .6072 0 100.688)"
       gradientUnits="userSpaceOnUse" />
    <radialGradient
       xlink:href="#f"
       id="n"
       cx="71.999"
       cy="211.206"
       r="60.001"
       fx="71.999"
       fy="211.206"
       gradientTransform="matrix(1.20624 0 0 1.20623 -14.849 -43.556)"
       gradientUnits="userSpaceOnUse" />
    <clipPath
       id="h"
       clipPathUnits="userSpaceOnUse">
      <path
         id="path23"
         fill="none"
         stroke="#000"
         stroke-linecap="round"
         stroke-linejoin="round"
         stroke-width="4"
         d="M64-148h64l64-64 64 64h192c17.728 0 32 14.272 32 32v288c0 17.728-14.272 32-32 32H256l-64-64-64 64H64c-17.728 0-32-14.272-32-32v-288c0-17.728 14.409-34.199 32-32z"
         style="marker:none" />
    </clipPath>
  </defs>
  <g
     id="g30"
     clip-path="url(#h)"
     transform="translate(33.867 27.781) scale(.06615)">
    <path
       id="path25"
       fill="#cdab8f"
       d="M256 124h160v-272h96v384H256l-64-64-64 64H0V124h128l64-64z"
       style="marker:none" />
    <path
       id="path26"
       fill="#55a7eb"
       d="m0 123.975 128 .05V-148H0z"
       style="marker:none" />
    <path
       id="path27"
       fill="#2ec27e"
       d="M144-164v272l48-48 64 64.058h144L416 108v-256H256l-64-64z" />
    <path
       id="path28"
       fill="#fff"
       d="M399.898-147.89v238c0 10.027-9.373 17.948-16.949 17.948H256L192 44.59l-39.375 39.535L152-211.942h-24V108l-128 .058v32.102h127L192 76l64 64.16h126.95c26.424 0 47.962-22.048 49.05-50.05v-238z"
       color="#000"
       font-family="sans-serif"
       font-weight="400"
       overflow="visible"
       style="line-height:normal;font-variant-ligatures:normal;font-variant-position:normal;font-variant-caps:normal;font-variant-numeric:normal;font-variant-alternates:normal;font-feature-settings:normal;text-indent:0;text-align:start;text-decoration-line:none;text-decoration-style:solid;text-decoration-color:#000;text-transform:none;text-orientation:mixed;white-space:normal;shape-padding:0;isolation:auto;mix-blend-mode:normal;solid-color:#000;solid-opacity:1" />
    <path
       id="path29"
       fill="#fff"
       d="m128 267.975 64 .05V-212h-64z"
       opacity=".3"
       style="marker:none" />
    <path
       id="path30"
       d="m192 267.975 64 .05V-212h-64z"
       opacity=".15"
       style="marker:none" />
  </g>
  <g
     id="g32"
     transform="translate(33.867 -34.925) scale(.26458)">
    <circle
       id="circle30"
       cx="208"
       cy="92"
       r="12"
       fill="url(#i)"
       transform="matrix(0 1 1 0 0 0)" />
    <path
       id="path31"
       fill="#a51d2d"
       d="M92 182a27.912 27.912 0 0 0-19.799 8.201c-10.934 10.935-10.934 28.663 0 39.598l19.8 19.8s13.82-13.823 19.798-19.8c10.935-10.935 10.935-28.663 0-39.598A27.912 27.912 0 0 0 92 182zm0 18a10 10 0 0 1 10 10 10 10 0 0 1-10 10 10 10 0 0 1-10-10 10 10 0 0 1 10-10z"
       style="marker:none" />
    <path
       id="path32"
       fill="url(#j)"
       d="M92 180a27.912 27.912 0 0 0-19.799 8.201c-10.934 10.935-10.934 28.663 0 39.598l19.8 19.8s13.82-13.823 19.798-19.8c10.935-10.935 10.935-28.663 0-39.598A27.912 27.912 0 0 0 92 180zm0 18a10 10 0 0 1 10 10 10 10 0 0 1-10 10 10 10 0 0 1-10-10 10 10 0 0 1 10-10z"
       style="marker:none" />
  </g>
  <g
     id="g49">
    <g
       id="g40"
       transform="translate(184.623 -35.034) scale(.26458)">
      <rect
         id="rect39"
         width="104"
         height="100"
         x="-356"
         y="192"
         fill="url(#k)"
         rx="8"
         ry="8"
         style="marker:none" />
      <path
         id="path39"
         fill="url(#l)"
         d="M-347.504 223.848c-4.7 0-8.5 3.8-8.5 8.5V282.5c0 4.7 3.8 8.5 8.5 8.5h87.004c4.7 0 8.5-3.8 8.5-8.5v-50.152c0-4.7-3.8-8.5-8.5-8.5zm0 1h87.004a7.472 7.472 0 0 1 6.9 4.543 8.477 8.477 0 0 0-6.9-3.543h-87.004a8.477 8.477 0 0 0-6.9 3.543 7.472 7.472 0 0 1 6.9-4.543zm0 2h87.004a7.472 7.472 0 0 1 6.9 4.543 8.477 8.477 0 0 0-6.9-3.543h-87.004a8.477 8.477 0 0 0-6.9 3.543 7.472 7.472 0 0 1 6.9-4.543zm0 2h87.004c4.164 0 7.5 3.336 7.5 7.5V278.5c0 4.164-3.336 7.5-7.5 7.5h-87.004a7.473 7.473 0 0 1-7.5-7.5v-42.152c0-4.164 3.336-7.5 7.5-7.5zm-6.9 54.609a8.477 8.477 0 0 0 6.9 3.543h87.004a8.477 8.477 0 0 0 6.9-3.543 7.472 7.472 0 0 1-6.9 4.543h-87.004a7.472 7.472 0 0 1-6.9-4.543zm0 2a8.477 8.477 0 0 0 6.9 3.543h87.004a8.477 8.477 0 0 0 6.9-3.543 7.472 7.472 0 0 1-6.9 4.543h-87.004a7.472 7.472 0 0 1-6.9-4.543z"
         color="#000"
         font-family="sans-serif"
         font-weight="400"
         overflow="visible"
         style="line-height:normal;font-variant-ligatures:normal;font-variant-position:normal;font-variant-caps:normal;font-variant-numeric:normal;font-variant-alternates:normal;font-variant-east-asian:normal;font-feature-settings:normal;font-variation-settings:normal;text-indent:0;text-align:start;text-decoration-line:none;text-decoration-style:solid;text-decoration-color:#000;text-transform:none;text-orientation:mixed;white-space:normal;shape-padding:0;shape-margin:0;inline-size:0;isolation:auto;mix-blend-mode:normal;solid-color:#000;solid-opacity:1;marker:none" />
      <rect
         id="rect40"
         width="104"
         height="100"
         x="-356"
         y="184"
         fill="#deddda"
         rx="8"
         ry="8"
         style="marker:none" />
    </g>
    <path
       id="path40"
       fill="#241f31"
       stroke-width=".982"
       d="M104.528 17.768h-.328l.063-.766h1.681v-.749h-2.458l-.207 2.269h1.03c.732 0 .939.207.939.524 0 .328-.288.524-.754.524-.42 0-.841-.133-1.146-.363l-.369.714c.392.276.98.432 1.538.432 1.151 0 1.675-.622 1.675-1.336 0-.714-.472-1.25-1.664-1.25z"
       aria-label="5"
       font-family="Montserrat"
       font-size="21.365"
       font-weight="700"
       letter-spacing="0"
       word-spacing="0" />
    <path
       id="path41"
       fill="#62a0ea"
       d="M94.135 22.646h20.638v.529H94.135zm0 8.466h20.638v.53H94.135z" />
    <path
       id="path42"
       fill="#62a0ea"
       d="M100.485 16.825v20.637h-.529V16.825zm8.467 0v20.637h-.53V16.825z" />
    <path
       id="path43"
       fill="#99c1f1"
       d="M100.485 23.175h7.938v7.937h-7.938z" />
    <path
       id="path44"
       fill="#fff"
       d="M102.53 24.776v1.673h.98v-.775h1.577l-1.707 3.863h1.197l1.768-4.047v-.714z"
       aria-label="7"
       font-family="Montserrat"
       font-size="25.703"
       font-weight="700"
       letter-spacing="0"
       word-spacing="0" />
    <path
       id="path45"
       fill="#3584e4"
       stroke-width=".982"
       d="M114.043 18.165a.936.936 0 0 0 .472-.83c0-.707-.634-1.15-1.56-1.15-.916 0-1.55.443-1.55 1.15a.93.93 0 0 0 .467.83c-.386.196-.61.518-.61.95 0 .76.673 1.238 1.693 1.238 1.024 0 1.704-.478 1.704-1.238 0-.432-.225-.754-.616-.95zm-1.088-1.296c.38 0 .633.19.633.507 0 .305-.248.495-.633.495-.38 0-.622-.19-.622-.495 0-.317.247-.507.622-.507zm0 2.799c-.461 0-.749-.225-.749-.582s.288-.576.749-.576c.466 0 .76.219.76.576s-.294.582-.76.582z"
       aria-label="8"
       font-family="Montserrat"
       font-size="21.365"
       font-weight="700"
       letter-spacing="0"
       word-spacing="0" />
    <path
       id="path46"
       fill="#241f31"
       stroke-width=".982"
       d="M95.042 16.253v.749h.806v3.282h.933v-4.03z"
       aria-label="1"
       font-family="Montserrat"
       font-size="21.365"
       font-weight="700"
       letter-spacing="0"
       word-spacing="0" />
    <path
       id="path47"
       fill="#241f31"
       stroke-width=".982"
       d="M97.438 36.404h-.657v-.754h-.88v.754h-1.083l1.762-2.424h-.98l-1.899 2.556v.628h2.17v.846h.91v-.846h.657z"
       aria-label="4"
       font-family="Montserrat"
       font-size="21.365"
       font-weight="700"
       letter-spacing="0"
       word-spacing="0" />
    <path
       id="path48"
       fill="#1a5fb4"
       d="M101.28 32.443v-.793h-.965a.366.366 0 0 1-.375-.375v-.956h-.794v.956c0 .64.528 1.168 1.169 1.168zm6.333 0v-.793h.964c.215 0 .375-.16.375-.375v-.956h.794v.956c0 .64-.528 1.168-1.17 1.168zm-6.334-10.591v.794h-.964a.366.366 0 0 0-.375.375v.956h-.794v-.956c0-.64.528-1.17 1.169-1.17zm6.334 0v.794h.964c.215 0 .375.16.375.375v.956h.794v-.956c0-.64-.528-1.17-1.17-1.17z"
       color="#000"
       font-family="sans-serif"
       font-weight="400"
       overflow="visible"
       style="line-height:normal;font-variant-ligatures:normal;font-variant-position:normal;font-variant-caps:normal;font-variant-numeric:normal;font-variant-alternates:normal;font-variant-east-asian:normal;font-feature-settings:normal;font-variation-settings:normal;text-indent:0;text-align:start;text-decoration-line:none;text-decoration-style:solid;text-decoration-color:#000;text-transform:none;text-orientation:mixed;white-space:normal;shape-padding:0;shape-margin:0;inline-size:0;isolation:auto;mix-blend-mode:normal;solid-color:#000;solid-opacity:1" />
    <path
       id="path49"
       fill="#1c71d8"
       d="M101.28 32.17v-.793h-.965a.366.366 0 0 1-.375-.375v-.956h-.794v.956c0 .64.528 1.169 1.169 1.169zm6.333 0v-.793h.964c.215 0 .375-.16.375-.375v-.956h.794v.956c0 .64-.528 1.169-1.17 1.169zm-6.334-10.591v.794h-.964a.366.366 0 0 0-.375.375v.956h-.794v-.956c0-.64.528-1.169 1.169-1.169zm6.334 0v.794h.964c.215 0 .375.16.375.375v.956h.794v-.956c0-.64-.528-1.169-1.17-1.169z"
       color="#000"
       font-family="sans-serif"
       font-weight="400"
       overflow="visible"
       style="line-height:normal;font-variant-ligatures:normal;font-variant-position:normal;font-variant-caps:normal;font-variant-numeric:normal;font-variant-alternates:normal;font-variant-east-asian:normal;font-feature-settings:normal;font-variation-settings:normal;text-indent:0;text-align:start;text-decoration-line:none;text-decoration-style:solid;text-decoration-color:#000;text-transform:none;text-orientation:mixed;white-space:normal;shape-padding:0;shape-margin:0;inline-size:0;isolation:auto;mix-blend-mode:normal;solid-color:#000;solid-opacity:1" />
  </g>
  <g
     id="g59">
    <g
       id="g58"
       transform="translate(141.367 -34.357) scale(.26458)">
      <ellipse
         id="ellipse51"
         cx="71.999"
         cy="229"
         fill="url(#m)"
         rx="60.001"
         ry="61"
         style="marker:none" />
      <ellipse
         id="ellipse52"
         cx="71.999"
         cy="228"
         fill="#deddda"
         rx="60.001"
         ry="60"
         style="marker:none" />
      <path
         id="path52"
         d="M112.563 180a9.43 9.43 0 0 0-6.704 2.809l-.004-.006-9.699 9.699-6.06-6.063c-1.415-1.414-2.83 0-2.83 0l-4.489 4.489s-1.414 1.414 0 2.828l6.735 6.732L54 236c-3 4.5-1.5 9-6 13.5l4.5 4.5c4.5-4.5 10.583-2.95 13.5-6l35.512-35.512 6.722 6.723c1.415 1.414 2.829 0 2.829 0l4.488-4.488c1.414-1.415 0-2.828 0-2.828l-6.063-6.063 9.643-9.643.055-.054A9.427 9.427 0 0 0 112.563 180z"
         opacity=".309"
         style="marker:none" />
      <path
         id="path53"
         fill="#3d3846"
         d="M72 284a56 56 0 0 1-48.497-28 56 56 0 0 1 0-56A56 56 0 0 1 72 172"
         style="marker:none" />
      <path
         id="path54"
         fill="#3d3846"
         d="M72 172a56 56 0 0 0-56.002 56A56 56 0 0 0 72 284a56 56 0 0 0 56-56 56 56 0 0 0-56-56zm0 2.75A53.25 53.25 0 0 1 125.25 228 53.25 53.25 0 0 1 72 281.25 53.25 53.25 0 0 1 18.748 228 53.25 53.25 0 0 1 72 174.75z"
         style="marker:none" />
      <ellipse
         id="ellipse54"
         cx="71.999"
         cy="228"
         fill="url(#n)"
         opacity=".236"
         rx="60.001"
         ry="60"
         style="marker:none" />
      <path
         id="path55"
         fill="#fff"
         d="M91.46 194.54 54 232c-3 4.5-1.5 9-6 13.5l4.5 4.5c4.5-4.5 10.583-2.95 13.5-6l37.46-37.46z"
         opacity=".6"
         style="marker:none" />
      <path
         id="path56"
         fill="none"
         stroke="#fff"
         stroke-linecap="round"
         stroke-width="6"
         d="M57 233.5 91.5 199"
         opacity=".6" />
      <path
         id="path57"
         fill="none"
         stroke="#fff"
         stroke-linecap="round"
         stroke-width="3"
         d="m57 231.163 34.5-34.5"
         opacity=".6" />
      <path
         id="path58"
         fill="url(#o)"
         fill-rule="evenodd"
         d="M112.083 185.333a12.572 12.572 0 0 0-8.937 3.744l-.006-.006-12.93 12.931-8.084-8.083c-1.885-1.885-3.77 0-3.77 0l-5.985 5.985s-1.886 1.885 0 3.77l33.941 33.942c1.886 1.886 3.771 0 3.771 0l5.985-5.984c1.885-1.886 0-3.771 0-3.771l-8.083-8.083 12.857-12.857.074-.074-.002-.002a12.57 12.57 0 0 0 3.74-8.94c0-6.944-5.628-12.572-12.57-12.572z"
         color="#000"
         font-family="sans-serif"
         font-weight="400"
         overflow="visible"
         style="line-height:normal;font-variant-ligatures:normal;font-variant-position:normal;font-variant-caps:normal;font-variant-numeric:normal;font-variant-alternates:normal;font-feature-settings:normal;text-indent:0;text-align:start;text-decoration-line:none;text-decoration-style:solid;text-decoration-color:#000;text-transform:none;text-orientation:mixed;white-space:normal;shape-padding:0;isolation:auto;mix-blend-mode:normal;solid-color:#000;solid-opacity:1"
         transform="matrix(.75 0 0 .75 28.5 37)" />
      <circle
         id="circle58"
         cx="111"
         cy="182"
         r="3"
         fill="#fff"
         fill-opacity=".276"
         style="marker:none" />
    </g>
  </g>
  <path
     id="path34"
     d="M103.453 54.239v1.588h-1.588v1.058h1.587v3.175h-1.587v1.067h1.588v1.578h1.058v-1.578h3.174v1.578h1.042v-1.578h1.603V60.06h-1.586v-3.175h1.586v-1.058h-1.603v-1.588h-1.042v1.588h-3.174v-1.588h-1.058zm1.322 2.646h2.646v.676l-1.322 2.5h-.79l1.218-2.5h-1.09v.218h-.662v-.894z"
     class="sym"
     style="fill:#ffffff" />
  <path
     id="path38"
     d="M55.471 59.693a.528.53 0 0 0-.181.083l-2.26 1.404-2.16-1.34a.528.53 0 0 0-.544 0l-2.423 1.489a.533.535 0 1 0 .56.91l2.127-1.324 2.16 1.34a.528.53 0 0 0 .56 0l2.54-1.588a.528.53 0 0 0-.38-.975Zm-2.522-5.803c-1.16 0-2.11.898-2.11 2 0 1.64 1.66 4.3 2.11 4.332.45.033 2.094-2.726 2.094-4.332 0-1.102-.935-2-2.094-2zm-.017 1.57a.529.529 0 1 1-.001 1.057.529.529 0 0 1 .001-1.057z"
     class="sym"
     style="color:#000;line-height:normal;-inkscape-font-specification:Sans;text-indent:0;text-align:start;text-decoration-line:none;text-transform:none;marker:none;fill:#ffffff" />
  <path
     id="path59"
     d="M159.973 54.386a3.712 3.712 0 0 0-3.704 3.704 3.712 3.712 0 0 0 3.704 3.704 3.712 3.712 0 0 0 3.704-3.704 3.712 3.712 0 0 0-3.704-3.704zm0 1.058a2.638 2.638 0 0 1 2.646 2.646 2.638 2.638 0 0 1-2.646 2.646v-5.292z"
     class="sym"
     style="fill:#ffffff" />
</svg>
