<svg xmlns="http://www.w3.org/2000/svg" xmlns:xlink="http://www.w3.org/1999/xlink" height="1080" width="1920"><defs><linearGradient xlink:href="#a" id="f" gradientUnits="userSpaceOnUse" x1="48" y1="204" x2="464" y2="204" gradientTransform="matrix(.25 0 0 .25 0 225)"/><linearGradient id="a"><stop offset="0" stop-color="#613583"/><stop offset=".038" stop-color="#c061cb"/><stop offset=".077" stop-color="#613583"/><stop offset=".923" stop-color="#613583"/><stop offset=".962" stop-color="#c061cb"/><stop offset="1" stop-color="#613583"/></linearGradient><linearGradient xlink:href="#b" id="g" gradientUnits="userSpaceOnUse" x1="51.952" y1="209.311" x2="108" y2="260" gradientTransform="matrix(1.02326 0 0 1.14286 -129.489 -28.572)"/><linearGradient id="b"><stop offset="0" stop-color="#f6f5f4"/><stop offset="1" stop-color="#deddda"/></linearGradient><linearGradient id="e"><stop offset="0" stop-color="#c061cb"/><stop offset="1" stop-color="#a347ba"/></linearGradient><linearGradient xlink:href="#c" id="i" gradientUnits="userSpaceOnUse" gradientTransform="matrix(.75 0 0 .7 -29 109)" x1="60" y1="199.856" x2="68" y2="199.856"/><linearGradient id="c"><stop offset="0" stop-color="#3d3846"/><stop offset=".351" stop-color="#9a9996"/><stop offset=".602" stop-color="#77767b"/><stop offset="1" stop-color="#3d3846"/></linearGradient><linearGradient xlink:href="#c" id="j" gradientUnits="userSpaceOnUse" gradientTransform="matrix(.75 0 0 .7 -29 76)" x1="60" y1="199.856" x2="68" y2="199.856"/><linearGradient xlink:href="#d" id="k" x1="-254" y1="64" x2="-206" y2="64" gradientUnits="userSpaceOnUse" gradientTransform="translate(-1)"/><linearGradient id="d"><stop offset="0" stop-color="#deddda"/><stop offset="1" stop-color="#f6f5f4"/></linearGradient><linearGradient xlink:href="#a" id="r" gradientUnits="userSpaceOnUse" gradientTransform="matrix(.25 0 0 .25 0 225)" x1="48" y1="204" x2="464" y2="204"/><linearGradient xlink:href="#b" id="s" gradientUnits="userSpaceOnUse" gradientTransform="matrix(1.02326 0 0 1.14286 -129.489 -28.572)" x1="51.952" y1="209.311" x2="108" y2="260"/><linearGradient xlink:href="#c" id="u" gradientUnits="userSpaceOnUse" gradientTransform="matrix(.75 0 0 .7 -29 109)" x1="60" y1="199.856" x2="68" y2="199.856"/><linearGradient xlink:href="#c" id="v" gradientUnits="userSpaceOnUse" gradientTransform="matrix(.75 0 0 .7 -29 76)" x1="60" y1="199.856" x2="68" y2="199.856"/><linearGradient xlink:href="#d" id="w" gradientUnits="userSpaceOnUse" gradientTransform="translate(-1)" x1="-254" y1="64" x2="-206" y2="64"/><linearGradient xlink:href="#a" id="l" gradientUnits="userSpaceOnUse" gradientTransform="matrix(.25 0 0 .25 0 225)" x1="48" y1="204" x2="464" y2="204"/><linearGradient xlink:href="#b" id="m" gradientUnits="userSpaceOnUse" gradientTransform="matrix(1.02326 0 0 1.14286 -129.489 -28.572)" x1="51.952" y1="209.311" x2="108" y2="260"/><linearGradient xlink:href="#c" id="o" gradientUnits="userSpaceOnUse" gradientTransform="matrix(.75 0 0 .7 -29 109)" x1="60" y1="199.856" x2="68" y2="199.856"/><linearGradient xlink:href="#c" id="p" gradientUnits="userSpaceOnUse" gradientTransform="matrix(.75 0 0 .7 -29 76)" x1="60" y1="199.856" x2="68" y2="199.856"/><linearGradient xlink:href="#d" id="q" gradientUnits="userSpaceOnUse" gradientTransform="translate(-1)" x1="-254" y1="64" x2="-206" y2="64"/><radialGradient r="24" fy="64" fx="-223" cy="64" cx="-223" gradientTransform="translate(126.389 -35.555) scale(1.55555)" gradientUnits="userSpaceOnUse" id="h" xlink:href="#e"/><radialGradient xlink:href="#e" id="t" gradientUnits="userSpaceOnUse" gradientTransform="translate(126.389 -35.555) scale(1.55555)" cx="-223" cy="64" fx="-223" fy="64" r="24"/><radialGradient xlink:href="#e" id="n" gradientUnits="userSpaceOnUse" gradientTransform="translate(126.389 -35.555) scale(1.55555)" cx="-223" cy="64" fx="-223" fy="64" r="24"/></defs><g transform="translate(-305.002 -194.186) scale(1.36301)"><g aria-label="64×64 px" style="line-height:0%;-inkscape-font-specification:'Cantarell, Ultra-Bold';font-variant-ligatures:normal;font-variant-caps:normal;font-variant-numeric:normal;font-variant-east-asian:normal;text-align:center" font-weight="800" font-size="42.667" font-family="Cantarell" letter-spacing="0" word-spacing="0" text-anchor="middle" fill="#2e3436" stroke-width="4.273"><path d="M1422.48 760.239c6.827 0 11.35-4.139 11.35-10.326 0-5.546-3.542-9.13-8.832-9.13-2.817 0-5.206.98-7.04 2.9.426-5.162 2.943-7.935 7.423-7.935 1.92 0 4.352.512 6.102 1.28l1.877-5.504c-2.261-1.11-5.077-1.75-8.277-1.75-9.43 0-14.422 5.76-14.422 15.958 0 9.515 4.31 14.507 11.82 14.507zm-4.267-11.563c1.195-1.28 2.86-2.048 4.48-2.048 2.39 0 3.969 1.536 3.969 3.84 0 2.219-1.451 3.67-3.67 3.67-2.517 0-4.181-1.963-4.779-5.462zM1449.446 760.025h7.21v-5.504h5.206v-6.23h-5.206v-18.09h-6.997l-13.781 20.438v3.882h13.568zm0-11.776l-6.187-.042 6.187-9.771zM1480.123 755.545l5.035-5.034-4.736-4.736 4.736-4.694-5.035-5.035-4.736 4.737-4.736-4.737-5.035 5.035 4.736 4.694-4.736 4.736 5.035 5.034 4.736-4.736zM1501.5 760.239c6.826 0 11.349-4.139 11.349-10.326 0-5.546-3.542-9.13-8.832-9.13-2.816 0-5.206.98-7.04 2.9.426-5.162 2.944-7.935 7.424-7.935 1.92 0 4.352.512 6.101 1.28l1.877-5.504c-2.26-1.11-5.077-1.75-8.277-1.75-9.43 0-14.421 5.76-14.421 15.958 0 9.515 4.309 14.507 11.818 14.507zm-4.267-11.563c1.194-1.28 2.858-2.048 4.48-2.048 2.389 0 3.968 1.536 3.968 3.84 0 2.219-1.451 3.67-3.67 3.67-2.517 0-4.181-1.963-4.778-5.462zM1528.465 760.025h7.21v-5.504h5.206v-6.23h-5.205v-18.09h-6.998l-13.781 20.438v3.882h13.568zm0-11.776l-6.187-.042 6.187-9.771zM1564.476 760.239c5.504 0 9.642-4.736 9.642-11.136 0-6.187-3.882-10.624-9.258-10.624-2.56 0-4.651 1.024-6.144 2.858l-1.024-2.432h-4.907v30.166h7.04v-10.326c1.28.982 2.859 1.494 4.65 1.494zm-4.651-7.467v-6.955c.725-.768 1.75-1.194 2.901-1.194 2.39 0 3.883 1.792 3.883 4.864 0 2.901-1.365 4.608-3.712 4.608-1.195 0-2.304-.47-3.072-1.323zM1575.313 759.812h7.765l3.2-4.95 3.03 4.95h8.448l-7.51-10.539 8.107-10.368h-8.192l-3.37 5.163-3.115-5.163h-8.49l7.765 10.624z" style="line-height:1.25;-inkscape-font-specification:'Cantarell, Ultra-Bold';font-variant-ligatures:normal;font-variant-caps:normal;font-variant-numeric:normal;font-variant-east-asian:normal"/></g><g aria-label="32×32 px" style="line-height:0%;-inkscape-font-specification:'Cantarell, Ultra-Bold';font-variant-ligatures:normal;font-variant-caps:normal;font-variant-numeric:normal;font-variant-east-asian:normal;text-align:center" font-weight="800" font-size="42.667" font-family="Cantarell" letter-spacing="0" word-spacing="0" text-anchor="middle" fill="#2e3436" stroke-width="4.273"><path d="M1418.858 399.75c7.979 0 13.227-3.456 13.227-8.704 0-3.755-2.517-6.571-6.443-7.34 2.944-.767 4.78-3.156 4.78-6.485 0-4.949-3.926-7.936-10.497-7.936-3.499 0-6.997.854-10.24 2.603l1.664 5.504c2.645-1.152 4.95-1.792 7.04-1.792 2.645 0 4.352 1.024 4.352 2.73 0 1.964-2.176 3.286-5.419 3.286h-2.048v5.547h2.048c4.31 0 7.083 1.408 7.083 3.541 0 1.75-1.877 2.73-5.248 2.73-2.603 0-5.504-.554-7.979-1.578l-1.706 5.76c3.157 1.494 5.888 2.134 9.386 2.134zM1435.456 399.323h20.907v-6.4h-10.155c6.272-4.992 9.386-9.77 9.386-14.464 0-5.547-4.352-9.174-11.05-9.174-3.84 0-7.339 1.195-10.198 3.542l1.878 5.418c2.39-1.664 4.736-2.517 6.87-2.517 2.943 0 4.82 1.579 4.82 3.883 0 3.67-4.736 8.107-12.458 14.507zM1475.605 395.056l5.035-5.034-4.736-4.736 4.736-4.694-5.035-5.035-4.736 4.737-4.736-4.737-5.035 5.035 4.736 4.694-4.736 4.736 5.035 5.034 4.736-4.736zM1494.037 399.75c7.98 0 13.227-3.456 13.227-8.704 0-3.755-2.517-6.571-6.443-7.34 2.944-.767 4.78-3.156 4.78-6.485 0-4.949-3.926-7.936-10.497-7.936-3.499 0-6.997.854-10.24 2.603l1.664 5.504c2.645-1.152 4.95-1.792 7.04-1.792 2.645 0 4.352 1.024 4.352 2.73 0 1.964-2.176 3.286-5.419 3.286h-2.048v5.547h2.048c4.31 0 7.083 1.408 7.083 3.541 0 1.75-1.877 2.73-5.248 2.73-2.603 0-5.504-.554-7.979-1.578l-1.706 5.76c3.157 1.494 5.888 2.134 9.386 2.134zM1510.635 399.323h20.907v-6.4h-10.155c6.272-4.992 9.387-9.77 9.387-14.464 0-5.547-4.352-9.174-11.051-9.174-3.84 0-7.339 1.195-10.198 3.542l1.878 5.418c2.39-1.664 4.736-2.517 6.87-2.517 2.943 0 4.82 1.579 4.82 3.883 0 3.67-4.735 8.107-12.458 14.507zM1556.118 399.75c5.504 0 9.642-4.736 9.642-11.136 0-6.187-3.882-10.625-9.258-10.625-2.56 0-4.651 1.025-6.144 2.86l-1.024-2.433h-4.907v30.166h7.04v-10.326c1.28.982 2.859 1.494 4.65 1.494zm-4.651-7.467v-6.955c.725-.768 1.75-1.194 2.901-1.194 2.39 0 3.883 1.792 3.883 4.864 0 2.9-1.365 4.608-3.712 4.608-1.195 0-2.304-.47-3.072-1.323zM1566.955 399.323h7.765l3.2-4.95 3.03 4.95h8.448l-7.51-10.539 8.107-10.368h-8.192l-3.37 5.163-3.115-5.163h-8.491l7.765 10.624z" style="line-height:1.25;-inkscape-font-specification:'Cantarell, Ultra-Bold';font-variant-ligatures:normal;font-variant-caps:normal;font-variant-numeric:normal;font-variant-east-asian:normal"/></g><g aria-label="128×128 px" style="line-height:0%;-inkscape-font-specification:'Cantarell, Ultra-Bold';font-variant-ligatures:normal;font-variant-caps:normal;font-variant-numeric:normal;font-variant-east-asian:normal;text-align:center" font-weight="800" font-size="42.668" font-family="Cantarell" letter-spacing="0" word-spacing="0" text-anchor="middle" fill="#2e3436" stroke-width="4.273"><path d="M432.672 819.938h7.381v-29.612h-4.394l-11.905 5.931 2.774 5.291 6.144-2.56zM445.984 819.938h20.907v-6.4h-10.155c6.273-4.992 9.387-9.771 9.387-14.465 0-5.547-4.352-9.173-11.05-9.173-3.84 0-7.34 1.194-10.198 3.541l1.877 5.419c2.39-1.664 4.736-2.517 6.87-2.517 2.944 0 4.821 1.578 4.821 3.882 0 3.67-4.736 8.107-12.459 14.507zM481.654 820.365c7.254 0 12.033-3.67 12.033-9.089 0-4.01-2.688-5.93-5.846-7.21 3.115-1.537 4.864-3.926 4.864-6.7 0-4.48-4.352-7.466-10.581-7.466-6.827 0-11.307 3.627-11.307 9.003 0 3.328 1.792 5.248 4.139 6.57-3.158 1.238-4.95 3.627-4.95 6.657 0 4.907 4.736 8.235 11.648 8.235zm-1.322-12.8c3.285 1.023 6.187 1.877 6.187 4.138 0 1.621-1.664 2.773-4.395 2.773-2.987 0-4.95-1.45-4.95-3.712 0-1.706 1.11-2.816 3.158-3.2zm1.493-5.548c-2.219-.81-3.84-1.749-3.84-3.498 0-1.58 1.45-2.731 3.755-2.731 2.304 0 3.797 1.152 3.797 2.944 0 1.75-1.493 2.987-3.712 3.285zM512.589 815.671l5.035-5.035-4.737-4.736 4.737-4.693-5.035-5.035-4.736 4.736-4.737-4.736-5.034 5.035 4.736 4.693-4.736 4.736 5.034 5.035 4.737-4.736zM530.04 819.938h7.381v-29.612h-4.394l-11.905 5.931 2.774 5.291 6.144-2.56zM543.352 819.938h20.908v-6.4h-10.155c6.272-4.992 9.387-9.771 9.387-14.465 0-5.547-4.353-9.173-11.051-9.173-3.84 0-7.34 1.194-10.198 3.541l1.877 5.419c2.39-1.664 4.736-2.517 6.87-2.517 2.944 0 4.821 1.578 4.821 3.882 0 3.67-4.736 8.107-12.459 14.507zM579.023 820.365c7.253 0 12.032-3.67 12.032-9.089 0-4.01-2.688-5.93-5.846-7.21 3.115-1.537 4.865-3.926 4.865-6.7 0-4.48-4.353-7.466-10.582-7.466-6.827 0-11.307 3.627-11.307 9.003 0 3.328 1.792 5.248 4.139 6.57-3.158 1.238-4.95 3.627-4.95 6.657 0 4.907 4.736 8.235 11.649 8.235zm-1.323-12.8c3.285 1.023 6.187 1.877 6.187 4.138 0 1.621-1.664 2.773-4.395 2.773-2.987 0-4.95-1.45-4.95-3.712 0-1.706 1.11-2.816 3.158-3.2zm1.493-5.548c-2.218-.81-3.84-1.749-3.84-3.498 0-1.58 1.45-2.731 3.755-2.731 2.304 0 3.797 1.152 3.797 2.944 0 1.75-1.493 2.987-3.712 3.285zM615.29 820.365c5.504 0 9.643-4.736 9.643-11.137 0-6.187-3.883-10.624-9.259-10.624-2.56 0-4.65 1.024-6.144 2.859l-1.024-2.432H603.6v30.166h7.04V818.87c1.28.982 2.86 1.494 4.651 1.494zm-4.65-7.467v-6.955c.725-.768 1.749-1.195 2.9-1.195 2.39 0 3.884 1.792 3.884 4.864 0 2.902-1.366 4.608-3.712 4.608-1.195 0-2.304-.469-3.073-1.322zM626.128 819.938h7.766l3.2-4.95 3.029 4.95h8.448l-7.51-10.539 8.108-10.368h-8.193l-3.37 5.163-3.115-5.163H626l7.766 10.624z" style="line-height:1.25;-inkscape-font-specification:'Cantarell, Ultra-Bold';font-variant-ligatures:normal;font-variant-caps:normal;font-variant-numeric:normal;font-variant-east-asian:normal"/></g><g aria-label="Level of detail" style="line-height:0%;-inkscape-font-specification:'Cantarell, Normal';font-variant-ligatures:normal;font-variant-caps:normal;font-variant-numeric:normal;font-variant-east-asian:normal;text-align:center" font-weight="400" font-size="28.806" font-family="Cantarell" letter-spacing="0" word-spacing="0" text-anchor="middle" fill="#2e3436" stroke-width="2.885"><path d="M812.531 806.979h11.35v-2.132h-8.96v-17.86h-2.39zM833.098 807.267c1.585 0 3.313-.374 4.552-1.037l-.519-1.67a8.701 8.701 0 01-3.63.835c-2.937 0-4.781-1.757-5.127-4.725h9.68c.057-.432.114-1.44.114-1.987 0-3.486-2.304-5.877-5.732-5.877-3.86 0-6.481 3.025-6.481 7.288 0 4.436 2.736 7.173 7.143 7.173zm-4.752-8.325c.201-2.708 1.584-4.177 3.917-4.177 2.362 0 3.745 1.527 3.745 4.177zM845.485 806.979h2.247l5.415-13.884h-2.304l-4.177 11.637-4.09-11.637h-2.564zM862.135 807.267c1.584 0 3.313-.374 4.551-1.037l-.518-1.67a8.701 8.701 0 01-3.63.835c-2.938 0-4.782-1.757-5.127-4.725h9.679c.057-.432.115-1.44.115-1.987 0-3.486-2.305-5.877-5.733-5.877-3.86 0-6.481 3.025-6.481 7.288 0 4.436 2.737 7.173 7.144 7.173zm-4.753-8.325c.202-2.708 1.584-4.177 3.918-4.177 2.362 0 3.744 1.527 3.744 4.177zM874.233 807.152c.75 0 1.642-.173 2.19-.461l-.519-1.613c-.345.144-.662.23-1.008.23-.98 0-1.498-.662-1.498-1.728V785.69h-2.304v18.177c0 1.988 1.238 3.284 3.14 3.284zM891.027 807.267c4.09 0 6.856-2.967 6.856-7.403 0-4.292-2.564-7.058-6.51-7.058-4.09 0-6.827 2.939-6.827 7.375 0 4.292 2.535 7.086 6.481 7.086zm.317-2.016c-2.679 0-4.494-2.16-4.494-5.358 0-3.083 1.642-5.07 4.206-5.07 2.68 0 4.523 2.19 4.523 5.358 0 3.053-1.671 5.07-4.235 5.07zM902.233 806.979h2.304v-11.954h4.321v-1.93h-4.32v-3.025c0-1.786.835-2.708 2.419-2.708.749 0 1.728.144 2.449.49l.49-1.729c-.894-.432-1.787-.72-2.766-.72-2.938 0-4.897 1.988-4.897 4.955v2.737h-2.074v1.93h2.074zM923.204 807.267c1.67 0 3.082-.605 4.148-1.642l.576 1.354h1.613v-21.288h-2.305v8.354c-.979-.806-2.247-1.239-3.716-1.239-3.917 0-6.51 2.939-6.51 7.346 0 4.263 2.478 7.115 6.194 7.115zm4.032-3.6c-.777 1.008-1.958 1.584-3.37 1.584-2.765 0-4.551-2.16-4.551-5.358 0-3.054 1.613-5.07 4.292-5.07 1.555 0 2.794.634 3.63 1.728zM940.574 807.267c1.584 0 3.312-.374 4.55-1.037l-.518-1.67a8.701 8.701 0 01-3.63.835c-2.937 0-4.781-1.757-5.127-4.725h9.68c.057-.432.114-1.44.114-1.987 0-3.486-2.304-5.877-5.732-5.877-3.86 0-6.481 3.025-6.481 7.288 0 4.436 2.736 7.173 7.144 7.173zm-4.753-8.325c.201-2.708 1.584-4.177 3.917-4.177 2.362 0 3.745 1.527 3.745 4.177zM954.285 807.123c.95 0 1.901-.23 2.564-.518l-.519-1.671c-.432.201-1.065.317-1.555.317-1.44 0-2.391-.922-2.391-2.305v-7.921h3.802v-1.93h-3.802v-4.062h-2.304v4.062h-1.873v1.93h1.873v8.238c0 2.305 1.67 3.86 4.205 3.86zM968.515 806.979h1.613v-9.016c0-3.313-1.958-5.157-5.588-5.157-1.815 0-3.774.49-5.271 1.326l.576 1.7c1.44-.635 2.88-.952 4.234-.952 2.477 0 3.745 1.038 3.745 3.083v.922c-6.222.057-8.93 1.353-8.93 4.32 0 2.478 1.844 4.062 4.695 4.062 1.758 0 3.256-.576 4.379-1.584zm-.691-3.111c-.864.864-2.132 1.383-3.572 1.383-1.844 0-3.053-.922-3.053-2.305 0-1.728 1.958-2.448 6.625-2.477zM974.68 806.979h2.304v-13.884h-2.304zm1.18-17.14c1.038 0 1.643-.604 1.643-1.642 0-1.037-.605-1.641-1.642-1.641s-1.642.604-1.642 1.641c0 1.038.605 1.642 1.642 1.642zM984.906 807.152c.749 0 1.642-.173 2.19-.461l-.52-1.613c-.345.144-.662.23-1.008.23-.979 0-1.498-.662-1.498-1.728V785.69h-2.304v18.177c0 1.988 1.239 3.284 3.14 3.284z" style="line-height:1.25;-inkscape-font-specification:'Cantarell, Normal';font-variant-ligatures:normal;font-variant-caps:normal;font-variant-numeric:normal;font-variant-east-asian:normal"/></g><path style="marker:none" fill="#99c1f1" d="M271.414 240.664h512v512h-512z"/><path d="M271.414 700.664h512" fill="none" stroke="#62a0ea" stroke-width="8"/><circle style="marker:none" cy="496.664" cx="527.414" fill="none" stroke="#fff" stroke-width="3.96" stroke-dasharray="3.96, 3.96" r="238.017" opacity=".285"/><rect style="marker:none" width="348.04" height="444.04" x="353.394" y="274.644" rx="34.804" ry="31.717" fill="none" stroke="#fff" stroke-width="3.96" stroke-dasharray="3.96, 3.96" opacity=".676"/><rect style="marker:none" width="444.04" height="348.04" x="305.394" y="354.644" rx="31.717" ry="34.804" fill="none" stroke="#fff" stroke-width="3.96" stroke-dasharray="3.96, 3.96" opacity=".441"/><rect width="28" height="28" x="755.414" y="780.664" rx=".532" ry=".532" fill="#1a5fb4"/><g transform="matrix(4 0 0 4 271.412 -448.136)" opacity=".41"><rect ry="8" rx="8" y="204" x="12" height="84" width="104" style="marker:none" fill="url(#f)"/><rect style="marker:none" width="104" height="96" x="12" y="184" rx="8" ry="8" fill="#a347ba"/><rect ry="3" rx="3" y="194" x="-108" height="80" width="88" style="marker:none" transform="scale(-1 1)" opacity=".2"/><path fill="#3d3846" d="M16 244h6v14h-6zm0-34h6v15h-6z"/><rect ry="3" rx="3" y="192" x="-108" height="80" width="88" style="marker:none" transform="scale(-1 1)" fill="url(#g)"/><circle transform="rotate(-90)" r="28" cy="64" cx="-233" fill="#613583"/><circle cx="-231" cy="64" r="28" transform="rotate(-90)" fill="url(#h)"/><path d="M19 241a3 1 0 00-3 1v14h6v-14a3 1 0 00-3-1z" fill="url(#i)"/><path style="marker:none" d="M19 255a3 1 0 00-3 1 3 1 0 003 1 3 1 0 001-.059V256h2a3 1 0 00-3-1zm0-8c-1.656 0-3 .447-3 1v2c0-.553 1.344-1 3-1 1.657 0 3 .447 3 1v-2c0-.553-1.343-1-3-1zm1.198 2.916l-.057.008z" fill="#3d3846"/><path d="M19 208a3 1 0 00-3 1v14h6v-14a3 1 0 00-3-1z" fill="url(#j)"/><path d="M19 222a3 1 0 00-3 1 3 1 0 003 1 3 1 0 001-.059V223h2a3 1 0 00-3-1zm0-8c-1.656 0-3 .447-3 1v2c0-.553 1.344-1 3-1 1.657 0 3 .447 3 1v-2c0-.553-1.343-1-3-1zm1.198 2.916l-.057.008z" style="marker:none" fill="#3d3846"/><circle r="24" cy="64" cx="-231" transform="rotate(-90)" fill="url(#k)"/><path d="M68 215h-8v10h4v2l-4 2v18h8v-10l-4-2 4-2z" fill="#3d3846"/></g><rect style="marker:none" width="408.001" height="408.001" x="323.413" y="292.663" rx="27.941" ry="27.941" fill="none" stroke="#fff" stroke-width="7.922"/><rect width="28" height="28" x="755.414" y="752.664" rx=".532" ry=".532" opacity=".3" fill="#1a5fb4"/><rect width="28" height="28" x="727.414" y="780.664" rx=".532" ry=".532" opacity=".299" fill="#1a5fb4"/><path style="marker:none" fill="#99c1f1" d="M1071.414 504.664h256v256h-256z"/><g transform="translate(1060.453 121.587) scale(2.16346)"><rect ry="8" rx="8" y="204" x="12" height="84" width="104" style="marker:none" fill="url(#l)"/><rect style="marker:none" width="104" height="96" x="12" y="184" rx="8" ry="8" fill="#a347ba"/><rect ry="3" rx="3" y="194" x="-108" height="80" width="88" style="marker:none" transform="scale(-1 1)" opacity=".2"/><path fill="#3d3846" d="M16 244h6v14h-6zm0-34h6v15h-6z"/><rect ry="3" rx="3" y="192" x="-108" height="80" width="88" style="marker:none" transform="scale(-1 1)" fill="url(#m)"/><circle transform="rotate(-90)" r="28" cy="64" cx="-233" fill="#613583"/><circle cx="-231" cy="64" r="28" transform="rotate(-90)" fill="url(#n)"/><path d="M19 241a3 1 0 00-3 1v14h6v-14a3 1 0 00-3-1z" fill="url(#o)"/><path style="marker:none" d="M19 255a3 1 0 00-3 1 3 1 0 003 1 3 1 0 001-.059V256h2a3 1 0 00-3-1zm0-8c-1.656 0-3 .447-3 1v2c0-.553 1.344-1 3-1 1.657 0 3 .447 3 1v-2c0-.553-1.343-1-3-1zm1.198 2.916l-.057.008z" fill="#3d3846"/><path d="M19 208a3 1 0 00-3 1v14h6v-14a3 1 0 00-3-1z" fill="url(#p)"/><path d="M19 222a3 1 0 00-3 1 3 1 0 003 1 3 1 0 001-.059V223h2a3 1 0 00-3-1zm0-8c-1.656 0-3 .447-3 1v2c0-.553 1.344-1 3-1 1.657 0 3 .447 3 1v-2c0-.553-1.343-1-3-1zm1.198 2.916l-.057.008z" style="marker:none" fill="#3d3846"/><circle r="24" cy="64" cx="-231" transform="rotate(-90)" fill="url(#q)"/><path d="M68 215h-8v10h4v2l-4 2v18h8v-10l-4-2 4-2z" fill="#3d3846"/></g><path style="marker:none" fill="#99c1f1" d="M1199.414 272.664h128v128h-128z"/><g transform="translate(1199.892 102.311) scale(.99533)"><rect ry="8" rx="8" y="204" x="12" height="84" width="104" style="marker:none" fill="url(#r)"/><rect style="marker:none" width="104" height="96" x="12" y="184" rx="8" ry="8" fill="#a347ba"/><rect ry="3" rx="3" y="194" x="-108" height="80" width="88" style="marker:none" transform="scale(-1 1)" opacity=".2"/><path fill="#3d3846" d="M16 244h6v14h-6zm0-34h6v15h-6z"/><rect ry="3" rx="3" y="192" x="-108" height="80" width="88" style="marker:none" transform="scale(-1 1)" fill="url(#s)"/><circle transform="rotate(-90)" r="28" cy="64" cx="-233" fill="#613583"/><circle cx="-231" cy="64" r="28" transform="rotate(-90)" fill="url(#t)"/><path d="M19 241a3 1 0 00-3 1v14h6v-14a3 1 0 00-3-1z" fill="url(#u)"/><path style="marker:none" d="M19 255a3 1 0 00-3 1 3 1 0 003 1 3 1 0 001-.059V256h2a3 1 0 00-3-1zm0-8c-1.656 0-3 .447-3 1v2c0-.553 1.344-1 3-1 1.657 0 3 .447 3 1v-2c0-.553-1.343-1-3-1zm1.198 2.916l-.057.008z" fill="#3d3846"/><path d="M19 208a3 1 0 00-3 1v14h6v-14a3 1 0 00-3-1z" fill="url(#v)"/><path d="M19 222a3 1 0 00-3 1 3 1 0 003 1 3 1 0 001-.059V223h2a3 1 0 00-3-1zm0-8c-1.656 0-3 .447-3 1v2c0-.553 1.344-1 3-1 1.657 0 3 .447 3 1v-2c0-.553-1.343-1-3-1zm1.198 2.916l-.057.008z" style="marker:none" fill="#3d3846"/><circle r="24" cy="64" cx="-231" transform="rotate(-90)" fill="url(#w)"/><path d="M68 215h-8v10h4v2l-4 2v18h8v-10l-4-2 4-2z" fill="#3d3846"/></g></g></svg>