<svg xmlns="http://www.w3.org/2000/svg" xmlns:xlink="http://www.w3.org/1999/xlink" width="800" height="360" viewBox="0 0 211.667 95.25"><defs><linearGradient y2="-68" x2="415.5" y1="-68" x1="320.5" gradientTransform="translate(115.032 109.18) scale(.25263)" gradientUnits="userSpaceOnUse" id="H" xlink:href="#a"/><linearGradient id="a"><stop offset="0" stop-color="#a51d2d"/><stop offset="1" stop-color="#ce1921"/></linearGradient><linearGradient y2="-180" x2="336" y1="62" x1="336" gradientTransform="matrix(.25 0 0 .25 8 225)" gradientUnits="userSpaceOnUse" id="I" xlink:href="#b"/><linearGradient id="b"><stop offset="0" stop-color="#d81d25"/><stop offset="1" stop-color="#f66151"/></linearGradient><linearGradient gradientUnits="userSpaceOnUse" y2="276" x2="64" y1="246.969" x1="45.999" id="J" xlink:href="#c"/><linearGradient id="c"><stop offset="0" stop-color="#613583"/><stop offset="1" stop-color="#a347ba"/></linearGradient><linearGradient gradientUnits="userSpaceOnUse" y2="196" x2="64" y1="225.608" x1="82" id="K" xlink:href="#d"/><linearGradient id="d"><stop offset="0" stop-color="#e5a50a"/><stop offset="1" stop-color="#f6d32d"/></linearGradient><linearGradient gradientUnits="userSpaceOnUse" y2="256.785" x2="28" y1="225.608" x1="45.999" id="L" xlink:href="#e"/><linearGradient id="e"><stop offset="0" stop-color="#1a5fb4"/><stop offset="1" stop-color="#3584e4"/></linearGradient><linearGradient gradientUnits="userSpaceOnUse" y2="216" x2="100" y1="246.393" x1="82.001" id="M" xlink:href="#f"/><linearGradient id="f"><stop offset="0" stop-color="#c64600"/><stop offset="1" stop-color="#ff7800"/></linearGradient><linearGradient gradientUnits="userSpaceOnUse" y2="215.216" x2="28" y1="215.215" x1="63.999" id="N" xlink:href="#g"/><linearGradient id="g"><stop offset="0" stop-color="#26a269"/><stop offset="1" stop-color="#33d17a"/></linearGradient><linearGradient gradientUnits="userSpaceOnUse" y2="258" x2="100" y1="257.074" x1="64.499" id="O" xlink:href="#h"/><linearGradient id="h"><stop offset="0" stop-color="#a51d2d"/><stop offset="1" stop-color="#e01b24"/></linearGradient><linearGradient y2="260" x2="426.276" y1="260" x1="10.276" gradientTransform="matrix(.19235 0 0 .25 52.005 209)" gradientUnits="userSpaceOnUse" id="P" xlink:href="#i"/><linearGradient id="i"><stop offset="0" stop-color="#9a9996"/><stop offset=".05" stop-color="#c0bfbc"/><stop offset=".1" stop-color="#9a9996"/><stop offset=".9" stop-color="#9a9996"/><stop offset=".95" stop-color="#c0bfbc"/><stop offset="1" stop-color="#9a9996"/></linearGradient><linearGradient id="j"><stop offset="0" stop-color="#e01b24"/><stop offset=".536" stop-color="#a51d2d"/><stop offset="1" stop-color="#241f31"/></linearGradient><linearGradient id="k"><stop offset="0" stop-color="#f5c211"/><stop offset=".529" stop-color="#f0a014"/><stop offset="1" stop-color="#e01b24"/></linearGradient><linearGradient y2="185.897" x2="71.047" y1="181.897" x1="71.047" gradientUnits="userSpaceOnUse" id="Q" xlink:href="#l"/><linearGradient id="l"><stop offset="0" stop-color="#77767b"/><stop offset=".075" stop-color="#9a9996"/><stop offset=".352" stop-color="#c1bfb9"/><stop offset="1" stop-color="#77767b"/></linearGradient><linearGradient y2="186.897" x2="37.047" y1="180.897" x1="37.047" gradientUnits="userSpaceOnUse" id="R" xlink:href="#m"/><linearGradient id="m"><stop offset="0" stop-color="#77767b"/><stop offset=".075" stop-color="#9a9996"/><stop offset=".352" stop-color="#deddda"/><stop offset="1" stop-color="#77767b"/></linearGradient><linearGradient id="n"><stop offset="0" stop-color="#fefefe"/><stop offset=".6" stop-color="#bbbab7"/><stop offset="1" stop-color="#5e5c64"/></linearGradient><linearGradient gradientUnits="userSpaceOnUse" y2="203" x2="32" y1="203" x1="28" id="T" xlink:href="#o"/><linearGradient id="o"><stop offset="0" stop-color="#9a9996"/><stop offset=".119" stop-color="#c0bfbc"/><stop offset=".351" stop-color="#deddda"/><stop offset=".602" stop-color="#d2d1ce"/><stop offset=".853" stop-color="#bbbab7"/><stop offset="1" stop-color="#9a9996"/></linearGradient><linearGradient y2="-449.394" x2="536.596" y1="-449.394" x1="88.596" gradientTransform="matrix(.25 0 0 .25 -14.149 400.348)" gradientUnits="userSpaceOnUse" id="V" xlink:href="#p"/><linearGradient id="p"><stop offset="0" stop-color="#ab7007"/><stop offset=".036" stop-color="#f5b918"/><stop offset=".071" stop-color="#bd7b08"/><stop offset=".929" stop-color="#bd7b08"/><stop offset=".964" stop-color="#63452c"/><stop offset="1" stop-color="#ab7007"/></linearGradient><linearGradient y2="-449.394" x2="536.596" y1="-449.394" x1="88.596" gradientTransform="matrix(.25 0 0 .25 -14.149 400.348)" gradientUnits="userSpaceOnUse" id="W" xlink:href="#q"/><linearGradient id="q"><stop offset="0" stop-color="#ab7007"/><stop offset=".036" stop-color="#f5b918"/><stop offset=".071" stop-color="#3d2b1b"/><stop offset=".929" stop-color="#3d2b1b"/><stop offset=".964" stop-color="#765335"/><stop offset="1" stop-color="#3d2b1b"/></linearGradient><linearGradient id="r"><stop offset="0" stop-color="#f6f5f4"/><stop offset="1" stop-color="#deddda"/></linearGradient><linearGradient xlink:href="#s" id="Y" x1="64" y1="236" x2="64" y2="220" gradientUnits="userSpaceOnUse"/><linearGradient id="s"><stop offset="0" stop-color="#c0bfbc"/><stop offset="1" stop-color="#9a9996"/></linearGradient><linearGradient xlink:href="#t" id="ad" gradientUnits="userSpaceOnUse" x1="32" y1="172" x2="480" y2="172" gradientTransform="translate(0 40)"/><linearGradient id="t"><stop offset="0" stop-color="#2ec27e"/><stop offset=".036" stop-color="#57e389"/><stop offset=".071" stop-color="#2ec27e"/><stop offset=".929" stop-color="#2ec27e"/><stop offset=".964" stop-color="#57e389"/><stop offset="1" stop-color="#2ec27e"/></linearGradient><linearGradient id="u"><stop offset="0"/><stop offset="1" stop-opacity="0"/></linearGradient><linearGradient y2="-449.394" x2="536.596" y1="-449.394" x1="88.596" gradientTransform="matrix(.19643 0 0 .13158 10.597 195.13)" gradientUnits="userSpaceOnUse" id="C" xlink:href="#v"/><linearGradient id="v"><stop offset="0" stop-color="#77767b"/><stop offset=".023" stop-color="#c0bfbc"/><stop offset=".045" stop-color="#9a9996"/><stop offset=".955" stop-color="#9a9996"/><stop offset=".977" stop-color="#c0bfbc"/><stop offset="1" stop-color="#77767b"/></linearGradient><linearGradient gradientUnits="userSpaceOnUse" y2="38.252" x2="96.983" y1="65.487" x1="41.061" id="D" xlink:href="#w"/><linearGradient id="w"><stop offset="0" stop-color="#f7618f"/><stop offset="1" stop-color="#6c2fa3"/></linearGradient><linearGradient gradientUnits="userSpaceOnUse" y2="96" x2="49" y1="96" x1="43" id="E" xlink:href="#x"/><linearGradient id="x"><stop offset="0" stop-color="#3d3846"/><stop offset="1" stop-color="#3d3846"/></linearGradient><linearGradient y2="88" x2="48" y1="84" x1="48" gradientUnits="userSpaceOnUse" id="F" xlink:href="#y"/><linearGradient id="y"><stop offset="0" stop-color="#3d3846"/><stop offset=".7" stop-color="#5e5c64"/><stop offset="1" stop-color="#5e5c64"/></linearGradient><linearGradient xlink:href="#z" id="af" gradientUnits="userSpaceOnUse" gradientTransform="matrix(.25 0 0 .25 -15.5 297.009)" x1="513.5" y1="-88.536" x2="277.5" y2="-88.536"/><linearGradient id="z"><stop offset="0" stop-color="#d5d3cf"/><stop offset=".036" stop-color="#e4e1de"/><stop offset=".071" stop-color="#d5d3cf"/><stop offset=".929" stop-color="#d5d3cf"/><stop offset=".964" stop-color="#e4e1de"/><stop offset="1" stop-color="#d5d3cf"/></linearGradient><linearGradient xlink:href="#z" id="ag" gradientUnits="userSpaceOnUse" gradientTransform="matrix(.25 0 0 .25 -22 121.009)" x1="120" y1="619.964" x2="568" y2="619.964"/><linearGradient xlink:href="#A" id="ah" x1="106.712" y1="227" x2="58.712" y2="227" gradientUnits="userSpaceOnUse" gradientTransform="translate(-6.712 -3)"/><linearGradient id="A"><stop offset="0" stop-color="#26a269"/><stop offset="1" stop-color="#26a269" stop-opacity="0"/></linearGradient><linearGradient xlink:href="#B" id="ai" x1="23.712" y1="268.75" x2="27.212" y2="268.75" gradientUnits="userSpaceOnUse" gradientTransform="translate(-6.712 -4)"/><linearGradient id="B"><stop offset="0" stop-color="#e54b57"/><stop offset="1" stop-color="#a51d2d"/></linearGradient><radialGradient gradientTransform="matrix(.9453 .2533 -.26737 .99782 -14.508 -46.648)" gradientUnits="userSpaceOnUse" r="3" fy="-92.152" fx="183.217" cy="-92.152" cx="183.217" id="S" xlink:href="#n"/><radialGradient xlink:href="#r" id="X" cx="64.496" cy="219.267" fx="64.496" fy="219.267" r="60" gradientUnits="userSpaceOnUse"/><radialGradient gradientUnits="userSpaceOnUse" r="13.818" fy="236" fx="34.313" cy="236" cx="34.313" id="Z" xlink:href="#j"/><radialGradient gradientTransform="matrix(.68926 0 0 .68926 10.663 73.336)" gradientUnits="userSpaceOnUse" r="2.687" fy="236" fx="34.313" cy="236" cx="34.313" id="aa" xlink:href="#k"/><radialGradient xlink:href="#j" id="ab" gradientUnits="userSpaceOnUse" cx="34.313" cy="236" fx="34.313" fy="236" r="13.818"/><radialGradient xlink:href="#k" id="ac" gradientUnits="userSpaceOnUse" gradientTransform="matrix(.68926 0 0 .68926 10.663 73.336)" cx="34.313" cy="236" fx="34.313" fy="236" r="2.687"/><radialGradient xlink:href="#u" id="ae" gradientUnits="userSpaceOnUse" gradientTransform="matrix(.18728 0 0 .10571 30.09 82.3)" cx="448.01" cy="51.544" fx="448.01" fy="51.544" r="224"/><clipPath id="G" clipPathUnits="userSpaceOnUse"><path d="M64-148h64l64-64 64 64h192c17.728 0 32 14.272 32 32v288c0 17.728-14.272 32-32 32H256l-64-64-64 64H64c-17.728 0-32-14.272-32-32v-288c0-17.728 14.409-34.199 32-32z" style="marker:none" fill="none" stroke="#000" stroke-width="4" stroke-linecap="round" stroke-linejoin="round"/></clipPath><clipPath id="U" clipPathUnits="userSpaceOnUse"><path fill="#63452c" stroke-width="4" stroke-linecap="round" stroke-linejoin="round" d="M6 196h74v98H6z"/></clipPath></defs><g transform="matrix(.26458 0 0 .26458 62.489 5.82)"><rect ry="8" rx="8" y="24" x="28" height="76" width="88" style="marker:none" fill="#9a9996"/><path fill="#3d3846" d="M28 82h88v8H28z"/><rect ry="8" rx="8" y="96" x="28" height="40" width="88" style="marker:none" fill="url(#C)"/><rect style="marker:none" width="88" height="44" x="28" y="84" rx="8" ry="8" fill="#c0bfbc"/><rect ry="2" rx="2" y="30" x="34" height="48" width="76"/><path fill="url(#D)" d="M36 32h72v44H36z"/><g fill="#f6f5f4"><rect width="26" height="4" x="40" y="36" rx="2"/><rect y="44" x="50" height="4" width="16" rx="2"/><rect width="6" height="4" x="70" y="44" rx="2"/><rect y="52" x="55" height="4" width="30" rx="2"/><rect y="52" x="89" height="4" width="6" rx="2"/><rect width="6" height="4" x="99" y="52" rx="2"/><rect width="15" height="4" x="45" y="60" rx="2"/><rect y="60" x="85" height="4" width="15" rx="2"/><rect width="18" height="4" x="55" y="68" rx="2"/><rect y="68" x="40" height="4" width="6" rx="2"/><rect width="6" height="4" x="87" y="68" rx="2"/><rect y="68" x="77" height="4" width="6" rx="2"/></g><rect ry="4" rx="4" y="84" x="28" height="28" width="88" style="marker:none" fill="#c0bfbc"/><rect rx="2" width="72" height="36" x="36" y="92" ry="2" fill="#9a9996"/><rect ry="2" y="94" x="36" height="34" width="72" rx="2" fill="#fff"/><path fill="#deddda" d="M36 126h72v4H36z"/><g stroke-width="1.195" fill="#3d3846"><path opacity=".4" d="M53 102h1v28h-1zM72 102h1v28h-1zM90 102h1v28h-1z"/></g><g transform="matrix(1.66667 0 0 1 -23.667 12)" stroke-width=".775"><rect ry="4" rx="2.4" y="88" x="43" height="16" width="6" fill="url(#E)"/><rect width="6" height="17" x="43" y="83" rx="2.4" ry="4" fill="#5e5c64"/><path fill="#5e5c64" d="M43 82h6v14h-6z"/></g><g transform="matrix(1.66667 0 0 1 -3.667 12)" stroke-width=".775"><rect width="6" height="16" x="43" y="88" rx="2.4" ry="4" fill="#3d3846"/><rect ry="4" rx="2.4" y="83" x="43" height="17" width="6" fill="#5e5c64"/><path fill="#5e5c64" d="M43 82h6v14h-6z"/></g><g transform="matrix(1.66667 0 0 1 14.333 12)" stroke-width=".775"><rect ry="4" rx="2.4" y="88" x="43" height="16" width="6" fill="#3d3846"/><rect width="6" height="17" x="43" y="83" rx="2.4" ry="4" fill="#5e5c64"/><path fill="#5e5c64" d="M43 82h6v14h-6z"/></g><rect rx="2" width="63.822" height="6" x="40" y="82" ry="2" fill="url(#F)"/><circle cx="72" cy="27" r="1" fill="#241f31"/></g><g clip-path="url(#G)" transform="matrix(.06615 0 0 .06615 20.638 26.723)"><path d="M256 124h160v-272h96v384H256l-64-64-64 64H0V124h128l64-64z" style="marker:none" fill="#cdab8f"/><path style="marker:none" d="M0 123.975l128 .05V-148H0z" fill="#55a7eb"/><path d="M144-164v272l48-48 64 64.058h144L416 108v-256H256l-64-64z" fill="#2ec27e"/><path d="M399.898-147.89v238c0 10.027-9.373 17.948-16.949 17.948H256L192 44.59l-39.375 39.535L152-211.942h-24V108l-128 .058v32.102h127L192 76l64 64.16h126.95c26.424 0 47.962-22.048 49.05-50.05v-238z" style="line-height:normal;font-variant-ligatures:normal;font-variant-position:normal;font-variant-caps:normal;font-variant-numeric:normal;font-variant-alternates:normal;font-feature-settings:normal;text-indent:0;text-align:start;text-decoration-line:none;text-decoration-style:solid;text-decoration-color:#000;text-transform:none;text-orientation:mixed;white-space:normal;shape-padding:0;isolation:auto;mix-blend-mode:normal;solid-color:#000;solid-opacity:1" color="#000" font-weight="400" font-family="sans-serif" overflow="visible" fill="#fff"/><path d="M128 267.975l64 .05V-212h-64z" style="marker:none" opacity=".3" fill="#fff"/><path style="marker:none" d="M192 267.975l64 .05V-212h-64z" opacity=".15"/></g><g transform="matrix(.26458 0 0 .26458 20.638 -35.983)"><circle cx="208" cy="92" transform="matrix(0 1 1 0 0 0)" r="12" fill="url(#H)"/><path d="M92 182a27.912 27.912 0 00-19.799 8.201c-10.934 10.935-10.934 28.663 0 39.598l19.8 19.8s13.82-13.823 19.798-19.8c10.935-10.935 10.935-28.663 0-39.598A27.912 27.912 0 0092 182zm0 18a10 10 0 0110 10 10 10 0 01-10 10 10 10 0 01-10-10 10 10 0 0110-10z" style="marker:none" fill="#a51d2d"/><path style="marker:none" d="M92 180a27.912 27.912 0 00-19.799 8.201c-10.934 10.935-10.934 28.663 0 39.598l19.8 19.8s13.82-13.823 19.798-19.8c10.935-10.935 10.935-28.663 0-39.598A27.912 27.912 0 0092 180zm0 18a10 10 0 0110 10 10 10 0 01-10 10 10 10 0 01-10-10 10 10 0 0110-10z" fill="url(#I)"/></g><path d="M174.096 24.238v5.5l-4.762 2.749-4.763-2.75v-5.5l4.763-2.749z" fill="#3d3846"/><path d="M159.809 21.488v10.999" fill="none" stroke="#33d17a" stroke-width="9.52488"/><path d="M169.334 37.986l-9.525-5.5" fill="none" stroke="#3584e4" stroke-width="9.52488"/><path d="M169.334 37.986l9.524-5.5" fill="none" stroke="#a347ba" stroke-width="9.52488"/><path d="M178.859 21.488v10.998" fill="none" stroke="#e01b24" stroke-width="9.52488"/><path d="M178.859 21.488l-9.526-5.499" fill="none" stroke="#ff7800" stroke-width="9.52488"/><path d="M159.809 21.488l9.524-5.499" fill="none" stroke="#f6d32d" stroke-width="9.52488"/><path d="M64 295.57c9.941 0 18-8.06 18-18a18 18 0 00-7.744-14.766l-9.258-5.442-.998-.576a419.435 419.435 0 01-8.534-4.96A18 18 0 0146 236v41.568c0 9.941 8.059 18 18 18zm-17.934-19.452c.024-.283.065-.562.102-.842-.04.28-.074.56-.102.842zm.938-4.412c.026-.075.045-.154.072-.229l.004-.002-.076.23z" fill="url(#J)" transform="matrix(.26458 0 0 .26458 152.4 -35.454)"/><path d="M64 176.432c-9.941 0-18 8.059-18 18a18 18 0 007.744 14.765l9.258 5.442.998.576a419.435 419.435 0 018.534 4.96A18 18 0 0182 236v-41.568c0-9.941-8.059-18-18-18zm17.934 19.45c-.024.284-.065.563-.102.843.04-.28.074-.56.102-.842zm-.938 4.413c-.026.075-.045.153-.072.228l-.004.002.076-.23z" fill="url(#K)" transform="matrix(.26458 0 0 .26458 152.4 -35.454)"/><path d="M12.412 265.785c4.97 8.61 15.98 11.559 24.588 6.588a18 18 0 008.916-14.09l.083-10.737v-1.153c-.03-3.185-.017-6.864.03-9.87a18 18 0 018.97-16.11l-9 5.195-18 10.393-4.068 2.349-4.93 2.846c-8.61 4.97-11.56 15.98-6.589 24.589zm7.878-25.257c.257-.12.52-.224.78-.333-.262.105-.522.216-.78.333zm4.29-1.394c.078-.015.156-.038.234-.052l.004.002-.238.05z" fill="url(#L)" transform="matrix(.26458 0 0 .26458 152.4 -35.454)"/><path d="M115.588 206.216c-4.97-8.61-15.98-11.559-24.588-6.588a18 18 0 00-8.916 14.089l-.083 10.738v1.153c.03 3.185.017 6.864-.03 9.87a18 18 0 01-8.97 16.11l9-5.196L100 236l4.068-2.349 4.93-2.846c8.61-4.971 11.56-15.98 6.589-24.589zm-7.878 25.257c-.257.12-.52.224-.78.333.262-.105.522-.216.78-.333zm-4.29 1.394c-.078.015-.156.037-.234.051l-.004-.002c.08-.015.158-.032.238-.049z" fill="url(#M)" transform="matrix(.26458 0 0 .26458 152.4 -35.454)"/><path d="M12.412 206.216c-4.97 8.61-2.02 19.618 6.588 24.588a18 18 0 0016.66.677L45 226.184l.998-.576a419.443 419.443 0 018.563-4.91A18 18 0 0173 220.412l-9-5.197-18.001-10.392-4.068-2.349-4.93-2.846c-8.61-4.971-19.619-2.021-24.59 6.588zm25.812-5.805c.233.162.454.337.678.509a18.002 18.002 0 00-.678-.51zm3.352 3.018c.052.06.11.115.162.176v.004l-.162-.18z" fill="url(#N)" transform="matrix(.26458 0 0 .26458 152.4 -35.454)"/><path d="M115.588 265.785c4.97-8.61 2.02-19.618-6.588-24.589a18 18 0 00-16.66-.676L83 245.817l-.998.576a419.416 419.416 0 01-8.563 4.91A18 18 0 0155 251.59l9 5.196 18.001 10.393 4.068 2.349 4.93 2.846c8.61 4.97 19.619 2.021 24.59-6.588zm-25.812 5.805c-.233-.162-.454-.337-.678-.509.222.175.448.345.678.51zm-3.352-3.018c-.052-.06-.11-.116-.162-.177v-.004l.162.182z" fill="url(#O)" transform="matrix(.26458 0 0 .26458 152.4 -35.454)"/><path d="M164.571 24.238v5.5l4.763 2.749 4.762-2.75v-5.5l-4.762-2.749z" fill="#241f31"/><g transform="matrix(.26458 0 0 .26458 12.7 12.17)"><rect style="marker:none" width="80" height="84" x="54" y="188" rx="8" ry="8" fill="url(#P)"/><rect ry="8" rx="8" y="160" x="54" height="106" width="80" style="marker:none" fill="#deddda"/><rect y="170" x="64" height="14" width="60.04" style="marker:none" rx="4" ry="4" fill="#77767b"/><rect transform="scale(1 -1)" ry="4" rx="4" style="marker:none" width="60.04" height="16" x="64" y="-188" fill="#6fb182"/><g transform="translate(-64.448 -36.47)"><path d="M128.448 239.47v2c0 3.879 3.122 7 7 7s7-3.121 7-7v-2z" fill="#5e5c64"/><rect width="14" height="14" x="128.448" y="232.471" rx="9" ry="9" fill="#9a9996"/><path d="M151.458 239.47v2c0 3.879 3.122 7 7 7s7-3.121 7-7v-2z" fill="#5e5c64"/><rect ry="9" rx="9" y="232.471" x="151.448" height="14" width="14" fill="#9a9996"/><path d="M174.448 239.47v2c0 3.879 3.122 7 7 7s7-3.121 7-7v-2z" fill="#5e5c64"/><rect width="14" height="14" x="174.448" y="232.471" rx="9" ry="9" fill="#9a9996"/><path d="M128.448 261.47v2c0 3.879 3.122 7 7 7s7-3.121 7-7v-2zM151.458 261.47v2c0 3.879 3.122 7 7 7s7-3.121 7-7v-2z" fill="#3d3846"/><rect ry="9" rx="9" y="254.471" x="128.448" height="14" width="14" fill="#5e5c64"/><rect width="14" height="14" x="151.448" y="254.471" rx="9" ry="9" fill="#5e5c64"/><path d="M128.448 283.47v2c0 3.879 3.122 7 7 7s7-3.121 7-7v-2z" fill="#3d3846"/><rect width="14" height="14" x="128.448" y="276.471" rx="9" ry="9" fill="#5e5c64"/><path d="M151.458 283.47v2c0 3.879 3.122 7 7 7s7-3.121 7-7v-2z" fill="#3d3846"/><rect ry="9" rx="9" y="276.471" x="151.448" height="14" width="14" fill="#5e5c64"/><rect ry="7" rx="7" y="274.471" x="174.448" height="18" width="14" fill="#c64600"/><rect ry="7" rx="7" y="254.471" x="174.448" height="36" width="14" fill="#ff7800"/></g></g><g transform="matrix(.26458 0 0 .26458 152.4 6.88)"><g transform="rotate(-15 90.68 188.33)"><path d="M29.047 183.897h63" fill="none" stroke="url(#Q)" stroke-width="4"/><path d="M29.047 183.897h32" fill="none" stroke="url(#R)" stroke-width="6"/><path opacity=".2" d="M61.047 181.897h1v4h-1z"/><circle transform="rotate(90)" r="3" cx="183.897" cy="-92.047" fill="url(#S)"/></g><circle r="4" cy="200" cx="30" fill="#77767b"/><circle cx="30" cy="200" r="4" fill="#3d3846"/><path d="M29.97 197.973A2 2 0 0028 200v6a2 2 0 104 0v-6a2 2 0 00-2.03-2.027z" style="line-height:normal;font-variant-ligatures:normal;font-variant-position:normal;font-variant-caps:normal;font-variant-numeric:normal;font-variant-alternates:normal;font-feature-settings:normal;text-indent:0;text-align:start;text-decoration-line:none;text-decoration-style:solid;text-decoration-color:#000;text-transform:none;text-orientation:mixed;white-space:normal;shape-padding:0;isolation:auto;mix-blend-mode:normal;solid-color:#000;solid-opacity:1" color="#000" font-weight="400" font-family="sans-serif" overflow="visible" fill="url(#T)"/><rect ry="2" rx="2" y="204" x="24" height="6" width="12" fill="#63452c"/><g clip-path="url(#U)"><rect ry="8" rx="8" y="212" x="8" height="76" width="112" style="marker:none" fill="url(#V)"/><rect style="marker:none" width="112" height="72" x="8" y="208" rx="8" ry="8" fill="#e5a50a"/></g><path d="M80 218.021V288h32c4.432 0 8-3.568 8-8v-53.979c0-4.432-3.568-8-8-8z" style="marker:none" fill="url(#W)"/><path d="M80 208v72h32c4.432 0 8-3.568 8-8v-56c0-4.432-3.568-8-8-8z" style="marker:none" fill="#63452c"/><g transform="translate(0 -22)"><rect ry="8" rx="8" y="246" x="92" height="18" width="16" style="marker:none" fill="#bd7b08"/><circle r="8" cy="254" cx="100" style="marker:none" fill="#e5a50a"/><circle r="1.313" cy="249" cx="97" style="marker:none" fill="#63452c"/></g><rect width="6" height="6" x="92" y="248" rx="2" ry="2" fill="#bd7b08"/><rect ry="2" rx="2" y="248" x="92" height="4" width="6" fill="#e5a50a"/><rect ry="2" rx="2" y="248" x="102" height="6" width="6" fill="#bd7b08"/><rect width="6" height="4" x="102" y="248" rx="2" ry="2" fill="#e5a50a"/><rect ry="2" rx="2" y="258" x="92" height="6" width="6" fill="#bd7b08"/><rect width="6" height="4" x="92" y="258" rx="2" ry="2" fill="#e5a50a"/><rect width="6" height="6" x="102" y="258" rx="2" ry="2" fill="#bd7b08"/><rect ry="2" rx="2" y="258" x="102" height="4" width="6" fill="#e5a50a"/><path d="M44 222a22 22 0 00-12.602 4h25.23A22 22 0 0044 222zm-16.957 8a22 22 0 00-2.613 4h39.166a22 22 0 00-2.649-4zm-4.188 8a22 22 0 00-.755 4h43.79a22 22 0 00-.73-4zm-.746 8a22 22 0 00.73 4h42.306a22 22 0 00.755-4zm2.295 8a22 22 0 002.649 4h33.904a22 22 0 002.613-4zm6.967 8A22 22 0 0044 266a22 22 0 0012.602-4z" fill="#63452c"/></g><g transform="matrix(.26458 0 0 .26458 108.348 6.615)"><rect ry="56" rx="56" y="180" x="8.496" height="114" width="112" style="marker:none" fill="#d5d3cf"/><path d="M124.496 236a60 60 0 01-60 60 60 60 0 01-60-60 60 60 0 0160-60 60 60 0 0160 60z" style="marker:none" fill="url(#X)"/><rect width="96" height="35.832" x="16" y="217.666" rx="17.916" ry="17.916" fill="url(#Y)"/><path style="marker:none" d="M4.53 235.984A60 60 0 004.495 238a60 60 0 0060 60 60 60 0 0060-60 60 60 0 00-.033-1.984A60 60 0 0164.496 294 60 60 0 014.53 235.984z" fill="#d5d3cf"/><circle r="13.818" cy="236" cx="34.313" fill="url(#Z)"/><circle cx="34.313" cy="236" r="5.687"/><circle r="2.687" cy="236" cx="34.313" fill="url(#aa)"/><circle cx="34" cy="230.5" r="3.5" fill="#fff"/><g transform="translate(60)"><circle r="13.818" cy="236" cx="34.313" fill="url(#ab)"/><circle cx="34.313" cy="236" r="5.687"/><circle r="2.687" cy="236" cx="34.313" fill="url(#ac)"/><circle cx="34" cy="230.5" r="3.5" fill="#fff"/></g></g><g><g transform="matrix(.06615 0 0 .06615 64.558 67.469)"><rect ry="32" rx="32" y="4" x="32" height="240" width="448" fill="url(#ad)"/><rect width="448" height="240" x="32" y="-116" rx="32" ry="32" fill="#57e389"/><path fill="#2ec27e" d="M64-84h384V92H64z"/><circle cx="256" cy="4" r="56" fill="#57e389"/><g fill="#57e389"><circle cx="64" cy="-84" r="32"/><circle r="32" cy="92" cx="64"/><circle r="32" cy="-84" cx="448"/><circle cx="448" cy="92" r="32"/></g><rect width="192" height="80" x="160" y="-36" rx="24" ry="24" fill="#57e389"/><g fill="#f6f5f4" stroke-width="1.414"><path d="M208-116h96v360h-96z"/><path fill="#d5d3cf" d="M208 124h96v120h-96z"/></g><path d="M440 68c-17.673 0-37.589 15.234-32 32l8 24 56-56z" opacity=".1"/><path d="M448 60c-17.673 0-32 14.327-32 32v32l64-64z" fill="#8ff0a4"/><path d="M8 80v2c0 4.432 3.568 8 8 8h96c4.432 0 8-3.568 8-8v-2c0 4.432-3.568 8-8 8H16c-4.432 0-8-3.568-8-8zm0 4v2c0 4.432 3.568 8 8 8h96c4.432 0 8-3.568 8-8v-2c0 4.432-3.568 8-8 8H16c-4.432 0-8-3.568-8-8zm0 4v2c0 4.432 3.568 8 8 8h96c4.432 0 8-3.568 8-8v-2c0 4.432-3.568 8-8 8H16c-4.432 0-8-3.568-8-8zm0 4v2c0 4.432 3.568 8 8 8h96c4.432 0 8-3.568 8-8v-2c0 4.432-3.568 8-8 8H16c-4.432 0-8-3.568-8-8zm0 4v2c0 4.432 3.568 8 8 8h96c4.432 0 8-3.568 8-8v-2c0 4.432-3.568 8-8 8H16c-4.432 0-8-3.568-8-8zm0 4v2c0 4.432 3.568 8 8 8h96c4.432 0 8-3.568 8-8v-2c0 4.432-3.568 8-8 8H16c-4.432 0-8-3.568-8-8zm0 4v2c0 4.432 3.568 8 8 8h96c4.432 0 8-3.568 8-8v-2c0 4.432-3.568 8-8 8H16c-4.432 0-8-3.568-8-8zm0 4v2c0 4.432 3.568 8 8 8h96c4.432 0 8-3.568 8-8v-2c0 4.432-3.568 8-8 8H16c-4.432 0-8-3.568-8-8z" transform="matrix(4 0 0 4 0 -228)" opacity=".104" fill="url(#ae)"/></g></g><g transform="matrix(.26458 0 0 .26458 108.57 -35.316)"><rect style="marker:none" width="112" height="86" x="8" y="200" rx="8" ry="8" fill="#f6f5f4"/><path d="M64 236v40h44.994a3 3 0 003.006-3.006v-33.988a3 3 0 00-3.006-3.006z" style="marker:none" fill="url(#af)"/><path style="marker:none" d="M8 276v4c0 4.432 3.568 8 8 8h96c4.432 0 8-3.568 8-8v-4c0 4.432-3.568 8-8 8H16c-4.432 0-8-3.568-8-8z" fill="url(#ag)"/><rect ry="1.945" rx="1.945" y="208" x="16" height="24" width="96" style="marker:none" fill="#241f31"/><rect ry="0" rx="0" y="208" x="29" height="24" width="66" style="marker:none" fill="url(#ah)"/><path opacity=".623" fill="#26a269" d="M96 219h16v2H96z"/><path d="M94 220l-77-.002" opacity=".8" fill="none" stroke="#57e389" stroke-width="2" stroke-linecap="square"/><path d="M42 217.009v5.99M50 218v4M58 217v5.958M66 215v10M74 213v14M82 216v8M90 216v8" fill="none" stroke="#33d17a" stroke-width="4" stroke-linecap="round"/><path d="M42 219v2M50 220v0M58 219v2M66 218v4M74 217v6M82 218v4M90 219.041V221" fill="none" stroke="#f9f06b" stroke-width="4" stroke-linecap="round"/><path d="M64 234v38h44.994a3 3 0 003.006-3.006v-31.988a3 3 0 00-3.006-3.006z" style="marker:none" fill="#fff"/><path style="marker:none" d="M64 236v40H19.006A3 3 0 0116 272.994v-33.988A3 3 0 0119.006 236z" fill="url(#ai)"/><path style="marker:none" d="M64 236v38H19.006A3 3 0 0116 270.994v-31.988A3 3 0 0119.006 236z" fill="#e01b24"/><circle r="9" cy="256" cx="40" style="marker:none" fill="#fff"/><path d="M72 244v16l16-8zM88 244h6v16h-6zM98 244h6v16h-6z" style="marker:none" fill="#241f31"/><path style="marker:none" fill="#8ff0a4" d="M95 208h2v24h-2z"/><path d="M17.945 208a1.942 1.942 0 00-1.946 1.945v2c0-1.077.869-1.945 1.946-1.945h92.11c1.077 0 1.945.868 1.945 1.945v-2a1.942 1.942 0 00-1.945-1.945z" style="marker:none" fill="#241f31" fill-opacity=".374"/></g></svg>