<?xml version="1.0" encoding="UTF-8" standalone="no"?>
<svg
   height="150"
   width="800"
   version="1.1"
   id="svg12"
   sodipodi:docname="symbolic-inversion-dark.svg"
   inkscape:version="1.3 (0e150ed6c4, 2023-07-21)"
   xmlns:inkscape="http://www.inkscape.org/namespaces/inkscape"
   xmlns:sodipodi="http://sodipodi.sourceforge.net/DTD/sodipodi-0.dtd"
   xmlns="http://www.w3.org/2000/svg"
   xmlns:svg="http://www.w3.org/2000/svg">
  <defs
     id="defs12" />
  <sodipodi:namedview
     id="namedview12"
     pagecolor="#ffffff"
     bordercolor="#000000"
     borderopacity="0.25"
     inkscape:showpageshadow="2"
     inkscape:pageopacity="0.0"
     inkscape:pagecheckerboard="0"
     inkscape:deskcolor="#d1d1d1"
     inkscape:zoom="2.095"
     inkscape:cx="236.99284"
     inkscape:cy="56.801909"
     inkscape:window-width="1920"
     inkscape:window-height="1011"
     inkscape:window-x="0"
     inkscape:window-y="0"
     inkscape:window-maximized="1"
     inkscape:current-layer="svg12" />
  <path
     style="marker:none"
     color="#bebebe"
     overflow="visible"
     fill="none"
     d="M540 110h40v40h-40z"
     id="path2" />
  <path
     style="line-height:normal;-inkscape-font-specification:Sans;text-indent:0;text-align:start;text-decoration-line:none;text-transform:none;marker:none"
     d="M573.75 122.5l-2.5-2.5-12.5 12.5-6.25-6.25-5 5 11.25 11.25 17.5-17.5z"
     color="#000"
     font-weight="400"
     font-family="Sans"
     overflow="visible"
     fill="#26a269"
     id="path3" />
  <g
     color="#bebebe"
     id="g5">
    <path
       style="marker:none;fill:#ffffff;fill-opacity:1"
       overflow="visible"
       fill="none"
       d="M481 25h64v64h-64z"
       id="path4" />
    <path
       style="marker:none"
       d="M505 33c-2.2 0-4 1.8-4 4v4h-12c-2.208 0-4 1.8-4 4v32c0 2.2 1.792 4 4 4h48c2.208 0 4-1.8 4-4V45c0-2.2-1.792-4-4-4h-12v-4c0-2.2-1.8-4-4-4zm8 12c8.837 0 16 7.163 16 16s-7.163 16-16 16-16-7.163-16-16 7.163-16 16-16zm0 8a8 8 0 100 16 8 8 0 000-16z"
       overflow="visible"
       fill="#2e3436"
       id="path5" />
  </g>
  <g
     color="#bebebe"
     id="g7">
    <path
       style="marker:none"
       overflow="visible"
       fill="none"
       d="M566 25h64v64h-64z"
       id="path6" />
    <path
       style="marker:none"
       d="M590 33c-2.2 0-4 1.8-4 4v4h-12c-2.208 0-4 1.8-4 4v32c0 2.2 1.792 4 4 4h48c2.208 0 4-1.8 4-4V45c0-2.2-1.792-4-4-4h-12v-4c0-2.2-1.8-4-4-4zm8 12c8.837 0 16 7.163 16 16s-7.163 16-16 16-16-7.163-16-16 7.163-16 16-16zm0 8a8 8 0 100 16 8 8 0 000-16z"
       overflow="visible"
       fill="#fff"
       id="path7" />
  </g>
  <g
     id="g12">
    <path
       style="fill:#ffffff;fill-opacity:1;marker:none"
       overflow="visible"
       fill="none"
       d="m 481,25 h 64 v 64 h -64 z"
       id="path4-6"
       transform="translate(-354.033)" />
    <path
       style="marker:none"
       color="#bebebe"
       overflow="visible"
       fill="none"
       d="M126.966 25h64v64h-64z"
       id="path9" />
  </g>
  <path
     style="marker:none"
     d="M150.967 33c-2.2 0-4 1.8-4 4v4h-12c-2.208 0-4 1.8-4 4v32c0 2.2 1.792 4 4 4h48c2.208 0 4-1.8 4-4V45c0-2.2-1.792-4-4-4h-12v-4c0-2.2-1.8-4-4-4h-16zm8 12c8.836 0 16 7.163 16 16s-7.164 16-16 16c-8.837 0-16-7.163-16-16s7.163-16 16-16zm0 4c-6.628 0-12 5.373-12 12s5.372 12 12 12c6.627 0 12-5.373 12-12s-5.373-12-12-12zm3.533 6a2.5 2.5 0 012.5 2.5 2.5 2.5 0 01-2.5 2.5 2.5 2.5 0 01-2.5-2.5 2.5 2.5 0 012.5-2.5z"
     color="#bebebe"
     overflow="visible"
     fill="#2e3436"
     id="path10" />
  <g
     transform="matrix(-2.03124 0 0 2.03124 665.598 -1363.225)"
     id="g11">
    <rect
       ry=".151"
       rx=".144"
       y="727"
       x="221"
       height="16"
       width="16"
       style="marker:none"
       color="#bebebe"
       overflow="visible"
       fill="none"
       id="rect10" />
    <path
       style="line-height:normal;-inkscape-font-specification:Sans;text-indent:0;text-align:start;text-decoration-line:none;text-transform:none;marker:none"
       d="M229 728c-3.863 0-7 3.137-7 7s3.137 7 7 7 7-3.137 7-7-3.137-7-7-7zm0 2a4.93 4.93 0 012.75.813l-6.937 6.937A4.93 4.93 0 01224 735c0-2.76 2.241-5 5-5zm4.188 2.25A4.93 4.93 0 01234 735c0 2.76-2.24 5-5 5a4.93 4.93 0 01-2.75-.813z"
       color="#000"
       font-weight="400"
       font-family="Sans"
       overflow="visible"
       fill="#e01b24"
       id="path11" />
  </g>
  <path
     style="marker:none"
     d="M235.94 33c-2.2 0-4 1.8-4 4v4h-12c-2.209 0-4 1.8-4 4v32c0 2.2 1.791 4 4 4h48c2.207 0 4-1.8 4-4V45c0-2.2-1.793-4-4-4h-12v-4c0-2.2-1.8-4-4-4zm8 12c8.836 0 16 7.163 16 16s-7.164 16-16 16c-8.837 0-16-7.163-16-16s7.163-16 16-16zm0 4c-6.628 0-12 5.373-12 12s5.372 12 12 12c6.627 0 12-5.373 12-12s-5.373-12-12-12zm3.533 6a2.5 2.5 0 012.5 2.5 2.5 2.5 0 01-2.5 2.5 2.5 2.5 0 01-2.5-2.5 2.5 2.5 0 012.5-2.5z"
     color="#bebebe"
     overflow="visible"
     fill="#fff"
     id="path12" />
</svg>
