<svg xmlns="http://www.w3.org/2000/svg" id="svg127" width="1920" height="400" version="1.1" viewBox="0 0 1920 376.471"><style>circle,g,path,rect{fill:#3d3846}@media (prefers-color-scheme:dark){circle,g,path,rect{fill:#f6f5f4}}</style><defs id="defs12"><linearGradient id="c"><stop id="stop1" offset="0"/><stop id="stop2" offset="1" stop-opacity="0"/></linearGradient><linearGradient id="a"><stop id="stop3" offset="0" stop-color="#c0bfbc"/><stop id="stop4" offset=".895" stop-color="#c0bfbc"/><stop id="stop5" offset=".942" stop-color="#deddda"/><stop id="stop6" offset="1" stop-color="#9a9996"/></linearGradient><linearGradient id="b"><stop id="stop7" offset="0" stop-color="#2ec27e"/><stop id="stop8" offset=".036" stop-color="#57e389"/><stop id="stop9" offset=".071" stop-color="#2ec27e"/><stop id="stop10" offset=".929" stop-color="#2ec27e"/><stop id="stop11" offset=".964" stop-color="#57e389"/><stop id="stop12" offset="1" stop-color="#2ec27e"/></linearGradient></defs><g id="g15" transform="translate(315.126 -2350.579) scale(4.88926)"><circle id="circle12" cx="28" cy="209" r="1" transform="matrix(2 0 0 2 22 84)"/><path id="path13" d="M78 491c-2.814 0-5.172 1-7 2.586V495h1.48c1.52-1.264 3.22-2 5.52-2 2.3 0 4 .78 5.52 2H85v-1.381c-1.64-1.466-4.186-2.619-7-2.619z" color="#000" overflow="visible" style="marker:none"/><path id="path14" d="M78 494c-2.166 0-4.02.739-5 2v1h2c.789-.606 1.76-1 3-1 1.241 0 2.22.394 3 1h2v-1c-.995-1.223-2.873-2-5-2z" color="#000" overflow="visible" style="marker:none"/><path id="path15" d="M78 497c-1.257 0-2.216.312-3 1v1h6v-1c-.837-.672-1.742-1-3-1z" color="#000" font-family="Sans" font-weight="400" overflow="visible" style="line-height:normal;-inkscape-font-specification:Sans;text-indent:0;text-align:start;text-decoration-line:none;text-transform:none;marker:none"/></g><g id="g21" fill="none"><path id="path21" d="M526.943 172.896c-.491.006-.875.28-1.095.52-.22.24-.351.48-.47.727-.235.493-.403 1.033-.571 1.546-.168.514-.338 1.003-.475 1.28-.022.044-.02.035-.04.066l-3.706-.033a1.05 1.05 0 0 0-1.012.738c-.246.792.093 1.312.367 1.764.275.452.62.876.971 1.29.35.416.705.817.97 1.145.267.33.43.654.401.56-.082-.262-.018.045-.125.417-.106.372-.285.86-.457 1.36-.172.499-.342 1.003-.426 1.52a2.505 2.505 0 0 0-.015.843c.052.317.228.739.603 1.004.37.26.792.295 1.104.26.312-.036.565-.128.812-.235.495-.213.964-.508 1.424-.805.46-.296.906-.596 1.26-.8.352-.205.682-.248.457-.25-.257-.003.076.04.416.253.34.213.77.523 1.213.83.443.308.892.613 1.37.838.24.113.488.213.802.254.314.042.757.007 1.127-.27a1.05 1.05 0 0 0 .12-.107c.535-.544.585-1.293.505-1.843-.08-.55-.266-1.044-.444-1.516-.177-.473-.351-.92-.445-1.27-.093-.347-.071-.567-.074-.558v-.002c-.056.17.092-.12.375-.4.285-.284.677-.633 1.066-1.014.39-.381.78-.788 1.088-1.276.308-.487.587-1.168.336-1.91a1.05 1.05 0 0 0-.984-.713l-3.71-.03c-.02-.035-.02-.027-.042-.073-.144-.295-.323-.795-.502-1.319-.18-.523-.36-1.068-.604-1.56a2.859 2.859 0 0 0-.474-.72c-.22-.237-.607-.518-1.116-.51zm.024 2.989c.064.177.119.291.185.484.18.522.36 1.067.6 1.559.12.246.25.482.465.718.214.237.587.523 1.097.528l2.442.021c-.104.112-.154.196-.274.313-.343.336-.73.68-1.076 1.023-.346.344-.68.605-.888 1.227a1.05 1.05 0 0 0 0 .002c-.22.658-.102 1.243.039 1.767.14.525.34 1.018.507 1.463.073.194.091.302.145.469-.164-.105-.283-.161-.465-.287-.418-.29-.86-.613-1.295-.885-.435-.272-.78-.564-1.506-.572-.714-.007-1.082.27-1.533.531-.45.261-.909.574-1.344.854-.196.126-.327.185-.504.289.05-.158.064-.257.124-.43.162-.472.35-.975.49-1.465.14-.49.331-.914.11-1.623-.176-.558-.459-.864-.772-1.252-.314-.388-.672-.79-.998-1.178-.104-.122-.155-.208-.248-.326l2.33.02a1.05 1.05 0 0 0 .023 0c.478-.006.867-.262 1.098-.5.23-.239.37-.483.494-.733.248-.499.418-1.042.588-1.56.06-.183.108-.289.166-.457z" style="color:#000;stroke-linejoin:round;-inkscape-stroke:none" transform="matrix(4.74148 -.03808 .03946 4.57518 -1257.398 -619.826)"/></g><g id="g33" color="#bebebe"><path id="path33" d="M343.553 285.222a2.446 2.446 0 0 0-2.446 2.446v14.516c0 9.624 6.152 17.72 14.668 20.78v6.264h-9.78c-2.76 0-4.888 2.396-4.888 4.888v4.89h44.006v-4.89c0-2.856-2.33-4.888-4.89-4.888h-9.78v-6.266c8.52-3.058 14.67-11.154 14.67-20.78v-14.514a2.445 2.445 0 0 0-4.89 0c0 .338.03.624.152.916v13.6a17.216 17.216 0 0 1-17.264 17.264c-9.546 0-17.112-7.66-17.112-17.264v-14.516a2.445 2.445 0 0 0-2.446-2.444zm19.556-19.62a12.196 12.196 0 0 1 12.222 12.224v24.51a12.196 12.196 0 0 1-12.222 12.224 12.196 12.196 0 0 1-12.224-12.224v-24.51a12.196 12.196 0 0 1 12.224-12.222z" font-family="Sans" font-weight="400" overflow="visible" style="line-height:normal;-inkscape-font-specification:Sans;text-indent:0;text-align:start;text-decoration-line:none;text-transform:none;marker:none"/></g><g id="g37" transform="translate(151.032 -2243.015) scale(4.88926)"><rect id="rect36" width="3.568" height="6.052" x="-58.622" y="480.85" rx="1.863" ry="1.863" transform="matrix(.95983 -.2806 .2902 .95697 0 0)"/><path id="path37" d="M88.969 468c-3.306 0-6.024 3.008-5.969 5.719.048 2.365.809 4.695 1 5.281h1.526c-1.162-2.292-1.05-5.156-1.05-5.156 0-2.373 2.007-4.313 4.493-4.313 2.485 0 4.5 1.827 4.492 4.282-.023 1.674-.172 2.658-1.005 5.187h1.57c.225-.645.974-3.19.974-5.281 0-2.83-2.726-5.719-6.031-5.719z"/><rect id="rect37" width="3.568" height="6.052" x="-228.98" y="430.933" rx="1.863" ry="1.863" transform="matrix(-.95983 -.2806 -.2902 .95697 0 0)"/></g><g id="g39" fill="none"><path id="path39" d="M800.236 41.512c-9.206.518-18.79 3.88-27.517 11.277a3.667 3.667 0 0 0-.428 5.168 3.667 3.667 0 0 0 5.168.426c15.122-12.815 32.294-11.386 44.494-4.658 6.1 3.364 10.81 8.11 13.145 12.77 2.334 4.658 2.475 8.865-.026 12.718v.002c-2.788 4.298-11.483 7.325-18.722-.684-4.34-4.801-10.186-6.504-15.32-5.535-5.136.97-9.573 4.315-12.126 8.96-2.553 4.643-3.102 10.727-.431 16.614 2.67 5.887 8.342 11.452 17.664 16.024a3.667 3.667 0 0 0 4.906-1.678 3.667 3.667 0 0 0-1.678-4.906c-8.265-4.053-12.447-8.575-14.215-12.47-1.767-3.896-1.339-7.29.18-10.054 1.52-2.763 4.25-4.753 7.059-5.283 2.808-.53 5.681.106 8.52 3.246 9.94 10.999 24.671 8.455 30.316-.242v-.002c4.016-6.188 3.608-13.655.431-19.996-3.177-6.342-8.94-11.924-16.162-15.906-7.222-3.983-16.051-6.31-25.258-5.791zm6.684 16.23c-8.035-.605-16.16 1.834-22.522 6.569-6.36 4.734-11.116 11.819-12.345 20.343-1.23 8.525 1.135 18.31 8.22 28.23a3.667 3.667 0 0 0 5.116.854 3.667 3.667 0 0 0 .851-5.115c-6.224-8.715-7.86-16.463-6.93-22.922.932-6.459 4.496-11.806 9.467-15.506 9.942-7.399 24.875-7.98 34.422 3.852a3.667 3.667 0 0 0 5.156.55 3.667 3.667 0 0 0 .551-5.156c-6.005-7.443-13.95-11.094-21.986-11.699Zm-2.315 30.06a3.667 3.667 0 0 0-2.732.637 3.667 3.667 0 0 0-.846 5.118c5.624 7.848 16.332 13.788 27.123 12.314a3.667 3.667 0 0 0 3.14-4.129 3.667 3.667 0 0 0-4.132-3.137c-7.244.99-16.235-3.834-20.168-9.322a3.667 3.667 0 0 0-2.385-1.48z" style="color:#000;stroke-linecap:round;-inkscape-stroke:none"/></g><path id="path42" d="M917.155 40.259c-21.602 0-39.114 17.51-39.114 39.112s17.512 39.114 39.114 39.114c21.602 0 39.114-17.512 39.114-39.114 0-21.6-17.512-39.114-39.114-39.114zm0 9.778a9.78 9.78 0 1 1 0 19.556 9.78 9.78 0 0 1 0-19.556zm-22.04 19.556c.08 0 .16.004.24.01 0 0 14.738 1.212 21.8 1.212 7.062 0 21.8-1.212 21.8-1.212 2.268-.184 3.536 2.554 1.93 4.164-.944.944-1.432.89-2.08 1.08-4.23 1.04-7.754 1.68-11.872 2.08.244 9.18.408 16.17 1.73 20.532a48.41 48.41 0 0 0 2.004 5.442c.276.636.506 1.144.698 1.596.192.452.458.594.458 1.766 0 2.176-2.634 3.268-4.174 1.728-1.114-1.116-1.956-2.576-3.132-4.574-1.176-2-2.482-4.394-3.714-6.704-1.948-3.654-3-5.772-3.648-7.056-.648 1.284-1.7 3.402-3.648 7.056a192.526 192.526 0 0 1-3.714 6.704c-1.177 2-2.019 3.46-3.133 4.574-1.54 1.54-4.172.448-4.174-1.728 0-1.172.268-1.316.46-1.766.19-.452.42-.96.696-1.596a48.88 48.88 0 0 0 2.006-5.442c1.32-4.364 1.484-11.354 1.728-20.532-4.404-.34-7.418-1.146-11.87-2.08-.65-.19-1.136-.136-2.082-1.08-1.526-1.528-.468-4.14 1.69-4.174z" overflow="visible" style="marker:none"/><path id="path44" d="M777.467 155.412V223.863h9.777V155.413z" style="color:#000;stroke-linecap:square;-inkscape-stroke:none"/><path id="path45" d="M782.354 155.412a4.89 4.89 0 0 0-4.89 4.89l.003 29.337a4.89 4.89 0 0 0 4.889 4.888h16.533l3.539 7.077a4.89 4.89 0 0 0 4.373 2.703h24.445a4.89 4.89 0 0 0 4.89-4.889V170.08c0-2.7-2.19-4.89-4.89-4.889h-16.535l-3.54-7.076a4.89 4.89 0 0 0-4.37-2.703z" style="color:#000;stroke-linejoin:round;-inkscape-stroke:none"/><g id="g49" color="#bebebe"><path id="path49" d="M1468.673 155.566c-18.84 0-34.072 15.232-34.072 34.072 0 18.84 15.231 34.072 34.071 34.072 18.84 0 34.073-15.232 34.073-34.072 0-18.84-15.234-34.072-34.072-34.072zm-14.668 19.404h5.042a5.086 5.086 0 0 1 3.36 1.528l6.266 6.264 6.416-6.264c1.3-1.126 2.184-1.494 3.36-1.528h4.891v4.89c0 1.4-.167 2.692-1.223 3.666l-6.264 6.266 6.112 6.11c.92.92 1.376 2.218 1.376 3.514v4.89h-4.89c-1.298 0-2.594-.454-3.514-1.374l-6.264-6.266-6.266 6.266c-.92.92-2.216 1.374-3.514 1.374h-4.888v-4.89c0-1.296.454-2.594 1.374-3.514l6.264-6.11-6.264-6.266c-1.03-.95-1.48-2.294-1.374-3.666z" font-family="'Andale Mono'" font-weight="400" overflow="visible" style="line-height:normal;-inkscape-font-specification:&quot;Andale Mono&quot;;text-indent:0;text-align:start;text-decoration-line:none;text-transform:none;marker:none"/></g><g id="g51" fill="none" color="#000" transform="translate(-468.37 -2897.684) scale(4.88926)"><path id="circle49" d="M307.5 382.223a4.29 4.29 0 0 0-4.277 4.277 4.29 4.29 0 0 0 4.277 4.277 4.29 4.29 0 0 0 4.277-4.277 4.29 4.29 0 0 0-4.277-4.277zm0 1.554a2.711 2.711 0 0 1 2.723 2.723 2.711 2.711 0 0 1-2.723 2.723 2.711 2.711 0 0 1-2.723-2.723 2.711 2.711 0 0 1 2.723-2.723z" style="color:#000;stroke-linecap:round;stroke-linejoin:round;-inkscape-stroke:none" transform="matrix(1.28718 0 0 1.28571 -249.3 155.571)"/><path id="path50" d="M150.012 655a1 1 0 0 0-.707.293 1 1 0 0 0 0 1.414l4.004 4a1 1 0 0 0 1.414 0 1 1 0 0 0 0-1.414l-4.004-4a1 1 0 0 0-.707-.293Z" style="color:#000;stroke-linecap:round;stroke-linejoin:round;-inkscape-stroke:none"/></g><path id="path55" d="M1015.193 165.836c-3.259-1.864-7.316.49-7.316 4.244v39.115c0 3.754 4.055 6.108 7.314 4.246l34.215-19.556c3.282-1.878 3.282-6.611 0-8.489z" style="color:#000;stroke-linejoin:round;-inkscape-stroke:none"/><path id="path59" d="M1137.736 160.303a4.89 4.89 0 0 0-3.457 1.431l-24.447 24.45c-3.079 3.08-.897 8.346 3.459 8.345l48.893-.002c4.354 0 6.535-5.265 3.457-8.345l-24.448-24.448a4.89 4.89 0 0 0-3.457-1.431z" style="color:#000;stroke-linejoin:round;-inkscape-stroke:none"/><path id="path60" d="m1108.408 204.3-.014 9.778 4.889.008 48.893.069 4.888.008.014-9.778-4.888-.008-48.893-.07z" style="color:#000;stroke-linecap:square;stroke-linejoin:round;-inkscape-stroke:none"/><path id="path63" d="M682.313 260.777a4.89 4.89 0 0 0-3.46 1.432l-20.046 20.049a4.89 4.89 0 0 0-1.434 3.457v28.351a4.89 4.89 0 0 0 1.434 3.46l20.047 20.048a4.89 4.89 0 0 0 3.458 1.434h28.352a4.89 4.89 0 0 0 3.457-1.434l20.049-20.049a4.89 4.89 0 0 0 1.432-3.459v-28.351a4.89 4.89 0 0 0-1.432-3.457l-20.049-20.049a4.89 4.89 0 0 0-3.457-1.432zm2.025 9.78h24.3l17.184 17.183v24.301l-17.183 17.186h-24.301l-17.184-17.186v-24.3z" style="color:#000;stroke-linecap:round;stroke-linejoin:round;stroke-dashoffset:1;-inkscape-stroke:none"/><path id="path64" d="M691.57 280.333h9.78v14.67l-1.224 9.778h-7.18L691.57 295zm4.89 28.114a6.112 6.112 0 1 1 0 12.224 6.112 6.112 0 0 1 0-12.224z" color="#000" font-family="Sans" font-weight="400" overflow="visible" style="line-height:normal;-inkscape-font-specification:Sans;text-indent:0;text-align:start;text-decoration-line:none;text-transform:none;marker:none"/><g id="g66" fill="#bebebe" color="#bebebe"><path id="path66" d="M806.8 260.93a7.84 7.84 0 0 0-5.5 2.292l-31.17 31.168a7.796 7.796 0 0 0 0 11l31.169 31.17a7.796 7.796 0 0 0 11 0l31.17-31.168a7.796 7.796 0 0 0 0-11l-31.168-31.17a7.84 7.84 0 0 0-5.5-2.292zm-.917 14.516c8.03-.45 15.136 5.72 15.584 13.75 0 6.852-1.846 9.396-7.792 13.904-.932.702-1.592 1.226-1.832 1.528-.242.304-.154.162-.154.152.034 2.584-2.306 4.89-4.888 4.89-2.584 0-4.924-2.306-4.89-4.89 0-2.456 1.096-4.612 2.292-6.11a18.68 18.68 0 0 1 3.514-3.362 22.7 22.7 0 0 0 3.36-3.208c.46-.548.632-1.506.612-2.14v-.152c-.154-2.754-2.44-4.74-5.194-4.584-2.754.154-4.74 2.136-4.584 4.89h-9.78c-.448-8.032 5.722-14.22 13.752-14.668zm.918 39.114a4.89 4.89 0 1 1 0 9.778 4.89 4.89 0 0 1 0-9.78z" overflow="visible" style="marker:none"/></g><g id="g69" transform="rotate(-90 225.983 1266.397) scale(4.88926)"><g id="path68"><path id="path2" d="M289 257c-2.75 0-5 2.25-5 5 0 1.589.842 2.901 2 3.81v5.61l6 1.56v-7.17c1.158-.908 2-2.222 2-3.81 0-2.75-2.25-5-5-5zm0 2c1.669 0 3 1.331 3 3 0 1.116-.597 2.048-1.502 2.572l-.498.29v5.53l-2-.519v-5.012l-.498-.289c-.906-.526-1.502-1.455-1.502-2.572 0-1.669 1.331-3 3-3z" style="color:#000;-inkscape-stroke:none"/></g><path id="path3" d="M289 271.498V266l-2-.563V271z" color="#000" opacity=".35" overflow="visible" style="marker:none"/><circle id="circle3" cx="345" cy="265" r="1" color="#000" overflow="visible" style="marker:none" transform="rotate(90 319 235)"/></g><g id="g79"><g id="g78" fill="none"><path id="path78" d="M1549.648 155.412s-2.242-.065-4.63 1.129c-2.389 1.194-5.149 4.576-5.149 8.65a4.89 4.89 0 0 0 0 .004v48.89s-.067 2.241 1.127 4.63 4.578 5.148 8.652 5.148h58.67s2.243.066 4.631-1.129c2.389-1.194 5.147-4.576 5.147-8.65v-39.113s.067-2.243-1.127-4.631c-1.194-2.388-4.577-5.147-8.65-5.147h-22.423l-8.345-8.347a4.89 4.89 0 0 0-3.457-1.434zm0 9.78h22.422l8.346 8.347a4.89 4.89 0 0 0 3.457 1.432h24.447v39.115h-58.67v-.002z" style="color:#000;stroke-linecap:round;stroke-linejoin:round;-inkscape-stroke:none"/></g></g><g id="g81"><g id="g80" color="#bebebe" transform="translate(288.84 -1289.118) scale(4.88926)"><path id="path79" d="M124.031 318a3.038 3.038 0 0 0-3.03 3.031v7.938a3.038 3.038 0 0 0 3.03 3.031h8.938a3.038 3.038 0 0 0 3.031-3.031v-7.938a3.038 3.038 0 0 0-3.03-3.031zm0 2h8.938c.596 0 1.031.435 1.031 1.031V327h-11v-5.969c0-.596.436-1.031 1.031-1.031zm-1.03 8h5v2h-3.97c-.595 0-1.03-.435-1.03-1.031zm6 0h5v.969c0 .596-.436 1.031-1.032 1.031H129z" font-family="Sans" font-weight="400" overflow="visible" style="line-height:normal;-inkscape-font-specification:Sans;text-indent:0;text-align:start;text-decoration-line:none;text-transform:none;marker:none"/><rect id="rect79" width="11" height="7" x="123" y="320" opacity=".35" overflow="visible" rx="0" ry="0" style="marker:none"/></g></g><g id="g86"><path id="path86" d="M274.797 155.412a14.636 14.636 0 0 1 14.668 14.668v29.336a14.636 14.636 0 0 1-14.668 14.668h-39.114a14.636 14.636 0 0 1-14.668-14.668V170.08a14.636 14.636 0 0 1 14.668-14.668zm0 9.78h-39.114a4.88 4.88 0 0 0-4.89 4.888v29.336a4.88 4.88 0 0 0 4.89 4.888h39.114a4.88 4.88 0 0 0 4.89-4.888V170.08a4.88 4.88 0 0 0-4.89-4.89zm-19.556 53.78c-24.448 0-24.448 4.89-24.448 4.89 0 4.89 4.89 4.89 4.89 4.89h39.114c4.89 0 4.89-4.89 4.89-4.89s0-4.89-24.448-4.89z"/></g><g id="g89"><g id="g88" transform="translate(436.75 150.524) scale(4.88926)"><rect id="rect86" width="6" height="16" color="#000" overflow="visible" rx="2.934" ry="2.986" style="marker:none"/><path id="path87" d="M5.528 0c.878.714 1.469 1.793 1.469 3v1h2.125c-.075-1.092 1.248-2 2-2 .68 0 1 .012 1 1v1h1.218c1.229-.6 1.782-1.969 1.782-2.687 0-.736-2.386-1.312-3.688-1.312zM7 5v4.313c2.766 2.662 6.125 2.406 6.125 2.406s.353-1.52-1.906-4.03L8.844 5H7.063C7.04 5.003 7.02 4.999 7 5zm2.975 2.532L11.66 9.27c-1.8.166-2.151-.856-1.684-1.737z" color="#000" overflow="visible" style="marker:none"/></g></g><g id="g91"><path id="path89" d="M571.566 151.012a4.89 4.89 0 0 0-2.382 9.156l2.402 1.342v13.195c-1.7 2.568-3.766 6.193-6.879 11.762a2514.53 2514.53 0 0 0-10.768 19.525 4.89 4.89 0 0 0 0 .002c-2.8 5.123-2.723 12.008 1.444 17.19 3.29 4.41 8.518 5.568 12.832 5.568h35.928c4.313 0 9.54-1.16 12.832-5.57 4.16-5.18 4.24-12.06 1.44-17.184-5.682-11.57-12.103-20.597-17.423-31.228v-13.26l2.404-1.34a4.89 4.89 0 0 0-2.382-9.158zm9.797 9.777h9.852v15.195a4.89 4.89 0 0 0 .498 2.149c5.877 12.014 12.583 21.236 18.02 32.353a4.89 4.89 0 0 0 .101.198c1.172 2.142 1.235 4.313-.494 6.423a4.89 4.89 0 0 0-.168.22c-.71.972-2.385 1.646-5.03 1.646h-35.927c-2.647 0-4.322-.674-5.03-1.645a4.89 4.89 0 0 0-.17-.223c-1.73-2.11-1.667-4.277-.495-6.421a2507.76 2507.76 0 0 1 10.722-19.448c3.507-6.274 6.923-12.014 7.184-12.373a4.89 4.89 0 0 0 .937-2.879z" style="color:#000;stroke-linecap:round;stroke-linejoin:round;-inkscape-stroke:none"/><path id="path90" d="m577.468 194.534-10.848 19.552h39.114l-10.848-19.552z" color="#000" opacity=".25" overflow="visible" style="marker:none"/></g><g id="g93"><path id="path93" d="M706.25 155.412v39.564a7.276 7.276 0 0 0-4.89 6.864v14.708c0 4.288 3.194 7.314 7.334 7.314 4.182 0 7.334-2.978 7.334-7.314V201.84a7.276 7.276 0 0 0-4.89-6.864v-5.34h3.248a6.458 6.458 0 0 0 6.484-6.464v-8.202c0-11.648-4.842-19.558-14.62-19.558zm-39.114 4.89v16.864c0 4.154 3.416 7.572 7.58 7.572h2.198v10.238a7.276 7.276 0 0 0-4.89 6.864v14.708a7.308 7.308 0 0 0 7.334 7.314 7.308 7.308 0 0 0 7.334-7.314V201.84a7.276 7.276 0 0 0-4.888-6.864v-10.238H684c4.166 0 7.592-3.418 7.592-7.572v-16.864c0-2.522-2.288-4.89-4.9-4.89v21.754c0 1.54-1.162 2.692-2.692 2.692h-2.196v-24.36l-4.89-.01v24.37h-2.196a2.632 2.632 0 0 1-2.694-2.692v-21.754c-2.674 0-4.888 2.252-4.888 4.89z" style="marker:none"/></g><g id="g95"><path id="path95" d="M907.349 155.412s-14.668 0-14.668 14.668v24.446s.216 6.936.14 9.78c0 4.888-2.63 6.91-6.868 10.37-3.066 2.394-3.784 6.406-1.5 8.298 2.1 1.738 5.68 1.486 8.12-1.68l4.982-7.21c3.412-4.96 4.806-9.172 4.89-14.668l.02-29.336c0-4.89 4.875-4.89 4.875-4.89v32.144l14.682-15.032V170.08c0-4.89 4.874-4.89 4.874-4.89l.02 12.224 9.764-9.95c1.654-1.526 2.46-2.274 4.888-2.274l.02 4.89-19.572 19.556h19.556s.02 4.89-4.888 4.89h-19.558l-9.78 9.78c0 2.08 0 9.806 9.78 9.806l19.572-.03s14.668 0 14.652-14.62v-44.05z" color="#000" font-family="sans-serif" font-weight="400" overflow="visible" style="line-height:normal;font-variant-ligatures:normal;font-variant-position:normal;font-variant-caps:normal;font-variant-numeric:normal;font-variant-alternates:normal;font-feature-settings:normal;text-indent:0;text-align:start;text-decoration-line:none;text-decoration-style:solid;text-decoration-color:#000;text-transform:none;text-orientation:mixed;white-space:normal;shape-padding:0;isolation:auto;mix-blend-mode:normal;solid-color:#000;solid-opacity:1"/></g><g id="g98"><g id="g97"><path id="path97" d="M1061.65 288.97c0-10.146-8.25-18.37-18.43-18.37a18.428 18.428 0 0 0-15.794 8.906 18.428 18.428 0 0 0-15.798-8.906c-10.178 0-18.428 8.224-18.428 18.37a18.28 18.28 0 0 0 5.816 13.384l27.992 26.874 28.84-26.874a18.28 18.28 0 0 0 5.816-13.384"/></g></g><g id="g100"><g id="g99" color="#bebebe"><path id="path99" d="M495.42 50.049v-4.74h-34.226v4.738zm2.596-9.626c2.398 0 3.892 1.116 5.042 2.292 1.15 1.174 2.14 2.73 2.14 5.04v2.294h9.78v9.778h-73.34v-9.78h9.778v-1.83c.116-2.106.832-3.68 1.986-5.042a7.476 7.476 0 0 1 5.654-2.598v-.152h38.96zm-41.712 24.294h-9.778c-8.182 14.31-5.562 28.622 0 42.932 2.128 5.474 4.804 10.85 10.696 10.85h42.17c5.892 0 8.686-5.332 10.694-10.85 5.098-13.992 7.82-28.132 0-42.932h-9.778c8.416 14.412 4.816 29.19 0 44.002h-44.004c-5.358-14.83-7.976-29.576 0-44.002zm24.294-.08v39.194h-4.736V64.635zm-9.626 0c-8.616 10.87-4.06 27.534 0 39.196h-4.888c-4.034-11.286-8.994-27.514 0-39.194zm19.406 0c8.884 12.756 4.186 28.42 0 39.196h-4.738c4.23-10.862 8.13-26.738 0-39.194z" font-family="'Bitstream Vera Sans'" font-weight="400" overflow="visible" style="line-height:normal;text-indent:0;text-align:start;text-decoration-line:none;text-transform:none;marker:none"/></g></g><g id="g106"><g id="g105" transform="translate(-1335.91 -761.57) scale(4.88926)"><circle id="circle103" cx="343" cy="172" r="3" color="#000" overflow="visible" style="marker:none"/><path id="path104" d="M352.553 166.105 340.763 172l11.79 5.895.894-1.79-8.21-4.105 8.21-4.105z" style="color:#000;-inkscape-stroke:none"/><circle id="circle104" cx="353" cy="167" r="3" color="#000" overflow="visible" style="marker:none"/><circle id="circle105" cx="353" cy="177" r="3" color="#000" overflow="visible" style="marker:none"/></g></g><g id="g109"><path id="path107" d="M1382.808 174.968v9.78h4.89v24.446h-48.894v9.78h58.672v-44.006z" color="#000" font-family="Sans" font-weight="400" overflow="visible" style="line-height:normal;-inkscape-font-specification:Sans;text-indent:0;text-align:start;text-decoration-line:none;text-transform:none;marker:none"/><path id="path108" d="M1319.246 160.302v44.004h58.672v-44.004zm9.78 9.78h39.114v24.444h-39.114z" color="#000" font-family="Sans" font-weight="400" overflow="visible" style="line-height:normal;-inkscape-font-specification:Sans;text-indent:0;text-align:start;text-decoration-line:none;text-transform:none;marker:none"/><path id="path109" d="M1333.915 184.748c11.346 4.89 14.886-8.114 29.336 0v4.89h-29.336z" color="#000" opacity=".35" overflow="visible" style="marker:none"/></g><g id="g116"><g id="g115" color="#bebebe"><path id="path114" d="M1267.607 265.666a14.636 14.636 0 0 1 14.668 14.668v29.336a14.636 14.636 0 0 1-14.669 14.668h-39.113a14.636 14.636 0 0 1-14.668-14.668v-29.336a14.636 14.636 0 0 1 14.668-14.668zm0 9.78h-39.114a4.88 4.88 0 0 0-4.89 4.888v29.336a4.88 4.88 0 0 0 4.89 4.89h39.114a4.88 4.88 0 0 0 4.89-4.89v-29.336a4.88 4.88 0 0 0-4.89-4.888zm-19.556 53.782c-24.448 0-24.448 4.888-24.448 4.888 0 4.89 4.89 4.89 4.89 4.89h39.114c4.89 0 4.89-4.89 4.89-4.89s0-4.888-24.446-4.888z" overflow="visible" style="marker:none"/><path id="path115" d="m1223.602 270.556-4.888 46.568 58.67-2.564zm4.98 19.54 24.356 19.574-24.274.126z" overflow="visible" style="marker:none"/></g></g><g id="g118"><g id="g117" color="#bebebe"><path id="path116" d="M1103.512 270.556a4.88 4.88 0 0 0-4.89 4.89v48.892a4.88 4.88 0 0 0 4.89 4.89h68.45a4.88 4.88 0 0 0 4.89-4.89v-48.894a4.88 4.88 0 0 0-4.89-4.89zm6.112 9.78h7.334a1.22 1.22 0 0 1 1.222 1.22v7.334a1.22 1.22 0 0 1-1.222 1.222h-7.334a1.22 1.22 0 0 1-1.222-1.22v-7.336a1.22 1.22 0 0 1 1.22-1.22zm14.668 0h7.334a1.22 1.22 0 0 1 1.22 1.22v7.334a1.22 1.22 0 0 1-1.22 1.222h-7.334a1.22 1.22 0 0 1-1.222-1.22v-7.336a1.22 1.22 0 0 1 1.22-1.22zm14.668 0h7.333a1.22 1.22 0 0 1 1.22 1.22v7.334a1.22 1.22 0 0 1-1.22 1.222h-7.333a1.22 1.22 0 0 1-1.223-1.22v-7.336a1.22 1.22 0 0 1 1.22-1.22zm14.667 0h7.334a1.22 1.22 0 0 1 1.22 1.22v7.334a1.22 1.22 0 0 1-1.22 1.222h-7.334a1.22 1.22 0 0 1-1.224-1.22v-7.336a1.22 1.22 0 0 1 1.224-1.22zm-39.114 14.666h7.332a1.22 1.22 0 0 1 1.224 1.222v7.334a1.22 1.22 0 0 1-1.224 1.222h-7.332a1.22 1.22 0 0 1-1.224-1.22v-7.336a1.22 1.22 0 0 1 1.224-1.22zm14.666 0h7.334a1.22 1.22 0 0 1 1.224 1.222v7.334a1.22 1.22 0 0 1-1.224 1.222h-7.334a1.22 1.22 0 0 1-1.22-1.22v-7.336a1.22 1.22 0 0 1 1.22-1.22zm14.668 0h7.334a1.22 1.22 0 0 1 1.222 1.222v7.334a1.22 1.22 0 0 1-1.22 1.222h-7.336a1.22 1.22 0 0 1-1.22-1.22v-7.336a1.22 1.22 0 0 1 1.22-1.22zm14.668 0h7.334a1.22 1.22 0 0 1 1.222 1.222v7.334a1.22 1.22 0 0 1-1.22 1.222h-7.336a1.22 1.22 0 0 1-1.22-1.22v-7.336a1.22 1.22 0 0 1 1.22-1.22zm-48.892 14.668h7.334a1.22 1.22 0 0 1 1.222 1.222v7.334a1.22 1.22 0 0 1-1.222 1.222h-7.334a1.22 1.22 0 0 1-1.222-1.22v-7.336a1.22 1.22 0 0 1 1.22-1.222zm14.668 0h26.89a1.22 1.22 0 0 1 1.222 1.222v7.334a1.22 1.22 0 0 1-1.22 1.222h-26.892a1.22 1.22 0 0 1-1.222-1.22v-7.336a1.22 1.22 0 0 1 1.22-1.222zm34.224 0h12.224a1.22 1.22 0 0 1 1.222 1.222v7.334a1.22 1.22 0 0 1-1.222 1.222h-12.224a1.22 1.22 0 0 1-1.22-1.22v-7.336a1.22 1.22 0 0 1 1.22-1.222z" overflow="visible" style="marker:none"/></g></g><g id="g120"><g id="g119" fill="none" transform="translate(1233.988 -3103.033) scale(4.88926)"><path id="path118" d="M44.795 688.813a1.167 1.167 0 0 0-.885.119 8.175 8.175 0 0 0-3.799 9.18 8.177 8.177 0 0 0 7.877 6.056 8.178 8.178 0 0 0 7.895-6.033 8.175 8.175 0 0 0-3.774-9.192 1.167 1.167 0 0 0-1.595.42 1.167 1.167 0 0 0 .422 1.596 5.825 5.825 0 0 1 2.695 6.566 5.822 5.822 0 0 1-5.639 4.307 5.824 5.824 0 0 1-5.627-4.324 5.822 5.822 0 0 1 2.713-6.557 1.167 1.167 0 0 0 .426-1.594 1.167 1.167 0 0 0-.71-.544z" style="color:#000;stroke-linecap:round;-inkscape-stroke:none" transform="matrix(.85694 0 0 .85714 6.867 99.429)"/><path id="path119" d="M48 688a1 1 0 0 0-1 1v5a1 1 0 0 0 1 1 1 1 0 0 0 1-1v-5a1 1 0 0 0-1-1z" style="color:#000;stroke-linecap:round;-inkscape-stroke:none"/></g></g><g id="g125"><g id="g124" transform="translate(307.777 -3298.604) scale(4.88926)"><path id="path120" d="M255 729a1 1 0 0 0-1 1v13a1 1 0 0 0 1 1h10a1 1 0 0 0 1-1v-4s.014-.709-.355-1.447c-.37-.739-1.312-1.553-2.645-1.553h-3a1 1 0 0 0-1 1 1 1 0 0 0 1 1h3c.667 0 .725.186.855.447.131.262.145.553.145.553v3h-8v-11h5.586l2.414 2.414V734a1 1 0 0 0 1 1 1 1 0 0 0 1-1v-1a1 1 0 0 0-.293-.707l-3-3A1 1 0 0 0 262 729Z" style="color:#000;stroke-linecap:round;stroke-linejoin:round;-inkscape-stroke:none"/><path id="path122" d="M260.293 734.293 257.586 737l2.707 2.707 1.414-1.414-1.293-1.293 1.293-1.293z" style="color:#000;-inkscape-stroke:none"/><path id="path123" d="M261 739h1v1h-1zm0-5h1v1h-1z" color="#000" overflow="visible" style="marker:none"/><rect id="rect123" width="2" height="2" x="260" y="734" color="#000" overflow="visible" rx="1" ry="1" style="marker:none"/><rect id="rect124" width="2" height="2" x="260" y="738" color="#000" overflow="visible" rx="1" ry="1" style="marker:none"/></g></g><g id="g49459" style="stroke-width:.2" transform="matrix(5 0 0 5 -2376.465 -551.764)"><path id="path49461" d="M548 140.82a1 1 0 0 0-.707.293s-1.483 1.59-3.977.758a1 1 0 0 0-1.152.4l-.656 1a1 1 0 0 0 .129 1.256c.295.295.43.568.472 1.135.043.567-.042 1.29-.164 2.059-.121.768-.278 1.579-.316 2.392-.038.814.032 1.679.537 2.44.775 1.167 2.122 1.876 3.297 2.453a22.46 22.46 0 0 0 2.205.937 1 1 0 0 0 .664 0s1.03-.36 2.205-.937c1.175-.577 2.522-1.286 3.297-2.453.505-.762.576-1.626.537-2.44-.038-.813-.195-1.624-.316-2.392-.122-.769-.207-1.492-.164-2.059.042-.567.177-.84.472-1.135a1 1 0 0 0 .13-1.256l-.657-1a1 1 0 0 0-1.152-.4c-2.494.831-3.977-.758-3.977-.758a1 1 0 0 0-.707-.293zm-.033 4.551a.62.62 0 0 1 .449.195 1.1 1.1 0 0 1 .191.278c.1.19.175.4.248.603.074.203.147.398.206.512.009.017.01.014.017.027h1.485a.42.42 0 0 1 .396.274c.103.285-.007.55-.129.738a2.778 2.778 0 0 1-.432.494c-.154.148-.31.283-.423.393-.083.08-.135.158-.149.17 0 .02 0 .086.031.199.04.134.111.306.184.488s.148.372.182.584c.034.213.016.503-.196.715a.388.388 0 0 1-.047.041.641.641 0 0 1-.45.11 1.085 1.085 0 0 1-.323-.096 3.909 3.909 0 0 1-.55-.32c-.18-.118-.352-.236-.49-.317-.067-.04-.133-.064-.171-.078h-.002c-.04.014-.106.04-.176.08-.14.08-.32.196-.504.313a4.05 4.05 0 0 1-.566.316 1.14 1.14 0 0 1-.324.092.659.659 0 0 1-.444-.096.598.598 0 0 1-.244-.387.919.919 0 0 1 .002-.324c.032-.2.099-.396.166-.59.067-.193.139-.383.18-.527.023-.084.024-.157.027-.186a2.016 2.016 0 0 0-.142-.19c-.108-.125-.25-.276-.391-.435a4.082 4.082 0 0 1-.395-.496c-.111-.173-.248-.373-.152-.68a.419.419 0 0 1 .404-.287l1.403.004c.02-.03.012-.02.047-.097.062-.14.13-.332.205-.526.074-.193.15-.386.256-.564.053-.089.112-.176.205-.258a.653.653 0 0 1 .416-.17z" style="color:#000;stroke-width:.2;stroke-linejoin:round;-inkscape-stroke:none"/></g><g id="g81423" style="stroke-width:.2" transform="matrix(5 0 0 5 -3229.986 -1576.765)"><path id="path81479" d="M736.432 381.988a.5.5 0 0 1-.495-.494.5.5 0 0 1 .495-.494.5.5 0 0 1 .494.494.5.5 0 0 1-.494.494zm0-2.988a2.488 2.488 0 0 0-2.495 2.494 2.488 2.488 0 0 0 2.495 2.494 2.488 2.488 0 0 0 2.494-2.494 2.488 2.488 0 0 0-2.494-2.494z" style="fill-rule:nonzero;stroke:none;stroke-width:.4;stroke-linecap:round;stroke-opacity:1;stop-color:#000"/><path id="rect81425" d="M742.016 380.496H738a1 1 0 1 0 0 2h4.015a1 1 0 1 0 0-2zm-7.305 0a.741.741 0 0 1-.733-.739v-3.75l-1 1h11.817a1.2 1.2 0 0 1 1.194 1.194v1.335c0 .524-.434.96-.958.96a1 1 0 1 0 .002 2 2.952 2.952 0 0 0 2.956-2.961V378.2a3.187 3.187 0 0 0-3.193-3.194h-11.818a1 1 0 0 0-1 1v3.748a2.728 2.728 0 0 0 2.728 2.74 1 1 0 1 0 .004-2z" style="fill-rule:nonzero;stroke:none;stroke-width:.4;stroke-linecap:round;stop-color:#000"/><path id="circle81961" d="M743.504 381.988a.5.5 0 0 1-.494-.494.5.5 0 0 1 .494-.494.5.5 0 0 1 .494.494.5.5 0 0 1-.494.494zm0-2.988a2.488 2.488 0 0 0-2.494 2.494 2.488 2.488 0 0 0 2.494 2.494 2.488 2.488 0 0 0 2.494-2.494 2.488 2.488 0 0 0-2.494-2.494z" style="fill-rule:nonzero;stroke:none;stroke-width:.4;stroke-linecap:round;stroke-opacity:1;stop-color:#000"/><path id="path81967" d="M733.988 379.964v-6.99c0-.535.443-.978.977-.978h5.013c.743 0 1.41.477 1.65 1.18l1.074 3.15a1 1 0 1 0 1.893-.646l-1.075-3.15a3.736 3.736 0 0 0-3.542-2.534h-5.013a2.971 2.971 0 0 0-2.977 2.978v6.99a1 1 0 1 0 2 0z" style="fill-rule:nonzero;stroke:none;stroke-width:.4;stroke-linecap:butt;stroke-linejoin:miter;stroke-dasharray:none;stroke-opacity:1"/></g><g id="g33661" style="stroke-width:.200147" transform="matrix(4.99634 0 0 4.99634 820.794 -3174.151)"><path id="path33647" d="M111.981 699.986a2.007 2.007 0 0 0-1.715.972h-3.284a1 1 0 1 0 0 2h3.247a2.006 2.006 0 0 0 1.752 1.04c.73-.003 1.4-.4 1.752-1.04h1.28a1 1 0 0 0 0-2H113.7a2.006 2.006 0 0 0-1.719-.972zm0 1a1.006 1.006 0 1 1 0 2.011 1.006 1.006 0 0 1 0-2.011z" style="color:#000;fill-opacity:1;stroke-width:.200147;stroke-linecap:round"/><rect id="rect33653" width="2.01" height="3" x="110.976" y="697.986" rx="0" ry="0" style="fill-opacity:1;stroke:none;stroke-width:.400293;stroke-linecap:round;stroke-dasharray:none;stroke-opacity:1;stop-color:#000"/><path id="rect33655" d="M111.076 689.982a3.105 3.105 0 0 0-3.09 3.09v2.809a3.105 3.105 0 0 0 3.09 3.09h1.819a3.107 3.107 0 0 0 3.091-3.09v-2.809a3.107 3.107 0 0 0-3.091-3.09zm0 2h1.819c.62 0 1.091.469 1.091 1.09v2.809c0 .621-.47 1.09-1.091 1.09h-1.819c-.621 0-1.09-.469-1.09-1.09v-2.809c0-.621.469-1.09 1.09-1.09z" style="color:#000;stroke-width:.200147;stroke-linecap:round;-inkscape-stroke:none"/><path id="path33667" d="M104.013 699.986c.703.002 1.353.37 1.715.972h3.284a1 1 0 1 1 0 2h-3.247a2.006 2.006 0 0 1-1.752 1.04c-.73-.003-1.4-.4-1.752-1.04h-1.279a1 1 0 0 1 0-2h1.312a2.006 2.006 0 0 1 1.72-.972zm0 1a1.006 1.006 0 1 0 0 2.011 1.006 1.006 0 0 0 0-2.011z" style="color:#000;fill-opacity:1;stroke-width:.200147;stroke-linecap:round"/><rect id="rect33669" width="2.01" height="3" x="-105.018" y="697.986" rx="0" ry="0" style="fill-opacity:1;stroke:none;stroke-width:.400293;stroke-linecap:round;stroke-dasharray:none;stroke-opacity:1;stop-color:#000" transform="scale(-1 1)"/><path id="rect33671" d="M-104.918 689.982a3.105 3.105 0 0 0-3.09 3.09v2.809a3.105 3.105 0 0 0 3.09 3.09h1.818a3.107 3.107 0 0 0 3.092-3.09v-2.809a3.107 3.107 0 0 0-3.092-3.09zm0 2h1.818c.622 0 1.092.469 1.092 1.09v2.809c0 .621-.47 1.09-1.092 1.09h-1.818c-.621 0-1.09-.469-1.09-1.09v-2.809c0-.621.469-1.09 1.09-1.09z" style="color:#000;stroke-width:.200147;stroke-linecap:round;-inkscape-stroke:none" transform="scale(-1 1)"/><rect id="rect33725" width="6" height="1.052" x="100.986" y="694.986" rx="0" ry="0" style="fill-opacity:1;stroke:none;stroke-width:.400293;stroke-linecap:round;stroke-dasharray:none;stroke-opacity:1;stop-color:#000"/><rect id="rect33727" width="6" height="1.052" x="108.986" y="694.986" rx="0" ry="0" style="fill-opacity:1;stroke:none;stroke-width:.400293;stroke-linecap:round;stroke-dasharray:none;stroke-opacity:1;stop-color:#000"/></g><g id="g313236" style="stroke-width:.2" transform="matrix(5 0 0 5 -2350 -51.765)"><path id="path313232" d="M848 40c-2.199 0-4 1.801-4 4v1a1 1 0 0 0 1 1 1 1 0 0 0 1-1v-1c0-1.125.875-2 2-2s2 .875 2 2v4h-6c-1.108 0-2 .892-2 2v5c0 .554.446 1 1 1h10c.554 0 1-.446 1-1v-5c0-1.108-.892-2-2-2v-4c0-2.199-1.801-4-4-4z" style="fill-opacity:1;fill-rule:nonzero;stroke-width:.2" transform="translate(-40)"/></g><g id="g152102" style="stroke-width:.200127" transform="matrix(4.99684 0 0 4.99684 -2632.247 -1336.276)"><path id="rect151399" d="M858 322c-1.108 0-2 .892-2 2v2a2 2 0 0 1 2 2 2 2 0 0 1-2 2v2c0 1.108.892 2 2 2h12c1.108 0 2-.892 2-2v-2a2 2 0 0 1-2-2 2 2 0 0 1 2-2v-2c0-1.108-.892-2-2-2zm5.996 2.107.928 2.891 3.074.01-2.46 1.775.939 2.926-2.45-1.79-2.492 1.796.947-2.883-2.48-1.814 3.035.01z" style="stroke-width:.200127"/></g><g id="g144824" style="stroke-width:.200063" transform="matrix(4.99841 0 0 4.99841 140.323 -501.58)"><path id="path144816" d="m204.247 110.34-.707.706a1 1 0 1 0 1.414 1.415l.707-.707a1 1 0 1 0-1.414-1.415zm-5.243-1.35v1a1 1 0 1 0 2 0v-1a1 1 0 1 0-2 0zm-4.66 2.754.707.707a1 1 0 1 0 1.414-1.414l-.707-.708a1 1 0 1 0-1.414 1.415zm-1.35 5.242h1a1 1 0 1 0 .001-2h-1a1 1 0 1 0 0 2z" style="fill-opacity:1;fill-rule:nonzero;stroke:none;stroke-width:.400127;stroke-linecap:round;stroke-linejoin:miter;stroke-dasharray:none;stroke-opacity:1"/><path id="path144822" d="M198.134 116.72a2.01 2.01 0 0 1 1.003-2.524 2.01 2.01 0 0 1 2.595.804 1 1 0 1 0 1.732-1 3.99 3.99 0 0 0-5.19-1.609 3.99 3.99 0 0 0-2.006 5.049 1 1 0 1 0 1.866-.72z" style="font-variation-settings:normal;opacity:1;fill-opacity:1;fill-rule:nonzero;stroke:none;stroke-width:.400127;stroke-linecap:round;stroke-linejoin:miter;stroke-miterlimit:4;stroke-dasharray:none;stroke-dashoffset:0;stroke-opacity:1;stop-color:#000;stop-opacity:1"/><path id="path144886" d="m200.112 119.096 1.518-.613A3.001 3.001 0 0 0 200 118c-1.662 0-3 1.338-3 3s1.338 3 3 3h4c2.214 0 4-1.786 4-4s-1.786-4-4-4a3.992 3.992 0 0 0-3.888 3.096zM206 120c0 1.1-.9 2-2 2h-4c-.547 0-1-.453-1-1 0-.547.453-1 .999-1a1 1 0 0 1 .543.161 1 1 0 0 0 1.518-.613A2 2 0 0 1 204 118c1.1 0 2 .9 2 2z" style="font-variation-settings:normal;fill-opacity:1;fill-rule:nonzero;stroke:none;stroke-width:.400129;stroke-linecap:round;stroke-linejoin:round;stroke-miterlimit:4;stroke-dasharray:none;stroke-dashoffset:0;stroke-opacity:1;stop-color:#000"/></g><g id="g225917" style="display:inline;stroke-width:.2" transform="matrix(5 0 0 5 -2005 -801.764)"><path id="path217736" d="M607 169.006a1.001 1.001 0 0 0-.768.353L603 173h-1c-1.095 0-2 .844-2 2v2c0 1.09.91 2 2 2h1l3.232 3.64c.211.253.492.363.768.36zm6.46.96a1 1 0 0 0-.828 1.56 7.991 7.991 0 0 1 0 8.947 1 1 0 1 0 1.659 1.119A9.99 9.99 0 0 0 616 176a9.99 9.99 0 0 0-1.709-5.592 1 1 0 0 0-.83-.441zm-3.42 2.024a.994.994 0 0 0-1.04 1.006v.06a.99.99 0 0 0 .197.536 3.995 3.995 0 0 1 0 4.816.991.991 0 0 0-.197.535v.06a.997.997 0 0 0 1.795.608 5.994 5.994 0 0 0 1.207-3.611 5.994 5.994 0 0 0-1.207-3.611 1 1 0 0 0-.756-.399z" style="fill-opacity:1;stroke-width:.2"/></g><g id="g185143" style="display:inline;stroke-width:.2" transform="matrix(0 5 -5 0 2470 -61.76)"><path id="path185137" d="M20 245c0 1 1 1 1 1h1v1s-.015.709.355 1.447c.369.739 1.31 1.553 2.644 1.553h8s.71.014 1.447-.355c.739-.37 1.553-1.312 1.553-2.645v-5h-2v5c0 .554-.446 1-1 1h-8c-.554 0-1-.446-1-1v-6c0-.554.446-1 1-1h2v-2h-2c-1.333 0-2.275.814-2.644 1.553-.37.738-.356 1.447-.356 1.447v1h-1c-1 0-1 1-1 1zm5 2h8v-3h-1c-.53 0-1.04-.211-1.415-.586L28.171 241H25Z" style="fill-opacity:1;stroke-width:.2"/><path id="path187582" d="M28 239h.005a.998.998 0 0 0 .287.707l3 3A1 1 0 0 0 32 243h1v-3.13l1.446.962a1 1 0 0 0 .554.162V241h1v-1h-.004a1 1 0 0 0-.289-.707l-3-3a1 1 0 0 0-.707-.29V236h-1v3.13l-1.445-.962a1 1 0 0 0-.555-.166V238h-1z" style="opacity:1;fill-opacity:1;stroke:none;stroke-width:.2"/></g><g id="g78139" style="stroke-width:.2" transform="matrix(5 0 0 5 -60 -266.765)"><path id="path6023-5" d="M308 60c.554 0 1 .446 1 1v6.5s0 .5.5.5.5-.5.5-.5V63c0-.554.446-1 1-1s1 .446 1 1v8.5c0 .5.5.5.5.5l1.793-1.707a1 1 0 0 1 .717-.303c1.085.086 1.148 1.266.697 1.717l-3 3C312 75.5 310.95 75.995 310 76h-6c-3 0-3-3-3-3v-8c0-.554.446-1 1-1s1 .446 1 1v3.5s0 .5.5.5.5-.5.5-.5V62c0-.554.446-1 1-1s1 .446 1 1v5.5s0 .5.5.5.5-.5.5-.5V61c0-.554.446-1 1-1z" style="stroke-width:.2"/></g><g id="g67952" style="stroke-width:.200002" transform="translate(1275.088 -3301.762) scale(4.99996)"><path id="path67934" d="M17.957 670.005c.547 0 1 .452 1 1v10c0 .547-.453 1-1 1h-.974c-1.652 0-3-1.348-3-3v-6c0-1.652 1.348-3 3-3zm-5.974 3v6c0 2.766 2.233 5 5 5h.974c1.662 0 3-1.338 3-3v-10c0-1.662-1.338-3-3-3h-.974c-2.767 0-5 2.233-5 5z" style="fill-opacity:1;fill-rule:nonzero;stroke:none;stroke-width:.400003;stroke-linecap:round;stroke-opacity:1;stop-color:#000"/><path id="path67936" d="M13.472 677.003h1.512c1.1 0 1.988-.888 1.988-1.988v-.512a.5.5 0 1 0-1 0v.512a.99.99 0 0 1-.988.988h-1.512a.5.5 0 1 0 0 1z" style="fill-opacity:1;fill-rule:nonzero;stroke:none;stroke-width:.200002px;stroke-linecap:butt;stroke-linejoin:miter;stroke-opacity:1"/><path id="path67938" d="M19.483 677.996H17.97c-1.1 0-1.987.887-1.987 1.987v.513a.5.5 0 1 0 1 0v-.513a.99.99 0 0 1 .987-.987h1.513a.5.5 0 1 0 0-1z" style="fill-opacity:1;fill-rule:nonzero;stroke:none;stroke-width:.200002px;stroke-linecap:butt;stroke-linejoin:miter;stroke-opacity:1"/><path id="path67940" d="M16.479 672.984h3a.5.5 0 1 0 0-1h-3a.5.5 0 1 0 0 1z" style="fill-opacity:1;fill-rule:nonzero;stroke:none;stroke-width:.200002px;stroke-linecap:butt;stroke-linejoin:miter;stroke-opacity:1"/><path id="path67942" d="M22.998 682.005h-1.036c-.547 0-1-.453-1-1v-10c0-.548.453-1 1-1h1.036v-2h-1.036c-1.662 0-3 1.338-3 3v10c0 1.662 1.338 3 3 3h1.036z" style="fill-opacity:1;fill-rule:nonzero;stroke:none;stroke-width:.400003;stroke-linecap:round;stroke-opacity:1;stop-color:#000"/><path id="path67950" d="m21.984 676.005 3.5-.012-.003-1-3.5.012z" style="fill-opacity:1;fill-rule:nonzero;stroke:none;stroke-width:.200002px;stroke-linecap:butt;stroke-linejoin:miter;stroke-opacity:1"/><path id="path68048" d="M21.983 673.005h2.24l2.15-2.688-.78-.625-2 2.5.39-.187h-2z" style="fill-opacity:1;fill-rule:nonzero;stroke:none;stroke-width:.200002px;stroke-linecap:butt;stroke-linejoin:miter;stroke-opacity:1"/><path id="path68058" d="M21.983 679.005h2l-.39-.188 2 2.5.78-.625-2.15-2.687h-2.24Z" style="fill-opacity:1;fill-rule:nonzero;stroke:none;stroke-width:.200002px;stroke-linecap:butt;stroke-linejoin:miter;stroke-opacity:1"/><path id="path98208" d="M26.472 669.982a.492.492 0 0 1-.49-.488c0-.268.222-.49.49-.49.267 0 .489.222.489.49a.492.492 0 0 1-.49.488zm0-1.977c-.825 0-1.49.664-1.49 1.489 0 .824.665 1.488 1.49 1.488.824 0 1.489-.664 1.489-1.488 0-.825-.665-1.49-1.49-1.49z" style="fill-opacity:1;fill-rule:nonzero;stroke:none;stroke-width:.200002;stroke-linecap:round;stroke-dasharray:none;stroke-opacity:1;stop-color:#000"/><path id="circle98210" d="M26.472 681.982a.492.492 0 0 1-.49-.488c0-.268.222-.49.49-.49.267 0 .489.222.489.49a.492.492 0 0 1-.49.488zm0-1.977c-.825 0-1.49.664-1.49 1.489 0 .824.665 1.488 1.49 1.488.824 0 1.489-.664 1.489-1.488 0-.825-.665-1.49-1.49-1.49z" style="fill-opacity:1;fill-rule:nonzero;stroke:none;stroke-width:.200002;stroke-linecap:round;stroke-dasharray:none;stroke-opacity:1;stop-color:#000"/><path id="circle98212" d="M26.472 675.982a.492.492 0 0 1-.49-.488c0-.268.222-.49.49-.49.267 0 .489.222.489.49a.492.492 0 0 1-.49.488zm0-1.977c-.825 0-1.49.664-1.49 1.489 0 .824.665 1.488 1.49 1.488.824 0 1.489-.664 1.489-1.488 0-.825-.665-1.49-1.49-1.49z" style="fill-opacity:1;fill-rule:nonzero;stroke:none;stroke-width:.200002;stroke-linecap:round;stroke-dasharray:none;stroke-opacity:1;stop-color:#000"/></g><g id="g322453" style="stroke:#2e3436;stroke-width:.2;stroke-opacity:1" transform="matrix(5 0 0 5 -49.998 -781.763)"><path id="path121145" d="M28 669c-1.645 0-3 1.355-3 3v4.342a3.458 3.458 0 0 0-1.5-.342 3.515 3.515 0 0 0-3.5 3.5c0 1.921 1.579 3.5 3.5 3.5 1.915 0 3.49-1.57 3.5-3.482V672c0-.564.436-1 1-1h4c.564 0 1 .436 1 1v4.342a3.458 3.458 0 0 0-1.5-.342 3.515 3.515 0 0 0-3.5 3.5c0 1.921 1.579 3.5 3.5 3.5s3.5-1.579 3.5-3.5V672c0-1.645-1.355-3-3-3zm-4.5 9c.84 0 1.5.66 1.5 1.5v.016A1.485 1.485 0 0 1 23.5 681c-.84 0-1.5-.66-1.5-1.5s.66-1.5 1.5-1.5zm8 0c.84 0 1.5.66 1.5 1.5s-.66 1.5-1.5 1.5-1.5-.66-1.5-1.5.66-1.5 1.5-1.5z" style="color:#000;fill-opacity:1;stroke:none;stroke-width:.2;stroke-linecap:round;stroke-linejoin:round;-inkscape-stroke:none" transform="translate(320 -504)"/></g><g id="g43313" style="fill-opacity:1;stroke-width:.2" transform="matrix(5 0 0 5 440.401 -1221.764)"><path id="rect43367" d="M231.826 188.4a3.842 3.842 0 0 0-3.828 3.829v5.855a3.842 3.842 0 0 0 3.828 3.828h5.856a3.842 3.842 0 0 0 3.828-3.828v-5.855a3.842 3.842 0 0 0-3.828-3.829zm0 2h5.856c1.03 0 1.828.798 1.828 1.829v5.855c0 1.03-.798 1.828-1.828 1.828h-5.856a1.803 1.803 0 0 1-1.828-1.828v-5.855c0-1.03.798-1.829 1.828-1.829z" style="color:#000;stroke-width:.2;stroke-linecap:round;-inkscape-stroke:none" transform="rotate(45)"/><path id="path10723-6" d="M24.002 303.992a.5.5 0 0 0-.5.5c0 .58.385 1.08.914 1.327.529.245 1.14.245 1.67 0 .529-.246.914-.746.914-1.327a.5.5 0 0 0-.5-.5.5.5 0 0 0-.5.5c0 .139-.09.305-.334.418a1.05 1.05 0 0 1-.828 0c-.245-.113-.336-.28-.336-.418a.5.5 0 0 0-.5-.5z" style="color:#000;fill-opacity:1;fill-rule:evenodd;stroke-width:.2;stroke-linecap:round;-inkscape-stroke:none"/><path id="path43398" d="M29.485 303.992a.5.5 0 0 0-.5.5c0 .58.385 1.08.914 1.327.53.245 1.141.245 1.67 0 .53-.246.914-.746.914-1.327a.5.5 0 0 0-.5-.5.5.5 0 0 0-.5.5c0 .139-.09.305-.334.418a1.05 1.05 0 0 1-.828 0c-.244-.113-.336-.28-.336-.418a.5.5 0 0 0-.5-.5z" style="color:#000;fill-opacity:1;fill-rule:evenodd;stroke-width:.2;stroke-linecap:round;-inkscape-stroke:none"/></g><g id="g5609" style="stroke-width:.200005" transform="matrix(4.99988 0 0 4.99988 -154.957 -641.748)"><path id="rect6743" d="M345 141h6v6h-6z" style="fill-opacity:1;stroke-width:.200005"/><path id="rect6745" d="M353 141h3v1h-3z" style="fill-opacity:1;stroke-width:.200005"/><path id="rect6750" d="M353 143h3v1h-3z" style="fill-opacity:1;stroke-width:.200005"/><path id="rect6752" d="M353 145h3v1h-3z" style="fill-opacity:1;stroke-width:.200005"/><path id="rect6754" d="M340 142h3v1h-3z" style="fill-opacity:1;stroke-width:.200005"/><path id="rect6756" d="M340 144h3v1h-3z" style="fill-opacity:1;stroke-width:.200005"/><path id="rect6758" d="M340 146h3v1h-3z" style="fill-opacity:1;stroke-width:.200005"/><path id="rect6762" d="M345 136h1v3h-1z" style="fill-opacity:1;stroke-width:.200005"/><path id="rect6764" d="M347 136h1v3h-1z" style="fill-opacity:1;stroke-width:.200005"/><path id="rect6766" d="M349 136h1v3h-1z" style="fill-opacity:1;stroke-width:.200005"/><path id="rect6768" d="M350 149h1v3h-1z" style="fill-opacity:1;stroke-width:.200005"/><path id="rect6770" d="M348 149h1v3h-1z" style="fill-opacity:1;stroke-width:.200005"/><path id="rect6772" d="M346 149h1v3h-1z" style="fill-opacity:1;stroke-width:.200005"/><path id="path6739" d="M345 138c-1.645 0-3 1.355-3 3v6c0 1.645 1.355 3 3 3h6c1.645 0 3-1.355 3-3v-6c0-1.645-1.355-3-3-3zm0 2h6c.571 0 1 .429 1 1v6c0 .571-.429 1-1 1h-6c-.571 0-1-.429-1-1v-6c0-.571.429-1 1-1z" style="fill-opacity:1;stroke-width:.200005"/></g></svg>